<?xml version="1.0" standalone="no"?>
<!DOCTYPE svg PUBLIC "-//W3C//DTD SVG 20010904//EN"
 "http://www.w3.org/TR/2001/REC-SVG-20010904/DTD/svg10.dtd">
<svg version="1.0" xmlns="http://www.w3.org/2000/svg"
 width="186.000000pt" height="186.000000pt" viewBox="0 0 186.000000 186.000000"
 preserveAspectRatio="xMidYMid meet">
<metadata>
Created by potrace 1.14, written by Peter Selinger 2001-2017
</metadata>
<g transform="translate(0.000000,186.000000) scale(0.100000,-0.100000)"
fill="#000000" stroke="none">
<path d="M457 1484 c-145 -26 -287 -94 -410 -197 l-49 -40 98 -98 97 -98 45
40 c89 78 258 139 383 139 120 0 295 -64 380 -139 l46 -40 97 98 98 98 -49 40
c-209 175 -471 245 -736 197z"/>
<path d="M711 716 l-93 -94 68 -56 c83 -69 214 -137 320 -168 67 -20 102 -23
234 -23 117 0 171 5 220 18 100 28 257 109 334 172 l68 57 -93 94 c-52 52 -97
94 -100 94 -4 0 -26 -16 -50 -36 -99 -83 -244 -134 -379 -134 -135 0 -280 51
-379 134 -24 20 -46 36 -50 36 -3 0 -48 -42 -100 -94z"/>
</g>
</svg>
