<svg width="876" height="132" viewBox="0 0 876 132" fill="none" xmlns="http://www.w3.org/2000/svg">
<path fill-rule="evenodd" clip-rule="evenodd" d="M81.2504 83.736C104.853 107.338 143.12 107.338 166.722 83.736L185.973 102.986C151.739 137.22 96.234 137.22 62 102.986L81.2504 83.736Z" fill="black"/>
<path fill-rule="evenodd" clip-rule="evenodd" d="M104.722 60.2366C81.1197 36.6343 42.8527 36.6343 19.2504 60.2366L0 40.9862C34.234 6.75217 89.7384 6.75217 123.973 40.9862L104.722 60.2366Z" fill="black"/>
<path d="M603.096 0C599.016 0 595.536 1.32094 592.656 3.96094C589.896 6.60093 588.516 10.0804 588.516 14.4004C588.516 18.7204 589.896 22.1998 592.656 24.8398C595.536 27.4798 599.016 28.8008 603.096 28.8008C607.296 28.8008 610.775 27.4798 613.535 24.8398C616.295 22.1998 617.676 18.7204 617.676 14.4004C617.676 10.0804 616.295 6.60093 613.535 3.96094C610.775 1.32094 607.296 0 603.096 0ZM541.166 11.5195V39.2402H495.982C490.775 37.5743 485.16 36.7207 479.119 36.7207C470.239 36.7207 462.26 38.5191 455.18 42.1191C448.1 45.7191 442.519 50.9393 438.439 57.7793C434.359 64.6193 432.32 72.8395 432.32 82.4395V85.3203C432.32 94.9203 434.359 103.14 438.439 109.98C442.519 116.82 448.1 122.041 455.18 125.641C462.26 129.241 470.239 131.039 479.119 131.039C487.999 131.039 495.981 129.241 503.061 125.641C510.141 122.041 515.721 116.82 519.801 109.98C523.881 103.14 525.92 94.9203 525.92 85.3203V82.4395C525.92 72.9224 523.91 64.7655 519.9 57.9609H541.166V108.359C541.166 114.479 542.966 119.399 546.566 123.119C550.286 126.719 555.087 128.521 560.967 128.52L591.756 128.512V128.52H614.436V44.5371L641.188 128.52H677.188L700.125 56.5195H738.721C744.481 56.5195 748.551 56.4607 751.191 59.2207C753.831 61.8607 755.152 65.2805 755.152 69.4805V74.5195H730.672C723.952 74.5195 717.952 75.5998 712.672 77.7598C707.512 79.7998 703.432 82.9191 700.432 87.1191C697.552 91.1991 696.111 96.2999 696.111 102.42C696.111 108.54 697.552 113.76 700.432 118.08C703.432 122.28 707.452 125.521 712.492 127.801C717.532 129.961 723.232 131.039 729.592 131.039C735.832 131.039 740.752 130.14 744.352 128.34C747.952 126.54 750.591 124.501 752.271 122.221C753.951 119.821 755.032 117.901 755.512 116.461H758.932V116.641C758.932 120.241 760.372 123.119 763.252 125.279C766.132 127.439 769.792 128.52 774.232 128.52H788.836H789.352H811.516V83.1602C811.516 74.8802 813.435 68.4604 817.275 63.9004C821.115 59.2204 826.515 56.8809 833.475 56.8809C839.595 56.8809 844.276 58.5599 847.516 61.9199C850.876 65.2799 852.555 70.3191 852.555 77.0391V128.52H875.234V75.2402C875.234 67.8002 873.794 61.3208 870.914 55.8008C868.034 50.1608 863.956 45.7802 858.676 42.6602C853.516 39.4202 847.454 37.8008 840.494 37.8008C832.454 37.8008 826.454 39.2391 822.494 42.1191C818.534 44.8791 815.835 47.8195 814.395 50.9395H811.154V39.2402H788.836V109.801H782.152C778.792 109.801 777.111 108 777.111 104.4V71.0996C777.111 59.9396 773.692 51.4191 766.852 45.5391C760.781 40.3197 750.507 39.6003 748.5 39.5C738.5 39 726.928 39.0576 716.221 39.2402C708.242 39.3763 713.721 39.2402 705.629 39.2402H681.508L660.809 111.961H657.568L636.867 39.2402H614.436H591.756V109.801H568.887C565.527 109.801 563.846 108 563.846 104.4V57.9609H588.326V39.2402H563.846V11.5195H541.166ZM253.641 36.7207C244.761 36.7207 236.96 38.6405 230.24 42.4805C223.52 46.2005 218.3 51.54 214.58 58.5C210.86 65.34 209 73.4408 209 82.8008V84.9609C209 94.3209 210.86 102.479 214.58 109.439C218.42 116.279 223.7 121.621 230.42 125.461C237.26 129.181 245.12 131.039 254 131.039C262.16 131.039 268.88 129.78 274.16 127.26C279.44 124.62 283.64 121.5 286.76 117.9C290 114.18 292.461 110.761 294.141 107.641L275.6 97.9199C274.04 101.28 271.76 104.34 268.76 107.1C265.76 109.86 261.081 111.24 254.721 111.24C248.481 111.24 243.201 109.32 238.881 105.48C234.561 101.64 232.279 96.6591 232.039 90.5391H297.02V82.8008C297.02 73.6808 295.219 65.6994 291.619 58.8594C288.019 51.8994 282.98 46.5002 276.5 42.6602C270.02 38.7002 262.401 36.7207 253.641 36.7207ZM347.627 37.8008C341.747 37.8008 337.006 38.9407 333.406 41.2207C329.806 43.3807 327.228 45.9609 325.668 48.9609H322.428V39.2402H300.107V128.52H322.787V75.7793C322.787 69.6593 324.168 64.9802 326.928 61.7402C329.808 58.3802 333.826 56.6992 338.986 56.6992C343.546 56.6992 347.087 57.9605 349.607 60.4805C352.127 62.8805 353.387 66.5409 353.387 71.4609V128.52H376.066V75.7793C376.066 69.6593 377.447 64.9802 380.207 61.7402C383.087 58.3802 387.108 56.6992 392.268 56.6992C396.828 56.6992 400.367 57.9605 402.887 60.4805C405.407 62.8805 406.668 66.5409 406.668 71.4609V128.52H429.348V69.8398C429.348 62.6399 427.967 56.6995 425.207 52.0195C422.567 47.2195 418.966 43.6804 414.406 41.4004C409.966 39.0004 404.987 37.8008 399.467 37.8008C392.627 37.8008 387.347 39.0601 383.627 41.5801C379.907 44.1001 377.026 47.2791 374.986 51.1191H371.746C369.706 47.1591 366.768 43.9801 362.928 41.5801C359.088 39.0601 353.987 37.8008 347.627 37.8008ZM253.461 56.5195C259.341 56.5195 264.08 58.0792 267.68 61.1992C271.4 64.3192 273.5 68.4591 273.98 73.6191H232.221C233.061 68.4591 235.281 64.3192 238.881 61.1992C242.481 58.0792 247.341 56.5195 253.461 56.5195ZM479.119 56.8809C486.199 56.8809 491.96 59.1607 496.4 63.7207C500.96 68.1607 503.24 74.5805 503.24 82.9805V84.7793C503.24 93.1793 500.96 99.6607 496.4 104.221C491.84 108.661 486.079 110.881 479.119 110.881C472.159 110.881 466.4 108.661 461.84 104.221C457.28 99.6607 455 93.1793 455 84.7793V82.9805C455 74.5805 457.28 68.1607 461.84 63.7207C466.4 59.1607 472.159 56.8809 479.119 56.8809ZM732.293 91.4395H755.152V93.2402C755.152 99.1202 753.111 103.861 749.031 107.461C745.071 110.941 739.913 112.68 733.553 112.68C728.753 112.68 725.092 111.659 722.572 109.619C720.052 107.579 718.793 104.939 718.793 101.699C718.793 98.4592 719.993 95.9406 722.393 94.1406C724.793 92.3406 728.093 91.4395 732.293 91.4395Z" fill="black"/>
</svg>
