<svg width="331" height="50" viewBox="0 0 331 50" fill="none" xmlns="http://www.w3.org/2000/svg">
<path fill-rule="evenodd" clip-rule="evenodd" d="M30.7277 31.6675C39.6538 40.5934 54.1258 40.5934 63.0517 31.6675L70.3321 38.9475C57.3854 51.8943 36.3943 51.8943 23.4475 38.9475L30.7277 31.6675Z" fill="black"/>
<path fill-rule="evenodd" clip-rule="evenodd" d="M39.6042 22.7806C30.6782 13.8545 16.2062 13.8545 7.2802 22.7806L0 15.5004C12.9468 2.55359 33.9377 2.55359 46.8846 15.5004L39.6042 22.7806Z" fill="black"/>
<path d="M228.081 0C226.538 0 225.223 0.499559 224.133 1.49796C223.09 2.49637 222.567 3.81225 222.567 5.446C222.567 7.07976 223.09 8.39564 224.133 9.39404C225.223 10.3924 226.538 10.892 228.081 10.892C229.67 10.892 230.986 10.3924 232.029 9.39404C233.073 8.39564 233.595 7.07976 233.595 5.446C233.595 3.81225 233.073 2.49637 232.029 1.49796C230.986 0.499559 229.67 0 228.081 0ZM204.661 4.35651V14.84H187.573C185.603 14.21 183.48 13.8872 181.195 13.8872C177.837 13.8872 174.819 14.5673 172.142 15.9288C169.464 17.2903 167.354 19.2645 165.811 21.8512C164.268 24.438 163.497 27.5468 163.497 31.1773V32.2668C163.497 35.8974 164.268 39.0061 165.811 41.5929C167.354 44.1797 169.464 46.1539 172.142 47.5153C174.819 48.8768 177.837 49.5569 181.195 49.5569C184.554 49.5569 187.572 48.8768 190.25 47.5153C192.927 46.1539 195.038 44.1797 196.581 41.5929C198.124 39.0061 198.895 35.8974 198.895 32.2668V31.1773C198.895 27.5781 198.135 24.4933 196.618 21.9199H204.661V40.9798C204.661 43.2943 205.341 45.1549 206.703 46.5617C208.11 47.9232 209.925 48.6045 212.149 48.6041L223.793 48.6011V48.6041H232.37V16.8432L242.487 48.6041H256.102L264.776 21.3748H279.373C281.551 21.3748 283.09 21.3526 284.089 22.3963C285.087 23.3948 285.587 24.6881 285.587 26.2764V28.1821H276.329C273.787 28.1821 271.518 28.5907 269.521 29.4075C267.57 30.179 266.027 31.3587 264.892 32.9471C263.803 34.4901 263.258 36.4191 263.258 38.7336C263.258 41.0481 263.803 43.0223 264.892 44.656C266.027 46.2444 267.547 47.47 269.453 48.3323C271.359 49.1491 273.515 49.5569 275.92 49.5569C278.28 49.5569 280.141 49.2169 281.502 48.5361C282.864 47.8554 283.862 47.0842 284.497 46.222C285.133 45.3143 285.541 44.5883 285.723 44.0437H287.016V44.1117C287.016 45.4731 287.561 46.5618 288.65 47.3787C289.739 48.1956 291.123 48.6041 292.803 48.6041H298.325H298.52H306.903V31.4499C306.903 28.3185 307.629 25.8907 309.081 24.1661C310.533 22.3962 312.575 21.5115 315.207 21.5115C317.522 21.5115 319.292 22.1465 320.517 23.4171C321.788 24.6878 322.423 26.5936 322.423 29.135V48.6041H331V28.4547C331 25.641 330.455 23.1906 329.366 21.103C328.277 18.97 326.735 17.3133 324.738 16.1334C322.786 14.9081 320.494 14.2957 317.862 14.2957C314.821 14.2957 312.552 14.8396 311.054 15.9288C309.557 16.9726 308.536 18.0846 307.991 19.2645H306.766V14.84H298.325V41.5249H295.798C294.527 41.5249 293.891 40.8441 293.891 39.4826V26.8888C293.891 22.6682 292.598 19.4459 290.011 17.2222C287.715 15.2483 283.83 14.9762 283.071 14.9383C279.289 14.7492 274.913 14.771 270.863 14.84C267.846 14.8915 269.918 14.84 266.858 14.84H257.736L249.907 42.3419H248.682L240.853 14.84H232.37H223.793V41.5249H215.144C213.873 41.5249 213.238 40.8441 213.238 39.4826V21.9199H222.496V14.84H213.238V4.35651H204.661ZM95.9229 13.8872C92.5646 13.8872 89.6147 14.6132 87.0733 16.0655C84.5319 17.4723 82.5577 19.4916 81.1508 22.1238C79.744 24.7106 79.0405 27.7742 79.0405 31.314V32.1309C79.0405 35.6707 79.744 38.7561 81.1508 41.3883C82.6031 43.9751 84.5998 45.9951 87.1412 47.4474C89.728 48.8542 92.7006 49.5569 96.0588 49.5569C99.1448 49.5569 101.686 49.0807 103.683 48.1277C105.68 47.1293 107.268 45.9496 108.448 44.5881C109.673 43.1812 110.604 41.8879 111.239 40.708L104.227 37.0318C103.637 38.3025 102.775 39.4596 101.641 40.5034C100.506 41.5472 98.7366 42.0693 96.3314 42.0693C93.9715 42.0693 91.9748 41.3433 90.341 39.8911C88.7072 38.4388 87.8443 36.555 87.7535 34.2405H112.328V31.314C112.328 27.8649 111.647 24.8465 110.286 22.2597C108.924 19.6275 107.019 17.5856 104.568 16.1334C102.117 14.6358 99.2358 13.8872 95.9229 13.8872ZM131.467 14.2957C129.243 14.2957 127.45 14.7268 126.089 15.589C124.728 16.4059 123.753 17.3817 123.163 18.5163H121.937V14.84H113.496V48.6041H122.073V28.6585C122.073 26.3441 122.595 24.5745 123.639 23.3492C124.728 22.0785 126.248 21.4428 128.199 21.4428C129.924 21.4428 131.263 21.9197 132.216 22.8728C133.169 23.7804 133.645 25.1647 133.645 27.0254V48.6041H142.222V28.6585C142.222 26.3441 142.745 24.5745 143.788 23.3492C144.878 22.0785 146.398 21.4428 148.349 21.4428C150.074 21.4428 151.412 21.9197 152.365 22.8728C153.318 23.7804 153.795 25.1647 153.795 27.0254V48.6041H162.373V26.4123C162.373 23.6894 161.85 21.4429 160.807 19.673C159.808 17.8577 158.446 16.5192 156.722 15.657C155.043 14.7493 153.16 14.2957 151.072 14.2957C148.485 14.2957 146.489 14.7719 145.082 15.7249C143.675 16.678 142.585 17.8802 141.814 19.3325H140.589C139.817 17.8349 138.706 16.6326 137.254 15.7249C135.801 14.7719 133.872 14.2957 131.467 14.2957ZM95.855 21.3748C98.0787 21.3748 99.8708 21.9647 101.232 23.1446C102.639 24.3245 103.434 25.8902 103.615 27.8416H87.8222C88.1399 25.8902 88.9795 24.3245 90.341 23.1446C91.7025 21.9647 93.5405 21.3748 95.855 21.3748ZM181.195 21.5115C183.873 21.5115 186.052 22.3737 187.731 24.0982C189.455 25.7773 190.318 28.2052 190.318 31.3819V32.0622C190.318 35.239 189.455 37.6901 187.731 39.4146C186.006 41.0938 183.828 41.9334 181.195 41.9334C178.563 41.9334 176.385 41.0938 174.661 39.4146C172.936 37.6901 172.074 35.239 172.074 32.0622V31.3819C172.074 28.2052 172.936 25.7773 174.661 24.0982C176.385 22.3737 178.563 21.5115 181.195 21.5115ZM276.942 34.581H285.587V35.262C285.587 37.4857 284.815 39.2786 283.272 40.6401C281.774 41.9561 279.823 42.6137 277.418 42.6137C275.603 42.6137 274.219 42.2277 273.266 41.4562C272.313 40.6848 271.836 39.6864 271.836 38.4611C271.836 37.2357 272.29 36.2832 273.198 35.6025C274.105 34.9218 275.353 34.581 276.942 34.581Z" fill="black"/>
</svg>
