<svg width="264" height="270" viewBox="0 0 264 270" fill="none" xmlns="http://www.w3.org/2000/svg">
<path d="M1.12622 120.28L123.293 261.072C132.798 271.989 130.903 272.976 141.072 261.072L263.202 120.28C263.571 119.856 263.81 119.334 263.891 118.778C263.972 118.221 263.892 117.653 263.659 117.141C263.426 116.629 263.051 116.195 262.579 115.89C262.106 115.585 261.556 115.422 260.993 115.421L231.179 115.421C229.485 115.421 227.866 116.158 226.725 117.446L146.151 210.313L146.151 3.04542C146.151 1.42585 144.826 0.100744 143.207 0.100744L121.122 0.100742C119.502 0.100742 118.177 1.42585 118.177 3.04541L118.177 210.313L37.6033 117.446C36.499 116.158 34.8795 115.421 33.1495 115.421L3.33472 115.421C0.831746 115.421 -0.530157 118.366 1.12622 120.28Z" fill="black"/>
</svg>
