<svg width="344" height="300" viewBox="0 0 344 300" fill="none" xmlns="http://www.w3.org/2000/svg">
<path d="M149.919 298.404C148.676 294.322 147.424 290.249 146.234 286.159C145.043 282.068 143.88 277.968 142.76 273.86C141.632 269.743 140.565 265.617 139.533 261.482L139.04 259.516C138.662 259.874 138.258 260.204 137.832 260.504L138.246 261.844C139.516 265.917 140.759 269.99 141.94 274.089C143.13 278.18 144.279 282.282 145.387 286.397C146.436 290.214 147.415 294.058 148.402 297.893C142.954 297.778 137.506 297.602 132.057 297.532L123.444 297.39L114.839 297.311L97.6214 297.179L89.0168 297.17L81.5495 297.223C80.9941 293.6 80.3681 289.985 79.7686 286.344L77.6969 274.239L73.2623 249.448L81.0205 249.951L84.8291 250.162L88.7258 250.33C93.9097 250.542 99.0995 250.7 104.295 250.806C109.488 250.929 114.681 250.947 119.873 250.956C120.825 250.947 121.778 250.938 122.721 250.929C122.752 250.11 122.934 249.303 123.259 248.549L119.856 248.576L104.304 248.69L88.7435 248.858L84.8467 248.919L80.8795 249.016L73.0684 249.272L75.8719 273.702L77.4235 286.203C77.9613 290.39 78.4727 294.587 79.0722 298.775L79.2397 299.921L80.4034 299.93L89.0168 300L97.6213 299.991L114.839 299.85L123.444 299.771L132.057 299.63C137.797 299.559 143.536 299.365 149.275 299.251L150.174 299.233L149.919 298.404Z" fill="black"/>
<path d="M124.846 274.716C122.466 273.543 120.235 275.897 117.846 274.477C116.303 273.552 115.801 271.718 115.44 270.369C114.293 266.173 116.427 263.845 115.078 262.408C113.791 261.051 110.291 261.474 108.201 263.131C105.662 265.141 106.403 267.98 104.217 268.923C103.159 269.382 102.259 269.038 98.8828 267.83C91.1422 265.071 90.4898 264.947 90.1019 265.309C88.4533 266.808 90.8601 273.27 94.2014 277.334C96.0704 279.609 88.515 281.627 88.6472 283.408C88.7971 285.374 92.4734 287.525 95.6472 287.023C100.426 286.274 102.78 279.758 103.855 280.27C104.825 280.719 101.995 285.586 104.093 289.438C105.521 292.048 108.951 293.741 110.608 292.815C111.772 292.172 111.887 290.347 112.063 286.785C112.292 282.086 111.569 279.326 112.301 279.062C112.945 278.824 113.632 280.949 115.678 282.439C119.142 284.96 125.613 285.022 127.262 281.954C128.452 279.741 127.165 275.862 124.846 274.716ZM106.994 277.122C103.582 277.122 103.591 271.833 106.994 271.833C110.397 271.833 110.397 277.122 106.994 277.122V277.122Z" fill="black"/>
<path d="M103.358 269.451C102.766 268.258 102.302 267.007 101.973 265.717C101.636 264.448 101.455 263.142 101.434 261.829C101.432 260.519 101.667 259.219 102.127 257.993C102.624 256.809 103.366 255.745 104.304 254.87C103.512 255.831 102.933 256.948 102.605 258.149C102.332 259.334 102.276 260.558 102.437 261.762C102.617 262.959 102.943 264.129 103.406 265.246C103.851 266.352 104.41 267.408 105.072 268.399L103.358 269.451Z" fill="black"/>
<path d="M196.301 167.282C184.311 185.452 173.168 204.944 171.122 208.541C169.454 203.958 168.255 199.217 167.543 194.391C167.543 194.391 167.472 194.515 167.34 194.744C167.219 194.062 167.136 193.373 167.093 192.681C166.996 191.641 166.961 190.592 166.961 189.552C166.973 187.463 167.09 185.377 167.314 183.301C167.55 181.188 167.615 179.059 167.508 176.936C167.455 174.809 167.05 172.705 166.309 170.711C166.545 171.734 166.69 172.775 166.741 173.823C166.826 174.864 166.858 175.909 166.838 176.953C166.802 179.042 166.67 181.126 166.441 183.204C166.208 185.317 166.154 187.447 166.282 189.569C166.37 191.385 166.687 193.183 167.226 194.92C164.19 199.752 160.672 204.262 156.726 208.383C153.224 212.045 149.173 215.138 144.718 217.551C136.783 221.889 122.995 229.427 119.98 231.084C120.233 230.028 120.358 228.944 120.35 227.858C120.35 223.908 122.66 219.2 123.709 215.444V215.436L129.254 216.476C132.79 216.493 136.334 216.52 139.895 216.229C136.581 214.924 133.275 213.734 129.977 212.517L124.132 211.424C124.06 211.017 123.902 210.63 123.668 210.289C123.434 209.949 123.129 209.662 122.774 209.449C120.041 207.766 118.049 207.766 116.691 210.022L114.54 209.608C113.103 202.493 110.07 200.113 107.972 199.328C107.268 199.042 106.509 198.916 105.75 198.958C105.75 198.958 105.777 198.941 105.821 198.905C107.108 197.9 126.742 182.463 137.453 165.88C148.535 148.715 159.794 138.171 171.766 137.897C171.766 137.897 184.179 137.809 190.253 138.338C192.008 141.265 194.494 159.656 196.301 167.282Z" fill="black"/>
<path d="M198.417 235.81C198.666 235.882 198.919 235.941 199.175 235.986H183.103L198.417 235.81Z" fill="black"/>
<path d="M212.752 144.51C213.193 141.927 213.616 139.114 214.013 136.046C214.013 136.046 217.425 135.464 222.644 134.935C219.928 136.557 216.516 139.978 212.752 144.51Z" fill="black"/>
<path d="M283.846 235.986H202.384C213.819 233.826 227.643 210.349 238.857 186.757C238.918 188.684 239.095 190.607 239.386 192.514C239.65 194.444 240.135 196.34 240.497 198.209C240.826 200.091 241.058 201.989 241.193 203.895C241.314 205.802 241.293 207.714 241.131 209.617C240.995 211.51 240.634 213.381 240.056 215.189L240.047 215.215L240.038 215.259C239.814 216.886 239.734 218.529 239.8 220.17C239.861 221.802 240.056 223.427 240.382 225.027C240.706 226.628 241.212 228.187 241.889 229.674C242.559 231.154 243.419 232.541 244.446 233.8C243.511 232.486 242.736 231.065 242.136 229.568C241.551 228.073 241.12 226.522 240.849 224.939C240.309 221.791 240.285 218.575 240.779 215.418C240.77 215.436 240.77 215.444 240.761 215.462L240.779 215.392C241.386 213.545 241.777 211.633 241.942 209.696C242.122 207.75 242.16 205.794 242.057 203.842C241.934 201.898 241.687 199.963 241.316 198.05C240.929 196.128 240.444 194.277 240.162 192.39C239.802 190.08 239.576 187.752 239.483 185.417C251.067 160.82 259.698 136.513 259.698 136.513C265.755 138.215 270.789 141.001 273.478 145.4C273.991 146.248 274.547 147.069 275.144 147.86C279.138 153.035 291.427 168.437 283.846 235.986Z" fill="black"/>
<path d="M196.141 167.455C195.334 164.579 194.737 161.654 194.098 158.743L192.32 149.992L191.383 145.64C191.064 144.196 190.737 142.748 190.331 141.356C190.231 141.008 190.134 140.655 190.011 140.332C189.913 140.015 189.789 139.707 189.641 139.411C189.333 138.818 188.945 138.271 188.486 137.786C188.041 137.299 187.528 136.88 186.962 136.541C186.686 136.379 186.396 136.242 186.096 136.131C185.829 136.03 185.552 135.959 185.269 135.92L185.712 135.833C184.647 136.319 183.523 136.665 182.369 136.862C181.196 137.069 179.997 137.073 178.822 136.875C177.593 136.671 176.445 136.133 175.502 135.319C174.649 134.524 173.91 133.614 173.308 132.615C172.16 130.726 171.157 128.754 170.306 126.715C169.438 124.702 168.654 122.672 167.94 120.599L168.453 120.938C167.575 121 166.695 120.841 165.894 120.477C165.464 120.26 165.104 119.925 164.859 119.51C164.633 119.106 164.504 118.656 164.482 118.193C164.456 117.347 164.594 116.504 164.888 115.711C165.154 114.935 165.497 114.188 165.912 113.482C166.783 112.22 167.197 110.7 167.089 109.171C167.02 108.416 166.806 107.682 166.46 107.008C166.098 106.34 165.687 105.617 165.356 104.89C165.009 104.159 164.726 103.399 164.512 102.619C164.276 101.85 164.082 101.069 163.931 100.279C163.745 99.4944 163.682 98.6898 163.554 97.8937C163.496 97.0903 163.412 96.2859 163.425 95.4775C163.41 93.8571 163.564 92.2396 163.883 90.651C164.193 89.0343 164.705 87.463 165.407 85.9742C165.458 85.8695 165.538 85.7813 165.637 85.7197C165.735 85.6581 165.85 85.6256 165.966 85.6259C166.083 85.6261 166.197 85.6592 166.295 85.7213C166.394 85.7834 166.473 85.872 166.524 85.977L166.555 86.0415C167.904 88.7977 169.564 91.3901 171.503 93.7681C173.414 96.1432 175.659 98.2288 178.168 99.9598C179.408 100.812 180.733 101.534 182.121 102.115C183.494 102.707 184.931 103.14 186.402 103.404C189.355 103.92 192.381 103.847 195.306 103.19L195.364 103.179C195.542 103.143 195.727 103.156 195.898 103.217C196.069 103.279 196.22 103.385 196.335 103.526C196.699 103.975 197.016 104.461 197.28 104.975C197.535 105.445 197.76 105.931 197.954 106.429C198.34 107.404 198.646 108.409 198.87 109.434C199.28 111.452 199.464 113.51 199.416 115.569C199.381 117.599 199.181 119.623 198.816 121.62C198.632 122.642 198.518 123.539 198.371 124.491C198.316 124.96 198.285 125.432 198.279 125.905C198.24 126.374 198.236 126.845 198.269 127.315C198.3 129.176 198.755 131.004 199.6 132.662C200.444 134.295 201.763 135.635 203.382 136.505C205.057 137.367 206.931 137.769 208.813 137.67C210.738 137.55 212.634 137.139 214.436 136.452L214.472 136.439C214.529 136.418 214.591 136.413 214.65 136.424C214.71 136.434 214.765 136.46 214.812 136.5C214.858 136.539 214.893 136.589 214.914 136.646C214.934 136.703 214.939 136.764 214.928 136.824C214.518 139.086 214.115 141.348 213.68 143.6C213.675 143.627 213.659 143.65 213.637 143.665C213.615 143.68 213.588 143.685 213.562 143.68C213.537 143.674 213.515 143.66 213.5 143.639C213.486 143.618 213.479 143.593 213.481 143.567C213.71 141.283 213.972 139.007 214.225 136.732L214.717 137.104C212.874 137.966 210.899 138.515 208.875 138.727C206.79 138.935 204.687 138.587 202.78 137.717C200.839 136.809 199.236 135.307 198.202 133.429C197.185 131.581 196.602 129.525 196.496 127.417C196.446 126.901 196.434 126.383 196.459 125.865C196.451 125.348 196.469 124.832 196.513 124.317C196.633 123.309 196.746 122.241 196.885 121.31C197.175 119.404 197.33 117.48 197.347 115.553C197.366 113.651 197.172 111.754 196.768 109.896C196.568 108.988 196.297 108.096 195.959 107.229C195.795 106.805 195.605 106.392 195.39 105.991C195.202 105.625 194.982 105.276 194.732 104.949L195.761 105.285C192.555 105.997 189.236 106.035 186.014 105.397C184.406 105.079 182.84 104.578 181.346 103.905C179.855 103.25 178.434 102.444 177.107 101.5C174.48 99.6284 172.157 97.3628 170.221 94.7833C168.259 92.2519 166.631 89.4796 165.374 86.5342L166.522 86.6015C165.129 89.3611 164.372 92.3978 164.307 95.4885C164.241 97.0476 164.356 98.6092 164.649 100.142C164.784 100.912 164.962 101.673 165.18 102.423C165.375 103.176 165.635 103.909 165.959 104.616C166.276 105.337 166.641 105.999 167.023 106.73C167.386 107.478 167.614 108.285 167.696 109.113C167.833 110.775 167.403 112.435 166.476 113.822C165.701 115.124 165.288 116.61 165.278 118.126C165.29 118.452 165.392 118.768 165.573 119.039C165.754 119.31 166.007 119.525 166.304 119.66C166.97 119.912 167.688 119.998 168.395 119.91C168.501 119.901 168.607 119.927 168.697 119.983C168.787 120.039 168.858 120.122 168.897 120.221L168.908 120.249C169.705 122.242 170.585 124.222 171.527 126.152C172.439 128.079 173.494 129.934 174.684 131.703C175.225 132.55 175.877 133.32 176.623 133.993C177.351 134.579 178.219 134.965 179.142 135.114C181.118 135.364 183.125 135.059 184.938 134.232L185.015 134.199C185.13 134.151 185.256 134.132 185.38 134.145C185.837 134.196 186.285 134.308 186.713 134.478C187.109 134.63 187.492 134.816 187.856 135.035C188.564 135.469 189.206 136.004 189.76 136.624C190.319 137.227 190.787 137.909 191.148 138.648C191.326 139.021 191.472 139.408 191.586 139.805C191.717 140.182 191.808 140.55 191.904 140.92C192.665 143.869 193.141 146.803 193.62 149.753L194.977 158.587C195.39 161.536 195.836 164.475 196.337 167.409C196.339 167.422 196.339 167.435 196.336 167.448C196.334 167.461 196.328 167.473 196.321 167.484C196.313 167.495 196.304 167.505 196.293 167.512C196.282 167.519 196.269 167.524 196.256 167.526C196.232 167.53 196.206 167.525 196.185 167.512C196.164 167.499 196.148 167.478 196.141 167.455Z" fill="black"/>
<path d="M166.365 121.195C166.149 122.793 165.962 124.384 165.783 125.97C165.616 127.558 165.471 129.145 165.42 130.73C165.34 132.306 165.407 133.886 165.62 135.449C165.73 136.222 165.936 136.979 166.234 137.701C166.522 138.438 167.003 139.085 167.626 139.574C166.889 139.195 166.281 138.606 165.878 137.882C165.471 137.161 165.173 136.382 164.997 135.573C164.658 133.972 164.526 132.335 164.607 130.701C164.744 127.466 165.336 124.266 166.365 121.195Z" fill="black"/>
<path d="M165.881 87.3486C165.675 86.9871 165.543 86.5875 165.495 86.174C165.447 85.7604 165.483 85.3414 165.601 84.9421L165.764 84.3417L166.021 83.785C166.11 83.6003 166.194 83.4098 166.294 83.2313L166.637 82.729C167.094 82.0598 167.61 81.4329 168.179 80.856C168.755 80.297 169.368 79.7816 169.969 79.2462C172.504 77.3286 175.22 75.6616 178.078 74.2685C179.504 73.5917 180.946 72.9443 182.387 72.3006C183.844 71.7024 185.311 71.1248 186.78 70.5568C188.254 70.0176 189.749 69.552 191.237 69.0579C191.989 68.8315 192.715 68.5745 193.519 68.3522C194.299 68.1428 195.089 67.9747 195.887 67.8485C199.054 67.3274 202.295 67.4594 205.409 68.2363C208.511 69.018 211.379 70.5372 213.768 72.6648C216.125 74.8248 218.067 77.3979 219.498 80.2569C220.939 83.1031 222.04 86.1086 222.779 89.2116L222.794 89.2956C223.562 93.5556 224.927 97.6863 226.846 101.566C227.792 103.503 228.888 105.363 230.122 107.129C230.713 108.03 231.394 108.858 232.058 109.702C232.733 110.535 233.49 111.297 234.22 112.081L236.611 114.296L237.865 115.463C238.292 115.841 238.641 116.304 239.031 116.72C240.569 118.419 241.838 120.343 242.793 122.426C244.773 126.542 245.269 131.216 244.195 135.656C244.189 135.68 244.173 135.701 244.151 135.715C244.13 135.729 244.104 135.733 244.078 135.728C244.053 135.723 244.031 135.709 244.016 135.688C244.002 135.667 243.995 135.642 243.999 135.616L244 135.605C244.283 133.437 244.196 131.238 243.742 129.099C243.331 126.981 242.586 124.942 241.534 123.058C241.29 122.582 241.015 122.122 240.711 121.681C240.409 121.239 240.136 120.78 239.812 120.354C239.166 119.502 238.466 118.693 237.715 117.931C237.333 117.557 236.998 117.138 236.58 116.8L235.363 115.752L232.808 113.54C229.526 110.37 226.862 106.619 224.951 102.476C224 100.425 223.195 98.3088 222.543 96.1439C221.868 93.9768 221.374 91.7578 221.063 89.5095L221.078 89.5931C220.478 86.5741 219.583 83.6213 218.406 80.7775C217.223 77.9304 215.488 75.346 213.301 73.1739C212.175 72.1236 210.923 71.2185 209.572 70.4799C208.211 69.7579 206.757 69.2288 205.251 68.9079C202.234 68.3067 199.122 68.3808 196.138 69.1248C195.399 69.2958 194.669 69.5056 193.952 69.7534C193.262 69.9963 192.53 70.3123 191.8 70.5895L187.409 72.2328C185.967 72.8136 184.522 73.3846 183.068 73.935L178.793 75.7725C175.978 77.0353 173.264 78.5125 170.674 80.1908C170.07 80.6514 169.443 81.0977 168.857 81.5827C168.282 82.0742 167.747 82.6108 167.258 83.1875L166.892 83.6207C166.786 83.7735 166.698 83.9365 166.596 84.0931L166.301 84.5712L166.095 85.0852C165.801 85.7675 165.783 86.5373 166.045 87.2325L166.055 87.2535C166.065 87.2763 166.067 87.3023 166.059 87.3261C166.051 87.3499 166.034 87.3699 166.012 87.3819C165.99 87.394 165.965 87.3973 165.94 87.3911C165.916 87.3849 165.895 87.3697 165.881 87.3486L165.881 87.3486Z" fill="black"/>
<path d="M168.369 106.776C169.76 105.776 171.277 104.965 172.882 104.365C173.684 104.057 174.508 103.809 175.347 103.625C176.191 103.409 177.071 103.368 177.931 103.506C177.11 103.686 176.304 103.93 175.521 104.236L173.172 105.125C171.599 105.715 170.031 106.325 168.369 106.776Z" fill="black"/>
<path d="M172.769 112.397C173.085 112.386 173.385 112.252 173.605 112.025C173.825 111.797 173.948 111.493 173.948 111.176C173.948 110.86 173.825 110.555 173.605 110.328C173.385 110.1 173.085 109.966 172.769 109.956C172.453 109.966 172.153 110.1 171.933 110.328C171.713 110.555 171.59 110.86 171.59 111.176C171.59 111.493 171.713 111.797 171.933 112.025C172.153 112.252 172.453 112.386 172.769 112.397Z" fill="black"/>
<path d="M170.8 127.185C172.006 127.215 173.212 127.119 174.398 126.897C174.979 126.784 175.559 126.654 176.141 126.495C176.727 126.343 177.304 126.154 177.931 126.009C176.986 126.882 175.812 127.468 174.546 127.697C173.911 127.81 173.263 127.834 172.622 127.766C171.978 127.712 171.356 127.513 170.8 127.185Z" fill="black"/>
<path d="M240.778 215.391V215.418C240.77 215.436 240.77 215.444 240.761 215.462L240.778 215.391Z" fill="white"/>
<path d="M194.21 170.477C195.367 167.795 196.714 165.199 198.241 162.71C199.721 160.208 201.333 157.795 203.023 155.437C204.719 153.084 206.496 150.788 208.406 148.593C210.285 146.352 212.349 144.272 214.575 142.374C213.157 144.954 211.637 147.41 210.057 149.833C208.493 152.265 206.854 154.639 205.169 156.982C203.48 159.321 201.749 161.631 199.929 163.882C198.124 166.144 196.261 168.365 194.21 170.477Z" fill="black"/>
<path d="M259.698 136.513C247.893 133.181 232.227 133.966 222.644 134.935C223.218 134.582 223.834 134.301 224.477 134.098C224.477 134.098 251.843 129.267 259.698 136.513Z" fill="white"/>
<path d="M259.813 136.578C259.442 136.533 259.069 136.51 258.695 136.508C258.24 136.492 257.787 136.45 257.337 136.384C256.564 136.308 255.792 136.243 255.03 136.147C254.26 136.085 253.491 136.028 252.729 135.945C251.963 135.882 251.193 135.852 250.431 135.774L245.835 135.503C244.3 135.444 242.768 135.352 241.231 135.244C238.16 135.026 235.06 134.649 231.958 134.689C228.856 134.746 225.764 135.059 222.714 135.625L219.61 136.178L222.29 134.339C222.893 133.91 223.547 133.557 224.237 133.288L224.331 133.266C227.288 132.543 230.289 132.014 233.315 131.68C234.824 131.494 236.341 131.357 237.862 131.24C239.384 131.168 240.912 131.084 242.443 131.131C245.526 131.152 248.598 131.501 251.608 132.173C253.131 132.515 254.613 133.016 256.03 133.669C256.739 134.006 257.418 134.401 258.06 134.852C258.383 135.071 258.678 135.339 258.981 135.576C259.162 135.728 259.323 135.901 259.462 136.093C259.604 136.289 259.701 136.454 259.813 136.578ZM259.583 136.449C259.42 136.348 259.244 136.272 259.059 136.222C258.916 136.18 258.779 136.121 258.65 136.046C258.314 135.889 257.999 135.71 257.656 135.578C256.977 135.314 256.283 135.089 255.578 134.905C254.161 134.552 252.719 134.309 251.264 134.178C248.332 133.916 245.388 133.828 242.445 133.915C239.49 133.983 236.521 134.077 233.547 134.245C230.576 134.427 227.591 134.699 224.624 134.93L224.718 134.908C224.121 135.043 223.543 135.252 222.998 135.531L222.574 134.246C225.702 134.173 228.812 134.065 231.919 133.817C235.024 133.578 238.14 133.102 241.282 133.025C242.067 133.013 242.852 132.984 243.637 133.033C244.422 133.064 245.207 133.082 245.989 133.172C246.772 133.25 247.556 133.306 248.337 133.403C249.117 133.518 249.897 133.619 250.674 133.748C252.228 134.011 253.769 134.353 255.289 134.772C256.048 134.993 256.797 135.245 257.544 135.487C257.852 135.623 258.152 135.774 258.444 135.941C258.808 136.143 259.189 136.313 259.583 136.449Z" fill="black"/>
<path d="M171.455 212.028C172.991 212.403 174.452 212.75 175.914 213.052C177.378 213.335 178.827 213.566 180.281 213.714C181.006 213.812 181.734 213.826 182.465 213.887C183.192 213.884 183.929 213.945 184.665 213.91C186.152 213.922 187.618 213.716 189.213 213.624C187.899 214.529 186.414 215.156 184.85 215.468C183.282 215.816 181.667 215.899 180.072 215.713C178.484 215.553 176.928 215.159 175.454 214.546C173.975 213.965 172.618 213.111 171.455 212.028Z" fill="black"/>
<path d="M208.76 214.843C210.296 215.218 211.757 215.565 213.218 215.868C214.682 216.15 216.132 216.382 217.585 216.529C218.311 216.628 219.039 216.642 219.769 216.702C220.497 216.7 221.234 216.761 221.969 216.725C223.456 216.737 224.922 216.531 226.517 216.439C225.203 217.344 223.719 217.972 222.154 218.284C220.587 218.632 218.972 218.714 217.377 218.529C215.788 218.368 214.232 217.975 212.758 217.361C211.279 216.78 209.923 215.926 208.76 214.843Z" fill="black"/>
<path d="M84.3183 234.241C85.2012 235.379 85.9002 236.65 86.39 238.005H85.9581C71.6582 237.996 57.3614 237.858 43.0674 237.591C28.7676 237.3 14.4678 236.947 0.168035 236.339C0.144667 236.338 0.121644 236.333 0.100383 236.323C0.0791227 236.313 0.0600628 236.3 0.0443812 236.282C0.0286995 236.265 0.0167317 236.245 0.00918971 236.222C0.00164773 236.2 -0.00130289 236.177 0.00052637 236.154C0.00345448 236.11 0.0220397 236.069 0.0528427 236.038C0.0836457 236.008 0.124578 235.989 0.168035 235.986C14.4678 235.36 28.7588 234.999 43.0586 234.699C56.8118 234.426 70.565 234.273 84.3183 234.241Z" fill="black"/>
<path d="M129.607 234.461C128.962 235.478 128.425 236.56 128.002 237.688C123.392 237.741 118.784 237.788 114.179 237.829C115.964 237.174 117.491 235.963 118.534 234.373C122.228 234.399 125.919 234.429 129.607 234.461Z" fill="black"/>
<path d="M343.495 235.819C343.496 235.841 343.492 235.863 343.484 235.884C343.476 235.904 343.464 235.923 343.448 235.939C343.432 235.954 343.413 235.967 343.393 235.975C343.372 235.983 343.35 235.987 343.328 235.986C329.037 236.621 314.737 237 300.437 237.22L289.717 237.361L283.977 237.405L278.988 237.441C275.417 237.467 271.838 237.494 268.267 237.476C264.688 237.485 261.111 237.464 257.538 237.414C250.582 237.317 243.626 237.159 236.67 237C229.335 236.832 221.991 236.674 214.647 236.577C200.347 236.427 186.048 236.559 171.748 236.894C165.338 237.062 158.929 237.203 152.52 237.317C150.642 236.497 148.517 235.58 146.401 234.664C154.847 234.778 163.296 234.937 171.748 235.14C186.048 235.448 200.347 235.522 214.647 235.36C228.938 235.14 243.238 234.655 257.538 234.417C261.108 234.364 264.682 234.334 268.258 234.328C271.838 234.302 275.408 234.32 278.988 234.337L289.708 234.39L300.437 234.514C314.728 234.699 329.028 235.034 343.328 235.633C343.351 235.635 343.374 235.64 343.395 235.65C343.416 235.66 343.434 235.674 343.45 235.691C343.466 235.709 343.478 235.729 343.485 235.75C343.493 235.772 343.497 235.795 343.495 235.819Z" fill="black"/>
<path d="M244.459 236.262C238.654 237.088 232.823 237.75 226.993 238.349C221.16 238.919 215.323 239.459 209.485 239.97C203.647 240.492 197.802 240.914 191.96 241.372C186.116 241.806 180.276 242.283 174.426 242.651L174.418 242.651C174.368 242.654 174.317 242.653 174.266 242.647L158.555 240.802L158.543 240.801C158.465 240.792 158.39 240.771 158.319 240.739C152.107 237.934 145.901 235.115 139.665 232.375C138.109 231.699 136.537 230.999 134.984 230.389C134.497 230.075 133.745 230.597 133.108 231.053C132.458 231.56 131.863 232.133 131.331 232.762C129.152 235.316 127.778 238.459 127.384 241.794C127.378 241.849 127.359 241.902 127.33 241.948C126.606 243.052 125.897 244.164 125.234 245.3C124.557 246.418 123.973 247.589 123.487 248.803C123.217 249.364 123.067 249.976 123.047 250.599C123.027 251.222 123.138 251.842 123.372 252.419C124.072 253.548 124.712 254.713 125.289 255.909C125.315 255.977 125.319 256.051 125.302 256.122L125.3 256.126C125.106 256.92 125.023 257.738 125.056 258.555C125.076 259.359 125.268 260.149 125.619 260.871C125.969 261.577 126.54 262.148 127.244 262.499C127.594 262.688 127.965 262.834 128.349 262.933C128.735 263.037 129.147 263.071 129.544 263.141L129.469 263.142C130.585 262.979 131.686 262.73 132.763 262.395C133.84 262.07 134.885 261.647 135.885 261.132C136.38 260.88 136.858 260.593 137.315 260.275C137.775 259.967 138.167 259.58 138.598 259.24C139.398 258.513 140.025 257.617 140.433 256.616C140.474 256.514 140.544 256.428 140.636 256.368C140.727 256.308 140.835 256.278 140.944 256.282C141.053 256.285 141.158 256.323 141.246 256.388C141.333 256.454 141.398 256.545 141.432 256.649L141.445 256.689C142.372 259.583 144.405 261.993 147.1 263.395C149.878 264.637 152.977 264.97 155.955 264.346C158.936 263.728 162.043 262.801 165.067 261.959C168.082 261.078 171.187 260.208 174.007 259.103L174.026 259.095C174.168 259.04 174.32 259.02 174.471 259.036C185.385 260.208 196.331 261.192 207.275 262.088C218.216 263.021 229.171 263.801 240.131 264.284C245.609 264.548 251.091 264.733 256.566 264.726C259.303 264.72 262.038 264.665 264.763 264.516C267.473 264.397 270.173 264.1 272.845 263.625C274.133 263.412 275.382 263.004 276.547 262.415C276.802 262.273 277.04 262.102 277.257 261.908L277.917 261.168C278.367 260.679 278.776 260.155 279.14 259.6C280.631 257.352 281.732 254.87 282.397 252.256C283.745 246.949 284.201 241.455 283.746 235.998C283.743 235.971 283.75 235.945 283.767 235.924C283.783 235.903 283.808 235.89 283.834 235.887C283.86 235.885 283.886 235.893 283.907 235.909C283.927 235.925 283.941 235.948 283.945 235.974C284.276 238.714 284.388 241.477 284.28 244.235C284.196 247.007 283.85 249.765 283.247 252.473C282.641 255.218 281.567 257.839 280.074 260.222C279.7 260.826 279.278 261.399 278.813 261.936L278.122 262.753C277.839 263.029 277.525 263.272 277.186 263.476C275.919 264.174 274.551 264.671 273.131 264.949C270.407 265.525 267.643 265.9 264.863 266.07C262.102 266.269 259.342 266.372 256.584 266.426C251.066 266.529 245.556 266.438 240.051 266.269C229.044 265.864 218.064 265.095 207.097 264.209C196.134 263.262 185.189 262.146 174.262 260.861L174.726 260.794C173.167 261.415 171.655 261.862 170.119 262.316C168.588 262.762 167.055 263.183 165.52 263.595L160.909 264.796C159.388 265.199 157.805 265.547 156.2 265.862C152.91 266.475 149.51 266.017 146.499 264.556C145.033 263.751 143.741 262.665 142.696 261.359C141.651 260.054 140.874 258.555 140.409 256.948L141.42 257.022C140.932 258.151 140.198 259.156 139.272 259.965C138.796 260.331 138.349 260.743 137.846 261.065C137.351 261.394 136.833 261.688 136.297 261.947C135.238 262.462 134.135 262.881 133 263.197C131.87 263.52 130.717 263.754 129.551 263.896L129.528 263.899C129.51 263.901 129.493 263.9 129.475 263.897C129.036 263.811 128.59 263.773 128.156 263.652C127.716 263.534 127.292 263.363 126.893 263.143C126.065 262.716 125.396 262.034 124.985 261.197C124.593 260.38 124.382 259.488 124.365 258.582C124.336 257.693 124.434 256.804 124.656 255.942L124.667 256.158C124.425 255.561 124.135 254.985 123.799 254.436C123.431 253.871 123.095 253.286 122.791 252.683C122.49 252.031 122.364 251.312 122.424 250.596C122.495 249.908 122.662 249.234 122.919 248.592C123.408 247.342 123.995 246.134 124.676 244.978C125.335 243.82 126.037 242.691 126.752 241.573L126.699 241.727C127.071 238.239 128.469 234.94 130.717 232.247C131.27 231.56 131.891 230.931 132.571 230.369C132.927 230.075 133.313 229.822 133.724 229.613C133.958 229.496 134.21 229.416 134.469 229.377C134.631 229.354 134.795 229.36 134.954 229.394C135.078 229.429 135.201 229.467 135.299 229.503C136.936 230.093 138.498 230.739 140.086 231.377C146.408 233.944 152.687 236.602 158.975 239.238L158.739 239.175L174.466 240.874L174.307 240.87L209.378 238.554C215.224 238.188 221.069 237.799 226.912 237.388L235.678 236.784L244.433 236.063C244.459 236.06 244.486 236.067 244.507 236.083C244.528 236.1 244.542 236.124 244.545 236.151C244.547 236.176 244.539 236.202 244.524 236.223C244.508 236.243 244.485 236.257 244.459 236.262Z" fill="black"/>
<path d="M134.035 254.656C134.603 254.063 135.259 253.562 135.981 253.17C136.719 252.73 137.594 252.576 138.438 252.739C139.285 253.004 139.994 253.592 140.411 254.375C140.61 254.75 140.789 255.139 140.952 255.531L141.329 256.737C141.345 256.788 141.35 256.843 141.346 256.896C141.341 256.95 141.325 257.002 141.3 257.05C141.275 257.098 141.241 257.14 141.199 257.175C141.158 257.21 141.11 257.236 141.059 257.252C141.007 257.268 140.953 257.274 140.899 257.269C140.845 257.264 140.793 257.248 140.745 257.223C140.698 257.198 140.655 257.164 140.621 257.123C140.586 257.081 140.56 257.033 140.544 256.982C140.541 256.971 140.538 256.96 140.535 256.949L140.526 256.906L140.27 255.756C140.152 255.388 140.019 255.022 139.87 254.667C139.575 253.973 139.02 253.422 138.324 253.133C137.57 252.929 136.768 253.008 136.069 253.355C135.328 253.682 134.642 254.12 134.035 254.656Z" fill="black"/>
<path d="M124.649 255.788C125.931 254.165 127.124 252.474 128.222 250.722C128.772 249.846 129.275 248.941 129.727 248.01C130.21 247.091 130.535 246.097 130.688 245.071C130.601 246.114 130.34 247.135 129.915 248.092C129.521 249.06 129.074 250.007 128.577 250.926C127.585 252.769 126.493 254.556 125.306 256.28C125.244 256.37 125.15 256.432 125.043 256.452C124.936 256.472 124.825 256.448 124.735 256.387C124.645 256.325 124.584 256.23 124.564 256.123C124.544 256.016 124.567 255.906 124.629 255.816L124.644 255.795L124.649 255.788Z" fill="black"/>
<path d="M122.863 252.624L130.688 239.486L123.578 253.024C123.553 253.072 123.519 253.114 123.478 253.149C123.436 253.183 123.389 253.209 123.337 253.225C123.286 253.241 123.231 253.247 123.178 253.242C123.124 253.237 123.072 253.222 123.024 253.197C122.977 253.172 122.934 253.138 122.9 253.096C122.865 253.055 122.839 253.007 122.823 252.956C122.807 252.904 122.801 252.85 122.806 252.796C122.811 252.743 122.827 252.691 122.852 252.643L122.863 252.624Z" fill="black"/>
<path d="M126.694 241.533L131.869 234.374L127.381 241.982C127.325 242.076 127.235 242.144 127.129 242.171C127.024 242.199 126.912 242.183 126.818 242.127C126.724 242.072 126.656 241.982 126.629 241.876C126.602 241.771 126.618 241.659 126.673 241.565C126.68 241.554 126.687 241.543 126.694 241.533Z" fill="black"/>
<path d="M107.929 199.419C107.438 199.197 106.9 199.098 106.362 199.129C105.822 199.13 105.284 199.172 104.751 199.253C103.716 199.45 102.752 199.916 101.953 200.602C101.185 201.304 100.578 202.164 100.173 203.122C99.7575 204.078 99.4983 205.094 99.4052 206.132C99.3925 206.279 99.3281 206.417 99.2235 206.521C99.1189 206.624 98.9808 206.687 98.8339 206.699C98.6871 206.71 98.5409 206.669 98.4214 206.583C98.302 206.497 98.217 206.371 98.1817 206.228L98.177 206.208C97.7398 204.345 97.0722 202.544 96.1897 200.846C95.3695 199.202 94.123 197.807 92.5802 196.809C92.2135 196.583 91.8224 196.4 91.4145 196.263C91.2311 196.197 91.0416 196.15 90.8488 196.123L90.1515 196.034C89.2686 195.916 88.3714 195.959 87.5041 196.163C86.6837 196.344 85.918 196.717 85.2696 197.252C84.6213 197.786 84.1087 198.466 83.774 199.237L83.7391 199.317C83.6475 199.528 83.4761 199.694 83.2623 199.778C83.0486 199.862 82.8102 199.858 82.5994 199.767C82.539 199.74 82.4816 199.707 82.4284 199.668C81.973 199.324 81.4222 199.13 80.8519 199.113C80.2233 199.113 79.6008 199.236 79.0203 199.477C77.7732 199.914 76.7362 200.805 76.1154 201.972L76.0792 202.041L76.0139 202.188L75.9199 202.415C75.8648 202.563 75.8177 202.714 75.7787 202.867C75.7022 203.161 75.6689 203.465 75.6797 203.769C75.7135 204.378 75.9521 204.959 76.357 205.415C77.3104 206.393 78.5221 207.08 79.8509 207.395L79.886 207.405C79.9722 207.429 80.0472 207.482 80.098 207.555C80.6567 208.392 81.1455 209.274 81.5597 210.191C81.7737 210.636 81.978 211.075 82.2202 211.485C82.4693 211.919 82.7184 212.351 82.9346 212.81C83.1744 213.277 83.3492 213.774 83.4543 214.288C83.5115 214.452 83.5214 214.629 83.4828 214.799C83.4442 214.969 83.3588 215.124 83.2362 215.248C83.1136 215.371 82.9588 215.458 82.7894 215.498C82.6199 215.538 82.4427 215.529 82.2779 215.473C81.2795 215.231 80.3275 214.828 79.4596 214.278C78.5922 213.778 77.7647 213.247 76.9354 212.679C76.1191 212.078 75.3675 211.394 74.6926 210.638C74.3522 210.275 74.0229 209.864 73.7162 209.57C73.394 209.268 73.0205 209.027 72.6133 208.856C71.781 208.529 70.8701 208.456 69.9966 208.648C69.1352 208.816 68.3384 209.223 67.6976 209.823C67.4207 210.106 67.2166 210.451 67.1028 210.831C66.9889 211.21 66.9688 211.611 67.0441 212C67.2087 212.873 67.5396 213.708 68.0188 214.457C68.5031 215.258 69.0615 216.012 69.6865 216.709C69.9981 217.061 70.3248 217.402 70.6582 217.717L71.753 218.673C72.5041 219.338 73.2336 220.018 73.9416 220.713C75.3639 222.103 76.7454 223.513 78.1154 224.955C78.2421 225.088 78.3262 225.256 78.3566 225.437L78.369 225.51C78.487 226.095 78.6812 226.663 78.9467 227.197C79.2242 227.764 79.5633 228.298 79.9578 228.791C80.3524 229.29 80.7984 229.746 81.2884 230.152C81.781 230.587 82.2779 230.866 82.9476 231.365C84.1622 232.311 85.1977 233.467 86.0048 234.778C86.8196 236.078 87.4299 237.495 87.8145 238.98L87.7559 238.797C88.2182 239.997 89.0598 241.014 90.1528 241.693C91.3228 242.324 92.6355 242.643 93.9645 242.62C95.3856 242.613 96.7998 242.422 98.1716 242.05C99.5708 241.688 100.935 241.201 102.247 240.595L102.298 240.572C102.319 240.562 102.34 240.554 102.362 240.547C104.068 240.014 105.77 239.492 107.491 239.018C109.213 238.54 110.926 238.062 112.695 237.671C114.388 237.417 115.963 236.649 117.207 235.472C118.467 234.26 119.39 232.739 119.882 231.06C119.89 231.035 119.907 231.013 119.931 231.001C119.954 230.988 119.982 230.985 120.007 230.993C120.031 231 120.051 231.016 120.064 231.037C120.077 231.059 120.082 231.084 120.077 231.108C119.742 232.91 118.918 234.585 117.693 235.949C117.07 236.641 116.346 237.235 115.545 237.711C115.14 237.95 114.713 238.152 114.271 238.313C113.81 238.464 113.343 238.61 112.946 238.705C111.265 239.184 109.58 239.764 107.905 240.34L102.879 242.093L102.994 242.044C101.603 242.754 100.15 243.335 98.6534 243.781C97.1364 244.251 95.5647 244.52 93.978 244.583C92.2879 244.662 90.6081 244.281 89.1175 243.48C88.3605 243.041 87.6837 242.477 87.1158 241.811C86.5734 241.148 86.1248 240.414 85.7825 239.629L85.7623 239.576L85.7238 239.445C85.3776 238.203 84.86 237.016 84.1859 235.918C83.5138 234.822 82.6551 233.852 81.6486 233.053C81.2007 232.695 80.4819 232.245 79.9276 231.732C79.3427 231.226 78.8122 230.66 78.3447 230.043C77.8707 229.424 77.4664 228.756 77.1389 228.049C76.7903 227.313 76.5502 226.531 76.4262 225.727L76.6796 226.281C75.3649 224.839 74.0171 223.405 72.6486 222.012C71.9609 221.318 71.275 220.624 70.5749 219.957C70.2219 219.611 69.8853 219.33 69.4799 218.928C69.1098 218.552 68.769 218.168 68.4413 217.77C67.7783 216.974 67.1916 216.118 66.6889 215.212C66.143 214.271 65.7965 213.228 65.671 212.148C65.6129 211.561 65.6811 210.969 65.871 210.41C66.0723 209.847 66.4105 209.342 66.8552 208.942C67.6963 208.224 68.7237 207.759 69.8182 207.6C70.8938 207.421 71.9985 207.565 72.9916 208.016C73.4848 208.25 73.9321 208.571 74.3126 208.963C74.6967 209.373 74.961 209.751 75.2784 210.122C75.8891 210.861 76.5851 211.526 77.3519 212.102C78.138 212.662 78.9606 213.211 79.7923 213.709C80.5829 214.229 81.4503 214.621 82.3626 214.872C83.2744 215.149 82.7391 213.876 82.3618 213.088C82.1528 212.658 81.9049 212.239 81.6581 211.821C81.3951 211.385 81.1593 210.942 80.9324 210.505C80.5056 209.639 80.0065 208.811 79.4403 208.029L79.6872 208.189C78.9348 208.037 78.2031 207.797 77.5074 207.473C76.7832 207.149 76.1246 206.695 75.5646 206.134C74.962 205.52 74.5819 204.722 74.4848 203.868C74.4422 203.444 74.4623 203.017 74.5445 202.599C74.5837 202.396 74.6339 202.196 74.6949 201.998L74.7931 201.714L74.8463 201.568L74.9426 201.359L74.9065 201.429C75.2382 200.655 75.7275 199.959 76.3432 199.386C76.9492 198.825 77.6417 198.367 78.394 198.027C79.1673 197.649 80.0141 197.445 80.8746 197.43C81.7993 197.43 82.7014 197.716 83.4574 198.249L82.1121 198.679C82.312 198.129 82.591 197.611 82.9403 197.142C83.2707 196.682 83.6562 196.266 84.0881 195.9C84.9555 195.17 85.9855 194.658 87.0916 194.409C88.1556 194.173 89.2534 194.132 90.3322 194.285L91.1037 194.394C91.3996 194.44 91.6904 194.515 91.9718 194.618C92.4984 194.803 93.0025 195.047 93.4743 195.346C95.2483 196.538 96.6607 198.194 97.5569 200.134C98.4314 201.982 99.0495 203.94 99.3942 205.955L98.1661 206.031C98.3295 204.861 98.6834 203.726 99.2139 202.671C99.7257 201.601 100.487 200.669 101.433 199.954C102.386 199.264 103.504 198.837 104.674 198.714C105.243 198.672 105.815 198.68 106.383 198.739C106.958 198.775 107.518 198.946 108.015 199.238C108.038 199.25 108.054 199.271 108.062 199.295C108.07 199.319 108.068 199.346 108.057 199.369C108.046 199.392 108.027 199.41 108.003 199.42C107.979 199.429 107.953 199.429 107.929 199.42L107.929 199.419Z" fill="black"/>
<path d="M110.541 208.787C110.936 209.694 111.159 210.667 111.198 211.656C111.226 212.141 111.224 212.628 111.195 213.114C111.153 213.601 111.1 214.089 111.016 214.571L111.008 214.616C110.997 214.678 110.975 214.737 110.944 214.791C110.724 215.183 110.472 215.556 110.19 215.905C109.89 216.252 109.559 216.571 109.2 216.857C108.513 217.46 107.709 217.915 106.838 218.193C105.909 218.426 104.929 218.343 104.053 217.956C103.591 217.759 103.169 217.477 102.81 217.126C102.712 217.024 102.62 216.916 102.534 216.803C102.439 216.658 102.358 216.503 102.292 216.342L102.079 215.729L101.684 214.551C101.565 214.229 101.416 213.919 101.239 213.624C101.064 213.327 100.873 213.041 100.664 212.767C100.576 212.66 100.418 212.441 100.289 212.246C100.157 212.048 100.021 211.854 99.8974 211.653C99.4425 210.868 99.1193 210.015 98.9405 209.126C98.7487 208.268 98.6872 207.386 98.7579 206.509C98.7604 206.481 98.7739 206.456 98.7954 206.438C98.8169 206.42 98.8446 206.411 98.8725 206.413C98.8892 206.415 98.9053 206.421 98.9195 206.43C98.9337 206.439 98.9456 206.451 98.9542 206.465C99.7034 207.891 100.569 209.253 101.541 210.537C101.669 210.668 101.784 210.806 101.904 210.94C102.027 211.077 102.113 211.197 102.304 211.399C102.63 211.765 102.907 212.172 103.129 212.609C103.347 213.05 103.514 213.514 103.625 213.993C103.685 214.249 103.714 214.455 103.75 214.643L103.858 215.235L103.958 215.832C103.979 215.899 103.957 215.874 103.978 215.936C104.011 215.994 104.024 216.057 104.063 216.123C104.234 216.421 104.446 216.693 104.693 216.931C104.948 217.195 105.263 217.392 105.611 217.506C105.96 217.621 106.33 217.648 106.692 217.586C107.065 217.494 107.413 217.317 107.708 217.07C108.004 216.824 108.239 216.513 108.397 216.162C108.579 215.818 108.74 215.463 108.882 215.1C109.005 214.73 109.151 214.369 109.32 214.018L109.248 214.238C109.352 213.346 109.577 212.471 109.729 211.563C109.911 210.66 110.091 209.763 110.34 208.807C110.344 208.793 110.35 208.781 110.358 208.769C110.366 208.758 110.377 208.749 110.389 208.741C110.401 208.734 110.414 208.729 110.428 208.727C110.442 208.725 110.456 208.726 110.469 208.729C110.485 208.733 110.499 208.74 110.511 208.75C110.524 208.76 110.534 208.773 110.541 208.787Z" fill="black"/>
<path d="M77.3964 225.62C77.234 225.071 77.1625 224.499 77.1846 223.927C77.1969 223.351 77.2889 222.779 77.4578 222.228C77.6242 221.653 77.9196 221.124 78.3213 220.68C78.5177 220.452 78.7604 220.268 79.0334 220.141C79.3063 220.014 79.6032 219.947 79.9043 219.944C79.4589 220.225 79.0886 220.611 78.8251 221.067C78.5706 221.51 78.3718 221.982 78.2331 222.474C77.9106 223.468 77.7159 224.522 77.3964 225.62Z" fill="black"/>
<path d="M79.772 207.794C80.4633 207.623 81.0276 207.506 81.6271 207.388C81.9247 207.332 82.2226 207.274 82.5345 207.228C82.8645 207.17 83.1988 207.141 83.5338 207.141C83.0981 207.693 82.4745 208.065 81.7819 208.187C81.4388 208.25 81.0876 208.257 80.7425 208.205C80.3867 208.162 80.0504 208.02 79.772 207.794Z" fill="black"/>
<path d="M83.4421 198.953C83.4302 199.826 83.5451 200.697 83.7831 201.537C83.9936 202.376 84.441 203.137 85.0721 203.728C85.4057 204.01 85.7934 204.22 86.2113 204.346C86.6291 204.473 87.0684 204.512 87.502 204.463C87.9532 204.426 88.4005 204.352 88.8395 204.242L90.1329 203.775L88.8791 204.361C88.439 204.516 87.9867 204.633 87.5271 204.713C87.0508 204.807 86.5602 204.804 86.0852 204.703C85.6102 204.602 85.1606 204.405 84.7638 204.126C83.9857 203.524 83.3977 202.71 83.0701 201.783C82.7212 200.878 82.5077 199.928 82.4366 198.961C82.4262 198.828 82.4692 198.696 82.5561 198.594C82.643 198.493 82.7666 198.43 82.8998 198.42C83.033 198.409 83.1649 198.452 83.2663 198.539C83.3678 198.626 83.4306 198.75 83.441 198.883C83.4422 198.898 83.4426 198.914 83.4424 198.929L83.4421 198.953Z" fill="black"/>
<path d="M87.4937 204.634C88.1934 205.695 88.8113 206.809 89.3422 207.964C89.9302 209.13 90.3342 210.38 90.5397 211.67C90.5969 211.909 90.7113 212.132 90.8732 212.318C91.0351 212.504 91.2396 212.649 91.4694 212.739C91.9945 213.004 92.5592 213.183 93.1415 213.269C93.7365 213.371 94.3437 213.377 94.9407 213.289C95.5558 213.237 96.127 212.949 96.5352 212.486C96.3815 212.778 96.1689 213.034 95.9107 213.239C95.6525 213.444 95.3544 213.593 95.0355 213.677C94.402 213.875 93.7366 213.951 93.0747 213.901C92.3996 213.866 91.7371 213.705 91.1212 213.426C90.7626 213.285 90.4461 213.055 90.2022 212.757C89.9583 212.459 89.7951 212.103 89.7283 211.724C89.6623 211.129 89.5324 210.543 89.341 209.976C89.1678 209.383 88.958 208.795 88.756 208.202L87.4937 204.634Z" fill="black"/>
<path d="M100.602 210.939C99.9054 210.807 99.2177 210.666 98.5212 210.525L78.0854 206.346L76.1194 205.94L67.8675 204.239C64.5879 202.934 61.3083 201.638 58.0815 200.104C61.6609 199.998 65.1785 200.131 68.705 200.263C70.9619 200.765 73.2365 201.233 75.5111 201.7C76.6395 201.938 77.768 202.167 78.8965 202.405L98.8563 206.487C99.1881 208.057 99.778 209.562 100.602 210.939Z" fill="black"/>
<path d="M98.7769 206.082C99.3163 207.665 100.072 209.165 101.023 210.541L101.791 211.432C102.121 211.766 102.42 212.131 102.683 212.52C102.947 212.921 103.163 213.353 103.326 213.805C103.497 214.288 103.591 214.683 103.714 215.068C103.841 215.446 103.935 215.948 104.035 215.997C104.229 216.25 104.465 216.468 104.733 216.641C105.246 216.996 105.873 217.146 106.491 217.063C107.144 216.899 107.726 216.53 108.152 216.009C108.414 215.732 108.653 215.434 108.867 215.118L109.49 214.099L109.433 214.272C109.673 213.123 109.923 211.948 110.051 210.754C110.126 210.159 110.18 209.562 110.197 208.959C110.231 208.352 110.209 207.743 110.132 207.14C110.63 208.29 110.908 209.524 110.952 210.777C110.987 211.402 110.994 212.027 110.982 212.652C110.951 213.278 110.881 213.905 110.831 214.536C110.828 214.571 110.819 214.606 110.805 214.639L110.774 214.71C110.424 215.565 109.953 216.366 109.377 217.087C108.753 217.925 107.854 218.517 106.837 218.758C106.304 218.862 105.755 218.855 105.225 218.738C104.695 218.62 104.195 218.395 103.755 218.076C103.315 217.775 102.933 217.397 102.627 216.96C102.529 216.825 102.448 216.678 102.386 216.523C102.332 216.401 102.292 216.272 102.266 216.14L102.12 215.496C102.017 215.061 101.938 214.622 101.846 214.295C101.741 213.939 101.601 213.593 101.43 213.263C101.256 212.923 101.049 212.6 100.814 212.298C100.557 211.912 100.281 211.539 100.061 211.142C99.2653 209.57 98.827 207.842 98.7769 206.082Z" fill="black"/>
<path d="M235.328 106.064C235.334 106.505 235.45 106.938 235.666 107.323C235.882 107.707 236.19 108.032 236.564 108.267C237.309 108.738 238.133 109.071 238.996 109.252L241.596 109.859L242.902 110.195C243.12 110.254 243.339 110.312 243.555 110.381L244.168 110.538C244.979 110.773 245.821 110.883 246.665 110.865C247.523 110.842 248.359 110.583 249.08 110.115C249.799 109.627 250.363 108.941 250.702 108.141C250.866 107.746 250.971 107.33 251.014 106.904C251.066 106.511 251.041 106.111 250.941 105.727C250.826 105.421 250.616 105.16 250.341 104.984C250.009 104.784 249.656 104.621 249.288 104.498C248.498 104.218 247.613 103.975 246.72 103.678C245.793 103.385 244.892 103.013 244.03 102.565C243.583 102.33 243.156 102.061 242.75 101.761C242.404 101.556 242.087 101.302 241.749 101.145C241.128 100.775 240.406 100.612 239.687 100.679C238.968 100.747 238.289 101.042 237.748 101.521C237.049 102.067 236.473 102.753 236.056 103.536C235.639 104.318 235.391 105.18 235.328 106.064ZM235.123 106.064C235.154 105.124 235.301 104.192 235.56 103.289C235.8 102.332 236.205 101.424 236.759 100.607C237.374 99.6722 238.318 99.003 239.404 98.7328C240.53 98.4926 241.705 98.654 242.724 99.1891C243.188 99.4327 243.634 99.7089 244.059 100.016C244.395 100.252 244.73 100.487 245.088 100.706C245.83 101.148 246.602 101.536 247.4 101.867C248.221 102.221 249.089 102.53 249.972 103.004C250.448 103.247 250.883 103.561 251.264 103.935C251.687 104.363 251.959 104.916 252.04 105.512C252.038 109.8 247.909 112.7 243.878 112.217C242.935 112.104 242.006 111.9 241.104 111.605C240.196 111.316 239.32 110.931 238.494 110.455C237.648 109.973 236.879 109.367 236.212 108.657C235.54 107.958 235.151 107.034 235.123 106.064Z" fill="black"/>
<path d="M248.203 77.1131C248.218 77.8753 248.41 78.6234 248.765 79.298C249.135 79.9593 249.64 80.5345 250.249 80.9856C251.484 81.8668 252.862 82.5276 254.322 82.9389C255.768 83.41 257.255 83.762 258.734 84.1641L260.966 84.7434C261.34 84.8373 261.714 84.9296 262.085 85.0381L263.169 85.2852C264.606 85.6432 266.093 85.7621 267.569 85.637C269.061 85.5125 270.496 85.0059 271.736 84.1661C272.973 83.2986 273.951 82.1125 274.568 80.7337C274.699 80.3829 274.843 80.0363 274.949 79.6796C275.046 79.3209 275.119 78.956 275.167 78.5874C275.28 77.8819 275.269 77.1619 275.134 76.4603C274.948 75.8413 274.569 75.2982 274.051 74.9113C273.471 74.5089 272.842 74.1807 272.18 73.9342C270.807 73.393 269.311 72.9579 267.823 72.4287C266.298 71.9126 264.816 71.2759 263.392 70.5247C262.667 70.133 261.971 69.6913 261.308 69.2029C260.736 68.7779 260.132 68.3991 259.5 68.0699C258.335 67.4035 256.989 67.1214 255.654 67.2637C254.293 67.5004 253.031 68.1342 252.028 69.0854C250.919 70.1064 250.014 71.3289 249.362 72.6876C248.666 74.0638 248.271 75.5724 248.203 77.1131ZM247.999 77.1131C248.046 75.5345 248.331 73.972 248.844 72.4782C249.321 70.9272 250.063 69.4705 251.037 68.1728C252.075 66.7474 253.586 65.7379 255.3 65.3251C257.066 65.0011 258.89 65.2805 260.478 66.1185C261.231 66.4985 261.947 66.9469 262.618 67.4579C263.215 67.877 263.812 68.2962 264.448 68.6717C265.745 69.4297 267.1 70.0834 268.501 70.6266C269.92 71.203 271.398 71.7047 272.863 72.4404C273.633 72.8072 274.344 73.2862 274.973 73.8617C275.638 74.4994 276.08 75.3347 276.233 76.2435C276.334 77.9046 275.975 79.5613 275.196 81.0315C274.46 82.4682 273.412 83.7221 272.128 84.7014C270.814 85.674 269.319 86.3749 267.731 86.7634C266.143 87.1518 264.493 87.2199 262.879 86.9638L261.671 86.7714C261.286 86.6952 260.906 86.6028 260.524 86.5118C259.762 86.3246 258.998 86.1404 258.246 85.8964C256.72 85.448 255.239 84.8608 253.82 84.1421C252.377 83.4289 251.053 82.4954 249.897 81.3754C249.314 80.8262 248.846 80.1666 248.52 79.4349C248.194 78.7032 248.017 77.9139 247.999 77.1131H247.999Z" fill="black"/>
<path d="M254.503 38.1411C254.07 39.225 253.861 40.3851 253.887 41.5519C253.94 42.7174 254.316 43.8452 254.975 44.8084C256.363 46.6942 258.186 48.218 260.287 49.2507C264.492 51.352 268.879 53.0665 273.395 54.373C277.888 55.7887 282.421 57.1302 286.892 58.7039C289.134 59.4712 291.356 60.305 293.559 61.2052C295.746 62.0693 297.897 62.9557 300.126 63.6513C304.517 65.2057 309.122 66.0677 313.777 66.2065C316.093 66.2451 318.401 65.9359 320.624 65.2893C322.848 64.6352 324.897 63.4927 326.622 61.9453C328.334 60.3713 329.699 58.4593 330.633 56.3303C331.558 54.1875 332.179 51.9263 332.48 49.6119C332.797 47.2937 332.901 44.9513 332.791 42.6141C332.729 41.4445 332.661 40.2767 332.525 39.1124C332.424 37.9586 332.242 36.8133 331.979 35.6853C330.766 31.192 328.841 26.922 326.277 23.0373C323.768 19.1242 320.775 15.5433 317.369 12.3795C313.999 9.22274 310.12 6.6567 305.897 4.78923C303.8 3.88162 301.617 3.18921 299.38 2.72262C297.146 2.27318 294.864 2.10091 292.587 2.2097C288.003 2.2649 283.489 3.34927 279.38 5.38275C275.273 7.50285 271.599 10.3721 268.547 13.8425C265.451 17.3664 262.757 21.2239 260.514 25.3436C258.248 29.4813 256.241 33.7553 254.503 38.1411ZM254.313 38.0648C256.059 33.6757 257.917 29.328 260.011 25.0788C262.073 20.7847 264.591 16.7249 267.522 12.9696C270.491 9.13408 274.222 5.95411 278.48 3.62941C282.819 1.36335 287.624 0.130755 292.519 0.0278255C297.42 -0.180394 302.3 0.782347 306.755 2.83626C311.16 4.85841 315.192 7.60899 318.682 10.9723C322.162 14.2897 325.181 18.0596 327.657 22.1808C330.194 26.2676 332.025 30.7522 333.074 35.4467C333.834 40.1707 333.874 44.9828 333.192 49.7187C332.493 54.404 330.639 59.1276 327.07 62.4351C325.296 64.0835 323.187 65.3297 320.886 66.0886C318.599 66.8602 316.209 67.2839 313.796 67.3457C308.991 67.4116 304.206 66.7136 299.62 65.2777C297.326 64.6095 295.075 63.7732 292.876 62.8949C290.702 62.0202 288.497 61.2117 286.289 60.3998C281.863 58.8075 277.403 57.2613 272.974 55.5866C270.759 54.7501 268.551 53.8842 266.374 52.9389C264.181 52.0166 262.057 50.9384 260.018 49.7128C259.001 49.0895 258.028 48.3967 257.107 47.6393C256.187 46.8699 255.388 45.9659 254.738 44.9579C254.078 43.9442 253.703 42.7718 253.652 41.5634C253.634 40.3646 253.859 39.1745 254.313 38.0648Z" fill="black"/>
<path d="M287.993 36.8717H288.344C286.68 38.387 285.339 40.2218 284.4 42.2666C283.461 44.3114 282.944 46.5243 282.878 48.7735C282.862 49.9882 282.979 51.201 283.229 52.3899C283.252 52.5059 283.298 52.6163 283.364 52.7145C283.43 52.8128 283.515 52.897 283.614 52.9622C283.712 53.0275 283.823 53.0725 283.939 53.0948C284.055 53.117 284.175 53.1159 284.291 53.0916C287.107 52.5295 289.727 51.2414 291.892 49.355C294.057 47.4686 295.691 45.0493 296.633 42.3368C297.732 44.9864 299.508 47.301 301.782 49.0494C304.056 50.7978 306.749 51.9186 309.592 52.2999C309.841 52.3261 310.091 52.264 310.298 52.1245C310.464 51.9511 310.585 51.7394 310.649 51.5083C311.028 48.6704 310.667 45.7829 309.602 43.1255C308.536 40.4681 306.802 38.1311 304.568 36.3409C307.417 36.1504 310.169 35.232 312.562 33.6734C314.955 32.1148 316.907 29.9683 318.233 27.4393C318.286 27.3408 318.318 27.2328 318.329 27.1216C318.339 27.0105 318.328 26.8983 318.295 26.7916C318.262 26.6849 318.208 26.5859 318.136 26.5002C318.065 26.4145 317.977 26.3438 317.878 26.2923C315.33 24.9892 312.488 24.3693 309.63 24.4931C306.771 24.6168 303.993 25.4801 301.568 26.9985C302.329 24.2356 302.364 21.323 301.669 18.5428C300.974 15.7625 299.572 13.209 297.6 11.1294C297.521 11.0455 297.426 10.9788 297.32 10.9331C297.214 10.8875 297.1 10.864 296.984 10.864C296.869 10.864 296.755 10.8875 296.649 10.9331C296.543 10.9788 296.447 11.0455 296.368 11.1294C294.133 13.2425 292.542 15.9446 291.777 18.9236C291.012 21.9026 291.105 25.0372 292.045 27.9656C289.485 26.2635 286.484 25.3444 283.409 25.3207C280.339 25.2328 277.309 26.0291 274.678 27.6147C274.578 27.676 274.49 27.7572 274.422 27.8533C274.354 27.9495 274.306 28.0585 274.281 28.1739C274.256 28.2892 274.255 28.4084 274.278 28.5242C274.3 28.6399 274.346 28.7498 274.413 28.8472C275.761 31.2696 277.729 33.2897 280.115 34.6999C282.502 36.1102 285.221 36.8598 287.993 36.8717ZM296.453 27.7902C297.912 27.8129 299.303 28.4082 300.326 29.4475C301.349 30.4868 301.922 31.8868 301.922 33.3452C301.922 34.8036 301.349 36.2036 300.326 37.2429C299.303 38.2822 297.912 38.8775 296.453 38.9003C295.723 38.9031 295 38.7614 294.325 38.4832C293.65 38.205 293.037 37.7959 292.521 37.2794C292.005 36.7629 291.596 36.1494 291.318 35.4741C291.041 34.7989 290.899 34.0753 290.903 33.3452C290.911 31.8752 291.498 30.4677 292.537 29.4278C293.576 28.388 294.983 27.7996 296.453 27.7902Z" fill="#F9BC69"/>
<path d="M296.454 37.0472C297.459 37.0472 298.423 36.6479 299.133 35.9372C299.844 35.2265 300.243 34.2626 300.243 33.2576C300.243 32.2525 299.844 31.2886 299.133 30.5779C298.423 29.8672 297.459 29.4679 296.454 29.4679C295.955 29.4642 295.461 29.5596 295 29.7486C294.538 29.9376 294.119 30.2164 293.767 30.5688C293.415 30.9213 293.136 31.3403 292.947 31.8015C292.758 32.2627 292.662 32.7569 292.666 33.2554C292.687 34.2536 293.093 35.2053 293.798 35.9117C294.504 36.6182 295.455 37.025 296.454 37.0472Z" fill="black"/>
<path d="M320.443 161.409C321.815 163.661 323.454 165.738 325.325 167.596C323.43 167.661 321.548 167.253 319.85 166.409C318.624 165.777 317.588 164.829 316.851 163.663C316.131 162.481 315.734 161.132 315.698 159.748C315.664 157.855 316.106 155.984 316.986 154.308C317.841 156.808 319.002 159.194 320.443 161.409Z" fill="black"/>
<path d="M326.63 162.155C326.664 164.05 326.215 165.922 325.325 167.595C324.47 165.095 323.308 162.709 321.867 160.494C320.491 158.245 318.853 156.169 316.986 154.308C318.878 154.24 320.756 154.654 322.444 155.511C323.67 156.141 324.71 157.082 325.46 158.24C326.195 159.416 326.599 160.768 326.63 162.155Z" fill="black"/>
<path d="M315.918 177.578C317.291 179.834 318.936 181.912 320.817 183.765C318.921 183.832 317.039 183.424 315.342 182.578C314.111 181.946 313.07 180.998 312.325 179.832C311.606 178.65 311.209 177.3 311.173 175.917C311.138 174.024 311.581 172.153 312.461 170.477C313.323 172.974 314.484 175.359 315.918 177.578Z" fill="black"/>
<path d="M322.105 178.324C322.138 180.216 321.695 182.087 320.817 183.764C319.947 181.27 318.787 178.886 317.359 176.663C315.977 174.414 314.333 172.337 312.461 170.477C314.353 170.407 316.231 170.821 317.918 171.68C319.157 172.299 320.202 173.245 320.94 174.417C321.678 175.588 322.081 176.939 322.105 178.324H322.105Z" fill="#F9BC69"/>
<path d="M310.817 195.374C312.194 197.627 313.838 199.704 315.715 201.561C313.818 201.632 311.933 201.218 310.241 200.357C309.007 199.737 307.965 198.794 307.224 197.628C306.505 196.446 306.107 195.097 306.071 193.713C306.035 191.82 306.478 189.949 307.36 188.273C308.222 190.77 309.383 193.155 310.817 195.374Z" fill="black"/>
<path d="M317.003 196.103C317.038 198.001 316.595 199.878 315.715 201.561C314.847 199.062 313.681 196.678 312.241 194.459C310.865 192.21 309.226 190.134 307.359 188.273C309.251 188.203 311.13 188.617 312.817 189.476C314.044 190.106 315.084 191.047 315.834 192.205C316.566 193.376 316.97 194.722 317.003 196.103Z" fill="#F9BC69"/>
<path d="M308.326 214.322C309.703 216.58 311.348 218.663 313.224 220.526C311.327 220.597 309.442 220.183 307.75 219.323C306.52 218.694 305.483 217.745 304.749 216.575C304.015 215.406 303.611 214.059 303.58 212.678C303.552 210.786 303.995 208.917 304.868 207.238C305.738 209.727 306.899 212.105 308.326 214.322Z" fill="black"/>
<path d="M314.512 215.068C314.555 216.967 314.112 218.846 313.224 220.526C311.435 215.543 308.584 211.009 304.868 207.238C306.76 207.168 308.638 207.583 310.326 208.441C311.559 209.062 312.602 210.005 313.342 211.17C314.085 212.337 314.489 213.686 314.512 215.068Z" fill="black"/>
<path d="M307.581 225.904C309.474 225.839 311.352 226.252 313.043 227.105C314.273 227.734 315.315 228.678 316.061 229.841C316.794 231.012 317.197 232.359 317.229 233.74C317.265 235.637 316.818 237.512 315.931 239.189C314.035 239.261 312.152 238.85 310.459 237.995C309.228 237.367 308.189 236.42 307.452 235.251C306.728 234.074 306.329 232.726 306.296 231.345C306.261 229.452 306.703 227.581 307.581 225.904Z" fill="black"/>
<path d="M331.782 166.392C329.514 167.463 327.328 168.698 325.24 170.087C325.531 168.286 326.195 166.566 327.189 165.036C327.874 164.002 328.814 163.161 329.918 162.595C330.991 162.07 332.186 161.848 333.376 161.952C335.126 162.126 336.846 162.525 338.494 163.138L331.782 166.392Z" fill="black"/>
<path d="M337.545 168.765C336.833 170.022 335.763 171.038 334.471 171.684C333.179 172.33 331.724 172.576 330.291 172.392C328.419 172.13 326.664 171.33 325.24 170.087C326.519 169.972 327.781 169.716 329.003 169.324C330.215 168.938 331.398 168.467 332.545 167.918C333.694 167.351 334.789 166.682 335.816 165.917C336.87 165.16 337.777 164.219 338.494 163.138C338.899 165.066 338.56 167.076 337.545 168.765Z" fill="black"/>
<path d="M329.138 181.646C326.341 182.663 323.494 183.561 320.63 184.764C321.451 182.945 322.614 181.3 324.054 179.917C325.108 178.924 326.353 178.157 327.714 177.663C329.005 177.196 330.38 177.011 331.748 177.12C333.635 177.31 335.505 177.644 337.341 178.121C334.718 179.54 331.973 180.719 329.138 181.646Z" fill="black"/>
<path d="M335.426 184.222C334.317 185.574 332.865 186.603 331.222 187.202C329.58 187.802 327.806 187.949 326.087 187.629C324.023 187.24 322.122 186.243 320.63 184.764C322.175 184.825 323.722 184.706 325.24 184.408C326.756 184.145 328.247 183.753 329.697 183.239C331.167 182.735 332.577 182.07 333.9 181.256C335.253 180.462 336.425 179.394 337.341 178.121C337.46 179.215 337.351 180.322 337.022 181.372C336.692 182.422 336.149 183.392 335.426 184.222Z" fill="black"/>
<path d="M325.952 194.832C323.155 195.849 320.308 196.747 317.443 197.95C318.264 196.126 319.433 194.48 320.884 193.103C321.93 192.107 323.17 191.34 324.528 190.849C325.818 190.382 327.194 190.197 328.562 190.306C330.449 190.496 332.319 190.83 334.155 191.307C331.532 192.726 328.786 193.905 325.952 194.832Z" fill="black"/>
<path d="M332.239 197.408C331.13 198.76 329.679 199.789 328.036 200.388C326.394 200.987 324.62 201.135 322.901 200.814C320.837 200.426 318.936 199.429 317.443 197.95C318.989 198.011 320.536 197.891 322.054 197.594C323.57 197.33 325.061 196.939 326.511 196.425C327.981 195.92 329.39 195.255 330.714 194.442C332.067 193.647 333.238 192.579 334.155 191.307C334.274 192.401 334.165 193.507 333.835 194.557C333.506 195.607 332.962 196.578 332.239 197.408Z" fill="black"/>
<path d="M323.274 210.984C320.444 212.272 317.478 213.323 314.512 214.644C315.341 212.775 316.507 211.075 317.952 209.628C318.994 208.575 320.217 207.72 321.563 207.103C322.799 206.556 324.127 206.246 325.478 206.187C326.935 206.052 328.427 206.34 331.054 205.984C330.009 207.151 328.777 208.136 327.41 208.899C326.079 209.685 324.697 210.381 323.274 210.984Z" fill="black"/>
<path d="M331.545 207.831C331.565 208.433 331.525 209.034 331.426 209.628C331.188 210.723 330.745 211.764 330.121 212.695C329.028 214.333 327.486 215.621 325.681 216.407C324.005 217.149 322.164 217.435 320.342 217.238C318.18 216.988 316.145 216.083 314.512 214.644C316.14 214.644 317.762 214.445 319.342 214.051C320.93 213.692 322.479 213.181 323.969 212.526C325.49 211.877 326.911 211.016 328.189 209.967C329.523 208.958 330.521 207.569 331.054 205.984C331.181 206.281 331.289 206.587 331.376 206.899C331.45 207.206 331.507 207.518 331.545 207.831Z" fill="black"/>
<path d="M314.444 233.95C314.536 232.084 314.945 230.248 315.652 228.519C316.115 227.38 316.811 226.349 317.695 225.493C318.49 224.768 319.447 224.243 320.487 223.965C321.613 223.577 322.992 223.597 325.194 222.34C325.44 222.522 325.675 222.721 325.896 222.933C326.094 223.158 326.279 223.394 326.45 223.641C326.738 224.133 326.962 224.66 327.117 225.209C327.368 226.236 327.389 227.306 327.178 228.343C326.838 230.128 325.927 231.753 324.581 232.974C323.368 234.095 321.843 234.821 320.209 235.056C318.218 235.33 316.192 234.941 314.444 233.95Z" fill="black"/>
<path d="M330.833 150.986C329.847 153.696 329.176 156.511 328.833 159.375C327.603 157.819 326.787 155.976 326.46 154.02C326.221 152.538 326.343 151.02 326.816 149.596C327.308 148.175 328.147 146.899 329.257 145.884C330.724 144.552 332.501 143.609 334.426 143.138C332.935 145.61 331.73 148.242 330.833 150.986Z" fill="black"/>
<path d="M336.443 152.918C335.942 154.334 335.098 155.603 333.986 156.613C332.528 157.953 330.756 158.903 328.833 159.375C330.311 156.897 331.516 154.266 332.426 151.528C333.411 148.817 334.082 146.002 334.426 143.138C335.66 144.695 336.482 146.537 336.816 148.494C337.058 149.977 336.929 151.496 336.443 152.918Z" fill="#F9BC69"/>
<path d="M305.478 246.525C305.749 247.05 306.004 247.593 306.258 248.118C306.546 248.728 306.834 249.322 307.122 249.932C307.631 251 308.139 252.05 308.631 253.118C309.071 251.949 309.529 250.796 309.97 249.644C310.241 248.983 310.512 248.305 310.783 247.644C310.885 247.356 311.004 247.084 311.122 246.796C309.241 246.746 307.359 246.661 305.478 246.525ZM312.783 249.356L312.343 248.288C312.19 248.677 312.037 249.067 311.885 249.457C311.224 251.135 310.563 252.813 309.868 254.474C311.529 254.406 313.19 254.355 314.851 254.338L312.783 249.356ZM318.156 246.847C317.342 246.847 316.529 246.864 315.699 246.881C314.986 246.864 314.275 246.864 313.546 246.847L313.732 247.322L314.427 249.203L315.936 253.22L317.563 248.898L318.325 246.847H318.156ZM319.596 248.694L319.24 247.694L318.868 248.762L316.952 254.355C318.529 254.372 320.105 254.406 321.698 254.474L319.596 248.694ZM320.088 246.813L320.681 248.593L322.46 253.966L324.952 248.186L325.647 246.559C323.8 246.678 321.935 246.762 320.088 246.813V246.813ZM326.681 248.017L326.156 246.729L325.613 248.118L323.122 254.542C325.257 254.66 327.41 254.847 329.562 255.152L326.681 248.017ZM305.478 246.525C305.749 247.05 306.004 247.593 306.258 248.118C306.546 248.728 306.834 249.322 307.122 249.932C307.631 251 308.139 252.05 308.631 253.118C309.071 251.949 309.529 250.796 309.97 249.644C310.241 248.983 310.512 248.305 310.783 247.644C310.885 247.356 311.004 247.084 311.122 246.796C309.241 246.745 307.359 246.661 305.478 246.525ZM312.783 249.356L312.343 248.288C312.19 248.677 312.037 249.067 311.885 249.457C311.224 251.135 310.563 252.813 309.868 254.474C311.529 254.406 313.19 254.355 314.851 254.338L312.783 249.356ZM318.156 246.847C317.342 246.847 316.529 246.864 315.699 246.881C314.986 246.864 314.275 246.864 313.546 246.847L313.732 247.322L314.427 249.203L315.936 253.22L317.563 248.898L318.325 246.847H318.156ZM319.596 248.694L319.24 247.694L318.868 248.762L316.952 254.355C318.529 254.372 320.105 254.406 321.698 254.474L319.596 248.694ZM320.088 246.813L320.681 248.593L322.46 253.966L324.952 248.186L325.647 246.559C323.8 246.678 321.935 246.762 320.088 246.813V246.813ZM326.681 248.017L326.156 246.729L325.613 248.118L323.122 254.542C325.257 254.66 327.41 254.847 329.562 255.152L326.681 248.017ZM304.58 247.271C304.393 247.627 304.19 248 304.004 248.356L304.97 248.254C304.834 247.932 304.716 247.593 304.58 247.271ZM305.478 246.525C305.749 247.05 306.004 247.593 306.258 248.118C306.546 248.728 306.834 249.322 307.122 249.932C308.072 249.83 309.02 249.728 309.97 249.644C310.241 248.983 310.512 248.305 310.783 247.644C310.885 247.356 311.004 247.084 311.122 246.796C309.241 246.745 307.359 246.661 305.478 246.525ZM312.343 248.288C312.19 248.677 312.037 249.067 311.885 249.457C312.173 249.423 312.478 249.389 312.783 249.356L312.343 248.288ZM315.699 246.881C314.986 246.864 314.275 246.864 313.546 246.847L313.732 247.322C315.207 247.169 316.681 247 318.156 246.847C317.342 246.847 316.529 246.864 315.699 246.881ZM296.36 221.899L300.122 246.033C301.546 245.847 302.97 245.711 304.377 245.593C304.442 245.546 304.517 245.515 304.597 245.503C304.677 245.491 304.758 245.499 304.834 245.525L304.868 245.559C307.275 245.39 309.665 245.271 312.054 245.22C312.232 245.169 312.419 245.169 312.597 245.22C313.63 245.203 314.664 245.186 315.699 245.186C319.97 245.203 324.223 245.305 328.477 245.711C329.41 245.813 330.359 245.915 331.291 246.033L331.392 245.39L335.037 221.899L296.36 221.899ZM302.343 244.627C299.072 244.627 299.072 239.542 302.343 239.542C305.631 239.542 305.614 244.627 302.343 244.627ZM311.495 244.627C308.224 244.627 308.224 239.542 311.495 239.542C314.783 239.542 314.766 244.627 311.495 244.627ZM320.342 244.322C317.071 244.322 317.071 239.237 320.342 239.237C323.63 239.237 323.613 244.322 320.342 244.322V244.322ZM329.037 244.627C325.766 244.627 325.766 239.542 329.037 239.542C332.325 239.542 332.308 244.627 329.037 244.627ZM326.681 248.017L326.156 246.729L325.613 248.118L323.122 254.542C325.257 254.66 327.41 254.847 329.562 255.152L326.681 248.017ZM320.088 246.813L320.681 248.593L322.461 253.966L324.952 248.186L325.647 246.559C323.8 246.678 321.935 246.762 320.088 246.813ZM319.596 248.694L319.241 247.694L318.868 248.762L316.952 254.355C318.529 254.372 320.105 254.406 321.698 254.474L319.596 248.694ZM318.156 246.847C317.342 246.847 316.529 246.864 315.699 246.881C314.986 246.864 314.275 246.864 313.546 246.847L313.732 247.322L314.427 249.203L315.936 253.22L317.563 248.898L318.325 246.847H318.156ZM312.783 249.356L312.343 248.288C312.19 248.677 312.037 249.067 311.885 249.457C311.224 251.135 310.563 252.813 309.868 254.474C311.529 254.406 313.19 254.355 314.851 254.338L312.783 249.356ZM305.478 246.525C305.749 247.05 306.004 247.593 306.258 248.118C306.546 248.728 306.834 249.322 307.122 249.932C307.631 251 308.139 252.05 308.631 253.118C309.071 251.949 309.529 250.796 309.97 249.644C310.241 248.983 310.512 248.305 310.783 247.644C310.885 247.356 311.004 247.084 311.122 246.796C309.241 246.746 307.359 246.661 305.478 246.525L305.478 246.525ZM326.681 248.017L326.156 246.729L325.613 248.118L323.122 254.542C325.257 254.66 327.41 254.847 329.562 255.152L326.681 248.017ZM320.088 246.813L320.681 248.593L322.461 253.966L324.952 248.186L325.647 246.559C323.8 246.678 321.935 246.762 320.088 246.813ZM319.596 248.694L319.241 247.694L318.868 248.762L316.952 254.355C318.529 254.372 320.105 254.406 321.698 254.474L319.596 248.694ZM318.156 246.847C317.342 246.847 316.529 246.864 315.699 246.881C314.986 246.864 314.275 246.864 313.546 246.847L313.732 247.322L314.427 249.203L315.936 253.22L317.563 248.898L318.325 246.847H318.156ZM312.783 249.356L312.343 248.288C312.19 248.677 312.037 249.067 311.885 249.457C311.224 251.135 310.563 252.813 309.868 254.474C311.529 254.406 313.19 254.355 314.851 254.338L312.783 249.356ZM305.478 246.525C305.749 247.05 306.004 247.593 306.258 248.118C306.546 248.728 306.834 249.322 307.122 249.932C307.631 251 308.139 252.05 308.631 253.118C309.071 251.949 309.529 250.796 309.97 249.644C310.241 248.983 310.512 248.305 310.783 247.644C310.885 247.356 311.004 247.084 311.122 246.796C309.241 246.746 307.359 246.661 305.478 246.525L305.478 246.525ZM318.156 246.847C316.681 247 315.207 247.169 313.732 247.322L314.427 249.203C315.461 249.101 316.512 248.999 317.563 248.898L318.325 246.847H318.156ZM319.241 247.694L318.868 248.762C319.105 248.745 319.359 248.728 319.596 248.694L319.241 247.694ZM320.088 246.813L320.681 248.593C322.105 248.457 323.528 248.322 324.952 248.186L325.647 246.559C323.8 246.678 321.935 246.762 320.088 246.813ZM326.156 246.729L325.613 248.118C325.969 248.085 326.325 248.051 326.681 248.017L326.156 246.729ZM326.596 246.491L327.139 247.983L329.732 255.152V255.169C329.778 255.166 329.824 255.172 329.867 255.186L331.054 247.61L331.291 246.033C329.715 246.237 328.155 246.373 326.596 246.491V246.491ZM329.715 255.203C329.715 255.22 329.715 255.254 329.681 255.254C329.663 255.261 329.643 255.262 329.624 255.256C329.605 255.25 329.589 255.237 329.579 255.22C324.974 255.786 320.338 256.058 315.699 256.033C313.512 256.016 311.326 255.965 309.139 255.864C309.031 255.944 308.903 255.994 308.769 256.009C308.635 256.024 308.5 256.003 308.377 255.949C308.305 255.909 308.237 255.864 308.173 255.813C305.97 255.677 303.75 255.491 301.546 255.186L302.682 262.474H328.732L329.867 255.186C329.816 255.183 329.765 255.189 329.715 255.203V255.203ZM308.122 261.83C304.834 261.83 304.851 256.745 308.122 256.745C311.393 256.745 311.393 261.83 308.122 261.83L308.122 261.83ZM316.664 261.83C313.376 261.83 313.393 256.745 316.664 256.745C319.936 256.745 319.936 261.83 316.664 261.83V261.83ZM325.206 261.525C321.919 261.525 321.935 256.44 325.206 256.44C328.477 256.44 328.477 261.525 325.206 261.525V261.525ZM326.681 248.017L326.156 246.729L325.613 248.118L323.122 254.542C325.257 254.66 327.41 254.847 329.562 255.152L326.681 248.017ZM320.088 246.813L320.681 248.593L322.461 253.966L324.952 248.186L325.647 246.559C323.8 246.678 321.935 246.762 320.088 246.813ZM319.596 248.694L319.241 247.694L318.868 248.762L316.952 254.355C318.529 254.372 320.105 254.406 321.698 254.474L319.596 248.694ZM318.156 246.847C317.342 246.847 316.529 246.864 315.699 246.881C314.986 246.864 314.275 246.864 313.546 246.847L313.732 247.322L314.427 249.203L315.936 253.22L317.563 248.898L318.325 246.847H318.156ZM312.783 249.356L312.343 248.288C312.19 248.677 312.037 249.067 311.885 249.457C311.224 251.135 310.563 252.813 309.868 254.474C311.529 254.406 313.19 254.355 314.851 254.338L312.783 249.356ZM305.478 246.525C305.749 247.05 306.004 247.593 306.258 248.118C306.546 248.728 306.834 249.322 307.122 249.932C307.631 251 308.139 252.05 308.631 253.118C309.071 251.949 309.529 250.796 309.97 249.644C310.241 248.983 310.512 248.305 310.783 247.644C310.885 247.356 311.004 247.084 311.122 246.796C309.241 246.746 307.359 246.661 305.478 246.525L305.478 246.525ZM305.699 250.067C305.461 249.474 305.207 248.864 304.97 248.254C304.834 247.932 304.716 247.593 304.58 247.271C304.394 247.627 304.19 248 304.004 248.356C303.665 249.017 303.309 249.678 302.953 250.338C302.428 251.339 301.885 252.339 301.326 253.338C301.319 253.345 301.311 253.35 301.302 253.353C301.294 253.356 301.284 253.356 301.275 253.355L301.546 255.186C303.546 254.897 305.563 254.728 307.563 254.593C306.953 253.084 306.325 251.576 305.699 250.067L305.699 250.067ZM307.122 249.932C307.631 251 308.139 252.05 308.631 253.118C309.071 251.949 309.529 250.796 309.97 249.644C309.02 249.728 308.072 249.83 307.122 249.932V249.932ZM312.783 249.356C312.478 249.389 312.173 249.423 311.885 249.457C311.224 251.135 310.563 252.813 309.868 254.474C311.529 254.406 313.19 254.355 314.851 254.338L312.783 249.356ZM314.427 249.203L315.936 253.22L317.563 248.898C316.512 248.999 315.461 249.101 314.427 249.203L314.427 249.203ZM319.596 248.694C319.359 248.728 319.105 248.745 318.868 248.762L316.952 254.355C318.529 254.372 320.105 254.406 321.698 254.474L319.596 248.694ZM320.681 248.593L322.461 253.966L324.952 248.186C323.529 248.322 322.105 248.457 320.681 248.593V248.593ZM326.681 248.017C326.325 248.051 325.969 248.084 325.613 248.118L323.122 254.542C325.257 254.66 327.41 254.847 329.562 255.152L326.681 248.017ZM300.122 246.033L300.546 248.728L300.817 250.559L301.224 253.118C301.58 252.203 301.936 251.305 302.292 250.406C302.546 249.745 302.817 249.101 303.088 248.457C303.359 247.78 303.631 247.101 303.919 246.423C302.648 246.322 301.394 246.186 300.122 246.033V246.033Z" fill="black"/>
<path d="M318.05 242.179C316.532 241.024 315.718 239.204 315.016 237.464C314.75 236.559 314.404 235.663 314.201 234.738L313.628 231.949C313.16 228.194 313.017 224.405 313.201 220.625C313.267 216.839 313.833 213.108 314.272 209.362C314.958 205.664 315.487 201.923 316.385 198.272C317.228 194.606 318.07 190.942 319.135 187.339C320.16 183.725 321.146 180.102 322.41 176.565C323.632 173.016 324.729 169.429 326.088 165.932C327.464 162.44 328.769 158.927 330.202 155.464C328.209 162.699 325.9 169.813 323.959 177.033L322.449 182.428L321.059 187.852C320.61 189.662 320.068 191.451 319.665 193.27L318.438 198.725C317.506 202.34 316.982 206.025 316.233 209.674C315.684 213.348 315.106 217.025 314.809 220.724C314.443 224.414 314.388 228.128 314.646 231.828L314.975 234.581C315.097 235.498 315.358 236.383 315.544 237.293C316.103 239.028 316.695 240.861 318.05 242.179Z" fill="#F9BC69"/>
<path d="M56.8176 175.502C55.9784 177.875 55.0261 180.199 54.0738 182.522L50.2816 188.913L43.0033 201.21H40.1953L40.6311 200.484L48.1997 187.687L51.992 181.28C53.5735 179.343 55.1392 177.391 56.8176 175.502Z" fill="black"/>
<path d="M39.0981 183.539L38.1943 191.447L37.0808 201.21H34.6436L35.7897 191.172L36.6773 183.265C37.3388 180.667 37.9842 178.068 38.7911 175.502C38.9851 178.198 39.0493 180.86 39.0981 183.539Z" fill="black"/>
<path d="M29.1084 201.21H30.6416L29.7862 195.223L29.0923 190.414L28.0272 182.861C27.3009 180.408 26.5909 177.939 25.7355 175.502C25.6226 177.617 25.5903 179.714 25.6064 181.812V183.216L25.9131 185.298L26.7039 190.753L28.2047 201.21H29.1084Z" fill="black"/>
<path d="M23.9924 201.21H21.5555L20.0386 190.753L18.9575 183.216C18.9409 180.651 18.9409 178.084 19.0863 175.502C19.9417 177.939 20.6517 180.408 21.3782 182.861L22.4432 190.414L23.4759 197.612L23.9924 201.21Z" fill="black"/>
<path d="M25.9129 183.878V185.298L25.8968 191.302V201.211H23.4761V183.878C23.8311 181.409 24.1861 178.94 24.6864 176.455C25.0414 178.246 25.3484 180.037 25.6064 181.813C25.7195 182.506 25.8164 183.184 25.9129 183.878Z" fill="black"/>
<path d="M33.3691 185.121L32.5299 192.496L31.5453 201.211H29.1084L29.7865 195.223L30.1253 192.222L30.9484 184.846C31.5776 182.426 32.2072 180.005 32.9818 177.617C33.2076 180.118 33.2883 182.62 33.3691 185.121Z" fill="black"/>
<path d="M16.52 211.087V219.802C16.94 219.753 17.3592 219.721 17.7788 219.673L21.4099 211.523C19.7799 211.41 18.1504 211.281 16.52 211.087ZM21.8618 211.668L17.9727 219.656C20.3126 219.414 22.6687 219.253 25.0091 219.156L21.8618 211.668ZM22.3784 211.587L25.7029 218.753L28.3494 211.83C26.3644 211.797 24.3633 211.7 22.3784 211.587ZM29.1886 212.524L26.4613 219.108C28.1878 219.043 29.8986 219.011 31.6255 218.995L29.1886 212.524ZM32.6258 211.894C31.7866 211.878 30.9316 211.862 30.0924 211.862L32.5616 217.946L34.6596 211.862C33.9816 211.878 33.3039 211.878 32.6258 211.894ZM35.7408 213.427L33.6266 218.995C34.9823 219.011 36.3377 219.027 37.6934 219.075C37.0157 217.187 36.37 215.315 35.7408 213.427H35.7408ZM36.8703 211.83C37.5642 213.75 38.2261 215.67 38.8715 217.591C39.743 215.606 40.5983 213.637 41.486 211.668C39.9526 211.749 38.4195 211.797 36.8703 211.83ZM42.3894 212.572C41.5825 214.767 40.7437 216.945 39.9045 219.14C41.7602 219.205 43.616 219.318 45.4559 219.479C44.3906 217.187 43.3902 214.896 42.3894 212.572V212.572ZM16.52 201.211V211.087C21.8683 210.504 27.2461 210.235 32.6258 210.28C33.6104 210.28 34.595 210.296 35.5792 210.312C35.7217 210.272 35.8725 210.272 36.015 210.312C38.0807 210.345 40.1303 210.425 42.1799 210.538C42.2318 210.52 42.2861 210.509 42.341 210.506C42.4241 210.507 42.5064 210.523 42.5833 210.555C44.6329 210.684 46.6825 210.845 48.7316 211.087V201.211H16.52ZM20.2803 208.424C17.1496 208.424 17.1658 203.583 20.2803 203.583C23.3953 203.583 23.3953 208.424 20.2803 208.424V208.424ZM28.9947 208.424C25.864 208.424 25.8802 203.583 28.9947 203.583C32.1097 203.583 32.1097 208.424 28.9947 208.424V208.424ZM37.4192 208.134C34.2885 208.134 34.3042 203.293 37.4192 203.293C40.5337 203.293 40.5337 208.134 37.4192 208.134V208.134ZM45.6978 208.424C42.5671 208.424 42.5833 203.583 45.6978 203.583C48.8128 203.583 48.8128 208.424 45.6978 208.424V208.424ZM43.0998 211.571C44.0033 214.202 44.8748 216.832 45.6817 219.495C46.6986 219.592 47.7151 219.673 48.7316 219.802V211.087C46.8597 211.297 44.9879 211.458 43.0998 211.571V211.571ZM21.8618 211.668L17.9727 219.656C20.3126 219.414 22.6687 219.253 25.0091 219.156L21.8618 211.668ZM22.3784 211.587L25.7029 218.753L28.3494 211.83C26.3644 211.797 24.3633 211.7 22.3784 211.587V211.587ZM29.1886 212.524L26.4613 219.108C28.1878 219.043 29.8986 219.011 31.6255 218.995L29.1886 212.524ZM32.6258 211.894C31.7866 211.878 30.9316 211.862 30.0924 211.862L32.5616 217.946L34.6596 211.862C33.9816 211.878 33.3039 211.878 32.6258 211.894V211.894ZM35.7408 213.427L33.6266 218.995C34.9823 219.011 36.3377 219.027 37.6934 219.075C37.0157 217.187 36.37 215.315 35.7408 213.427L35.7408 213.427ZM36.8703 211.83C37.5642 213.75 38.2261 215.67 38.8715 217.591C39.743 215.606 40.5983 213.637 41.486 211.668C39.9526 211.749 38.4195 211.797 36.8703 211.83V211.83ZM42.3894 212.572C41.5825 214.767 40.7437 216.945 39.9045 219.14C41.7602 219.205 43.616 219.318 45.4559 219.479C44.3906 217.187 43.3902 214.896 42.3894 212.572V212.572ZM21.8618 211.668L17.9727 219.657C20.3126 219.414 22.6687 219.253 25.0091 219.156L21.8618 211.668ZM22.3784 211.587L25.7029 218.753L28.3494 211.83C26.3644 211.797 24.3633 211.7 22.3784 211.587V211.587ZM29.1886 212.524L26.4613 219.108C28.1878 219.043 29.8986 219.011 31.6255 218.995L29.1886 212.524ZM32.6258 211.894C31.7866 211.878 30.9316 211.862 30.0924 211.862L32.5616 217.946L34.6596 211.862C33.9816 211.878 33.3039 211.878 32.6258 211.894V211.894ZM35.7408 213.427L33.6266 218.995C34.9823 219.011 36.3377 219.027 37.6934 219.075C37.0157 217.187 36.37 215.315 35.7408 213.427L35.7408 213.427ZM36.8703 211.83C37.5642 213.75 38.2261 215.67 38.8715 217.591C39.743 215.606 40.5983 213.637 41.486 211.668C39.9526 211.749 38.4195 211.797 36.8703 211.83V211.83ZM42.3894 212.572C41.5825 214.767 40.7437 216.945 39.9045 219.14C41.7602 219.205 43.616 219.318 45.4559 219.479C44.3906 217.187 43.3902 214.896 42.3894 212.572V212.572ZM16.52 229.242V231.244C16.52 235.515 18.2169 239.612 21.2373 242.632C24.2577 245.653 28.3543 247.349 32.6258 247.349C36.8973 247.349 40.9939 245.653 44.0143 242.632C47.0348 239.612 48.7316 235.515 48.7316 231.244V229.242C38.0214 230.318 27.2303 230.318 16.52 229.242ZM39.2103 220.48C39.107 220.549 38.9887 220.592 38.8651 220.606C38.7416 220.62 38.6165 220.605 38.5003 220.56C38.4668 220.541 38.4344 220.519 38.4034 220.496C36.483 220.56 34.5466 220.593 32.6258 220.609C27.2464 220.638 21.8695 220.369 16.52 219.802V229.242C21.8683 228.66 27.2461 228.39 32.6258 228.436C38.0056 228.391 43.3833 228.66 48.7316 229.242V219.802C45.5529 220.173 42.3894 220.366 39.2103 220.479V220.48ZM21.0065 227.016C17.8758 227.016 17.8919 222.174 21.0065 222.174C24.121 222.174 24.121 227.015 21.0065 227.015V227.016ZM28.414 226.87C25.2833 226.87 25.2994 222.029 28.414 222.029C31.5285 222.029 31.5285 226.87 28.414 226.87V226.87ZM36.5477 226.87C33.417 226.87 33.4327 222.029 36.5477 222.029C39.6622 222.029 39.6622 226.87 36.5477 226.87V226.87ZM44.6813 226.58C41.5506 226.58 41.5664 221.738 44.6813 221.738C47.7959 221.738 47.7959 226.58 44.6813 226.58V226.58ZM45.4559 219.479C44.3906 217.187 43.3902 214.896 42.3894 212.572C41.5825 214.767 40.7437 216.945 39.9045 219.14C41.7602 219.205 43.616 219.318 45.4559 219.479V219.479ZM41.486 211.668C39.9526 211.749 38.4195 211.797 36.8703 211.83C37.5642 213.75 38.2261 215.67 38.8715 217.591C39.743 215.606 40.5983 213.637 41.486 211.668V211.668ZM37.6934 219.075C37.0157 217.187 36.37 215.315 35.7408 213.427L33.6266 218.995C34.9823 219.011 36.3376 219.027 37.6934 219.075V219.075ZM34.6596 211.862C33.9816 211.878 33.3039 211.878 32.6258 211.894C31.7866 211.878 30.9316 211.862 30.0924 211.862L32.5616 217.946L34.6596 211.862ZM31.6255 218.995L29.1886 212.524L26.4613 219.108C28.1878 219.043 29.8986 219.011 31.6255 218.995V218.995ZM28.3494 211.83C26.3644 211.797 24.3633 211.701 22.3784 211.587L25.7029 218.753L28.3494 211.83ZM21.8618 211.668L17.9727 219.657C20.3126 219.414 22.6687 219.253 25.0091 219.156L21.8618 211.668ZM42.3894 212.572C41.5825 214.767 40.7437 216.945 39.9045 219.14C41.7602 219.205 43.616 219.318 45.4559 219.479C44.3906 217.187 43.3902 214.896 42.3894 212.572V212.572ZM36.8703 211.83C37.5642 213.75 38.2261 215.67 38.8715 217.591C39.743 215.606 40.5983 213.637 41.486 211.668C39.9526 211.749 38.4195 211.797 36.8703 211.83V211.83ZM35.7408 213.427L33.6266 218.995C34.9823 219.011 36.3377 219.027 37.6934 219.075C37.0157 217.187 36.37 215.315 35.7408 213.427ZM32.6258 211.894C31.7866 211.878 30.9316 211.862 30.0924 211.862L32.5616 217.946L34.6596 211.862C33.9816 211.878 33.3039 211.878 32.6258 211.894H32.6258ZM29.1886 212.524L26.4614 219.108C28.1879 219.043 29.8986 219.011 31.6255 218.995L29.1886 212.524ZM22.3784 211.587L25.7029 218.753L28.3494 211.83C26.3644 211.797 24.3633 211.7 22.3784 211.587H22.3784ZM21.8618 211.668L17.9727 219.656C20.3127 219.414 22.6688 219.253 25.0091 219.156L21.8618 211.668ZM42.3895 212.572C41.5826 214.767 40.7437 216.945 39.9045 219.14C41.7603 219.205 43.616 219.318 45.4559 219.479C44.3906 217.187 43.3902 214.896 42.3894 212.572H42.3895ZM36.8704 211.83C37.5642 213.75 38.2261 215.67 38.8715 217.591C39.743 215.606 40.5984 213.637 41.486 211.668C39.9526 211.749 38.4195 211.797 36.8703 211.83L36.8704 211.83ZM35.7408 213.427L33.6266 218.995C34.9823 219.011 36.3377 219.027 37.6934 219.075C37.0157 217.187 36.37 215.315 35.7408 213.427ZM32.6258 211.894C31.7866 211.878 30.9316 211.862 30.0924 211.862L32.5616 217.946L34.6596 211.862C33.9816 211.878 33.3039 211.878 32.6258 211.894H32.6258ZM29.1886 212.524L26.4614 219.108C28.1879 219.043 29.8986 219.011 31.6255 218.995L29.1886 212.524ZM22.3784 211.587L25.7029 218.753L28.3494 211.83C26.3644 211.797 24.3633 211.7 22.3784 211.587H22.3784ZM21.8618 211.668L17.9727 219.656C20.3127 219.414 22.6688 219.253 25.0091 219.156L21.8618 211.668Z" fill="#F9BC69"/>
<path d="M171.122 208.541C171.743 210.867 172.437 213.133 173.118 215.403C173.822 217.666 174.527 219.925 175.267 222.174C175.614 223.306 175.987 224.431 176.364 225.555C176.699 226.693 177.121 227.802 177.455 228.945C177.822 230.076 178.188 231.209 178.531 232.354C178.878 233.497 179.239 234.637 179.524 235.814C178.88 234.793 178.304 233.739 177.73 232.682C177.196 231.608 176.651 230.536 176.17 229.437C175.192 227.244 174.331 225 173.59 222.715C172.85 220.425 172.248 218.094 171.787 215.732C171.296 213.368 171.073 210.956 171.122 208.541Z" fill="black"/>
<path d="M124.22 212.403C124.22 212.074 124.188 211.746 124.123 211.424H124.132V211.433C124.194 211.753 124.223 212.077 124.22 212.403Z" fill="white"/>
<path d="M116.691 210.022C117.714 210.225 118.727 210.419 119.75 210.613L124.132 211.433C124.166 212.78 124.024 214.126 123.709 215.436V215.444L118.992 214.563C117.775 214.334 116.567 214.095 115.351 213.849C115.148 213.822 114.954 213.778 114.751 213.734C113.288 213.452 111.816 213.17 110.352 212.879C110.517 211.525 110.547 210.157 110.44 208.797C111.701 209.053 112.97 209.3 114.231 209.546L114.54 209.608" fill="black"/>
</svg>
