<svg width="83" height="28" viewBox="0 0 83 28" fill="none" xmlns="http://www.w3.org/2000/svg">
<path d="M2.53899 12.036H0.86499V8.03999H2.53899V7.04099C2.53899 5.74499 2.83599 4.63799 3.42999 3.71999C4.02399 2.80199 4.83399 2.10899 5.85999 1.64099C6.90399 1.15499 8.07399 0.911987 9.36999 0.911987C10.54 0.911987 11.521 1.10099 12.313 1.47899V6.31199C11.737 6.00599 11.125 5.85299 10.477 5.85299C9.88299 5.85299 9.42399 5.99699 9.09999 6.28499C8.77599 6.57299 8.61399 7.00499 8.61399 7.58099V8.03999H11.503V12.036H8.61399V21H2.53899V12.036Z" fill="black"/>
<path d="M20.2887 21.405C18.5967 21.405 17.1117 21.108 15.8337 20.514C14.5737 19.92 13.6017 19.101 12.9177 18.057C12.2337 17.013 11.8917 15.834 11.8917 14.52C11.8917 13.206 12.2337 12.027 12.9177 10.983C13.6017 9.93899 14.5737 9.11999 15.8337 8.52599C17.1117 7.93199 18.5967 7.63499 20.2887 7.63499C21.9807 7.63499 23.4567 7.93199 24.7167 8.52599C25.9947 9.11999 26.9758 9.93899 27.6597 10.983C28.3437 12.027 28.6857 13.206 28.6857 14.52C28.6857 15.834 28.3437 17.013 27.6597 18.057C26.9758 19.101 25.9947 19.92 24.7167 20.514C23.4567 21.108 21.9807 21.405 20.2887 21.405ZM20.2887 16.707C20.9547 16.707 21.4857 16.509 21.8817 16.113C22.2777 15.717 22.4757 15.186 22.4757 14.52C22.4757 13.854 22.2777 13.323 21.8817 12.927C21.4857 12.531 20.9547 12.333 20.2887 12.333C19.6227 12.333 19.0917 12.531 18.6957 12.927C18.2997 13.323 18.1017 13.854 18.1017 14.52C18.1017 15.186 18.2997 15.717 18.6957 16.113C19.0917 16.509 19.6227 16.707 20.2887 16.707Z" fill="black"/>
<path d="M30.855 8.03999H36.714V9.20099C37.218 8.73299 37.902 8.35499 38.766 8.06699C39.63 7.77899 40.557 7.63499 41.547 7.63499V12.333C40.485 12.333 39.522 12.477 38.658 12.765C37.812 13.035 37.236 13.422 36.93 13.926V21H30.855V8.03999Z" fill="black"/>
<path d="M50.3971 27.21C49.5331 27.21 48.6511 27.129 47.7511 26.967C46.8691 26.805 46.0951 26.58 45.4291 26.292V22.431C46.8691 23.043 48.5251 23.349 50.3971 23.349C52.3951 23.349 53.3941 22.539 53.3941 20.919V20.19C52.9621 20.55 52.3951 20.838 51.6931 21.054C51.0091 21.288 50.2891 21.405 49.5331 21.405C48.1471 21.405 46.9321 21.117 45.8881 20.541C44.8441 19.965 44.0341 19.155 43.4581 18.111C42.9001 17.067 42.6211 15.87 42.6211 14.52C42.6211 13.152 42.9001 11.946 43.4581 10.902C44.0341 9.85799 44.8351 9.05699 45.8611 8.49899C46.9051 7.92299 48.1291 7.63499 49.5331 7.63499C50.3071 7.63499 51.0541 7.76999 51.7741 8.03999C52.5121 8.30999 53.1241 8.66999 53.6101 9.11999V8.03999H59.4691V19.974C59.4691 22.26 58.7311 24.033 57.2551 25.293C55.7791 26.571 53.4931 27.21 50.3971 27.21ZM51.2071 16.707C51.6751 16.707 52.1071 16.599 52.5031 16.383C52.8991 16.167 53.1961 15.87 53.3941 15.492V13.548C53.1961 13.17 52.8991 12.873 52.5031 12.657C52.1071 12.441 51.6751 12.333 51.2071 12.333C50.4871 12.333 49.9201 12.513 49.5061 12.873C49.1101 13.233 48.9121 13.773 48.9121 14.493C48.9121 15.213 49.1101 15.762 49.5061 16.14C49.9201 16.518 50.4871 16.707 51.2071 16.707Z" fill="black"/>
<path d="M70.0755 21.405C67.4115 21.405 65.3325 20.811 63.8385 19.623C62.3625 18.435 61.6245 16.752 61.6245 14.574C61.6245 12.432 62.2905 10.74 63.6225 9.49799C64.9725 8.25599 66.9075 7.63499 69.4275 7.63499C71.0295 7.63499 72.3975 7.93199 73.5315 8.52599C74.6835 9.11999 75.5475 9.92999 76.1235 10.956C76.7175 11.982 77.0145 13.134 77.0145 14.412V16.167H67.4025C67.9245 17.103 69.1035 17.571 70.9395 17.571C71.7855 17.571 72.6675 17.508 73.5855 17.382C74.5215 17.238 75.3135 17.04 75.9615 16.788V20.433C75.2415 20.721 74.3505 20.955 73.2885 21.135C72.2445 21.315 71.1735 21.405 70.0755 21.405ZM71.2905 12.846C71.0745 11.946 70.4175 11.496 69.3195 11.496C68.2575 11.496 67.6185 11.946 67.4025 12.846H71.2905Z" fill="black"/>
<path d="M80.6489 21C80.0909 21 79.6139 20.802 79.2179 20.406C78.8219 20.01 78.6239 19.533 78.6239 18.975C78.6239 18.399 78.8219 17.913 79.2179 17.517C79.6139 17.103 80.0909 16.896 80.6489 16.896C81.2249 16.896 81.7109 17.103 82.1069 17.517C82.5209 17.913 82.7279 18.399 82.7279 18.975C82.7279 19.533 82.5209 20.01 82.1069 20.406C81.7109 20.802 81.2249 21 80.6489 21Z" fill="black"/>
</svg>
