<svg width="1238" height="936" viewBox="0 0 1238 936" fill="none" xmlns="http://www.w3.org/2000/svg">
<path d="M66.8125 852.358H859.746C859.746 852.358 811.465 922.351 653.593 897.737C495.722 873.124 521.971 858.038 434.509 885.827C347.047 913.617 246.653 943.789 159.287 930.291C71.9216 916.793 66.8125 852.358 66.8125 852.358Z" fill="white" stroke="#1A1A1A" stroke-width="3.51079" stroke-linecap="round" stroke-linejoin="round"/>
<path d="M444.362 822.715C423.597 778.025 463.503 694.038 514.627 658.693C577.812 615.011 691.323 650.323 700.895 655.818C704.515 648.093 761.948 531.185 878.881 526.825C969.362 523.452 1011.14 552.827 1046.37 663.012C1049.36 661.793 1094.28 664.465 1123.19 692.478C1157.86 726.076 1154.61 803.141 1123.06 852.358H481.042C458.22 845.013 448.733 832.122 444.362 822.715Z" stroke="#1A1A1A" stroke-width="5.26619" stroke-linecap="round" stroke-linejoin="round"/>
<path d="M999.829 46.9247C999.829 41.2069 998.702 35.5452 996.514 30.2627C994.326 24.9802 991.119 20.1804 987.076 16.1374C983.033 12.0944 978.233 8.88725 972.951 6.69917C967.668 4.51109 962.007 3.38489 956.289 3.38489H345.28C339.562 3.38489 333.9 4.51109 328.618 6.69917C323.336 8.88725 318.536 12.0944 314.493 16.1374C310.45 20.1804 307.243 24.9802 305.054 30.2627C302.866 35.5452 301.74 41.2069 301.74 46.9247V47.4084H999.829V46.9247Z" fill="#1C0311" stroke="#1A1A1A" stroke-width="1.7554" stroke-linecap="round" stroke-linejoin="round"/>
<path d="M999.827 89.0132H878.883V125.257H999.827V89.0132Z" fill="#1C0311" stroke="#1A1A1A" stroke-width="1.7554" stroke-linecap="round" stroke-linejoin="round"/>
<path d="M999.827 125.257H878.883V334.872H999.827V125.257Z" fill="white" stroke="#1A1A1A" stroke-width="3.51079" stroke-linecap="round" stroke-linejoin="round"/>
<path d="M878.883 334.872V473.615H956.292C962.009 473.615 967.671 472.488 972.953 470.3C978.235 468.112 983.035 464.904 987.078 460.861C991.12 456.818 994.327 452.018 996.514 446.735C998.702 441.452 999.827 435.791 999.827 430.073V334.872H878.883Z" fill="#1C0311" stroke="#1A1A1A" stroke-width="1.7554" stroke-linecap="round" stroke-linejoin="round"/>
<path d="M999.827 47.4089V89.0131H878.883V473.615H345.284C339.566 473.616 333.904 472.49 328.621 470.302C323.338 468.114 318.538 464.906 314.494 460.863C310.451 456.82 307.244 452.02 305.056 446.737C302.868 441.454 301.742 435.791 301.742 430.073V47.4089H999.827Z" fill="white" stroke="#1A1A1A" stroke-width="3.51079" stroke-linecap="round" stroke-linejoin="round"/>
<path d="M878.883 89.0132H301.742" stroke="#1A1A1A" stroke-width="3.51079" stroke-linecap="round" stroke-linejoin="round"/>
<path d="M418.732 89.0132V473.615" stroke="#1A1A1A" stroke-width="3.51079" stroke-linecap="round" stroke-linejoin="round"/>
<path d="M820.185 117.072H457.676V267.365H820.185V117.072Z" stroke="#1A1A1A" stroke-width="3.51079" stroke-linecap="round" stroke-linejoin="round" stroke-dasharray="21.06 21.06"/>
<path d="M809.791 256.97V127.468L468.073 127.468V256.97H809.791Z" fill="white" stroke="#1A1A1A" stroke-width="3.51079" stroke-linecap="round" stroke-linejoin="round"/>
<path d="M820.185 290.976H457.676V441.269H820.185V290.976Z" stroke="#1A1A1A" stroke-width="3.51079" stroke-linecap="round" stroke-linejoin="round" stroke-dasharray="21.06 21.06"/>
<path d="M809.791 430.874V301.371H468.073V430.874H809.791Z" fill="white" stroke="#1A1A1A" stroke-width="3.51079" stroke-linecap="round" stroke-linejoin="round"/>
<path d="M615.711 473.614V852.41H764.715V473.614H615.711ZM690.209 625.759C682.985 625.759 675.924 623.617 669.917 619.604C663.91 615.59 659.229 609.886 656.464 603.212C653.7 596.538 652.977 589.194 654.386 582.108C655.795 575.023 659.274 568.515 664.382 563.407C669.49 558.299 675.998 554.82 683.084 553.411C690.169 552.001 697.513 552.725 704.187 555.489C710.861 558.254 716.565 562.935 720.579 568.942C724.592 574.948 726.734 582.01 726.734 589.234C726.734 598.921 722.886 608.211 716.036 615.061C709.186 621.91 699.896 625.759 690.209 625.759V625.759Z" fill="white" stroke="#1A1A1A" stroke-width="3.51079" stroke-linecap="round" stroke-linejoin="round"/>
<path d="M946.235 851.739C963.285 852.447 980.96 853.052 996.738 846.551C1012.51 840.051 1025.86 824.319 1023.87 807.372C1022.81 798.359 1017.73 790.413 1014.12 782.085C1010.52 773.757 1008.48 763.652 1013.27 755.945C1019.82 745.408 1035.8 744.365 1042.9 734.188C1049.29 725.027 1045.89 712.307 1040.52 702.516C1037.49 696.997 1033.7 691.591 1028.18 688.563C1022.66 685.535 1015.06 685.552 1010.67 690.058C1006.15 694.693 1006.32 702.199 1002.86 707.67C999.491 712.986 993.067 715.679 986.809 716.325C980.551 716.972 974.263 715.898 967.997 715.335C936.326 712.489 901.838 724.861 885.143 751.925C878.034 763.449 874.5 776.782 868.705 789.019C862.909 801.257 853.828 813.119 840.795 816.791C835.766 818.207 830.463 818.306 825.346 819.36C820.229 820.414 814.99 822.696 812.254 827.147C807.495 834.89 812.895 845.633 820.97 849.805C829.045 853.977 838.835 850.817 847.709 852.783C849.795 853.244 946.235 851.739 946.235 851.739Z" fill="#1C0311" stroke="#1A1A1A" stroke-width="1.7554" stroke-linecap="round" stroke-linejoin="round"/>
<path d="M878.91 852.871C893.631 845.797 912.22 828.904 922.452 816.175C932.3 803.924 939.41 789.706 948.715 777.037C958.019 764.368 970.362 752.835 985.735 749.556" stroke="white" stroke-width="5.26619" stroke-linecap="round" stroke-linejoin="round"/>
<path d="M948.763 756.213C948.763 756.213 944.79 762.702 948.714 777.037" stroke="white" stroke-width="5.26619" stroke-linecap="round" stroke-linejoin="round"/>
<path d="M957.069 796.631C957.069 796.631 952.684 802.473 932.176 802.459" stroke="white" stroke-width="5.26619" stroke-linecap="round" stroke-linejoin="round"/>
<path d="M989.941 761.75C989.941 761.75 977.794 767.074 965.217 759.567" stroke="white" stroke-width="5.26619" stroke-linecap="round" stroke-linejoin="round"/>
<path d="M777.712 739.683C778.564 730.204 780.228 720.473 785.41 712.491C790.591 704.509 800.058 698.666 809.437 700.28C819.854 702.073 829.108 712.394 839.152 709.099C845.48 707.024 849 699.955 849.293 693.301C849.585 686.648 847.387 680.177 845.735 673.725C843.535 665.135 842.274 656.099 844.022 647.406C845.77 638.712 850.907 630.369 858.856 626.439C871.007 620.431 886.243 626.319 895.507 636.214C898.852 639.787 901.689 643.857 905.414 647.031C909.139 650.206 914.1 652.449 918.884 651.416C923.887 650.335 927.616 645.817 929.049 640.903C930.482 635.99 929.985 630.727 929.096 625.687C927.903 618.924 926.547 610.631 931.914 606.346C935.505 603.48 940.63 603.845 945.164 604.586C955.691 606.306 966.248 609.39 974.857 615.686C983.466 621.983 989.898 631.92 989.939 642.586C989.98 653.252 982.472 664.064 971.966 665.902C965.026 667.116 957.292 664.66 951.174 668.155C944.73 671.837 943.143 680.809 945.315 687.905C947.487 695.002 952.457 700.826 956.716 706.904C960.975 712.981 964.744 720.064 963.936 727.442C962.865 737.224 953.597 744.655 943.88 746.21C934.164 747.764 924.277 744.554 915.5 740.106C910.516 737.58 905.186 734.545 899.701 735.607C891.615 737.174 887.775 746.923 888.441 755.133C889.108 763.342 892.747 771.087 893.43 779.295C895.015 798.324 879.938 815.562 862.272 822.809C844.605 830.057 824.854 829.555 805.769 828.94C797.206 818.094 782.448 805.328 779.613 791.407C776.229 774.794 776.202 756.491 777.712 739.683Z" fill="white" stroke="#1A1A1A" stroke-width="3.51079" stroke-linecap="round" stroke-linejoin="round"/>
<path d="M791.441 789.548C815.173 777.787 835.3 759.852 849.708 737.627C858.73 723.659 865.328 708.236 874.402 694.302C883.476 680.368 895.737 667.55 911.612 662.604" fill="white"/>
<path d="M791.441 789.548C815.173 777.787 835.3 759.852 849.708 737.627C858.73 723.659 865.328 708.236 874.402 694.302C883.476 680.368 895.737 667.55 911.612 662.604" stroke="#1A1A1A" stroke-width="3.51079" stroke-linecap="round" stroke-linejoin="round"/>
<path d="M874.088 667.625C874.088 667.625 870.766 685.945 872.219 697.755L874.088 667.625Z" fill="white"/>
<path d="M874.088 667.625C874.088 667.625 870.766 685.945 872.219 697.755" stroke="#1A1A1A" stroke-width="3.51079" stroke-linecap="round" stroke-linejoin="round"/>
<path d="M923.711 686.457C922.881 685.897 891.775 694.993 876.08 691.794L923.711 686.457Z" fill="white"/>
<path d="M923.711 686.457C922.881 685.897 891.775 694.993 876.08 691.794" stroke="#1A1A1A" stroke-width="3.51079" stroke-linecap="round" stroke-linejoin="round"/>
<path d="M874.086 740.71C874.086 740.71 856.922 756.118 841.107 749.556L874.086 740.71Z" fill="white"/>
<path d="M874.086 740.71C874.086 740.71 856.922 756.118 841.107 749.556" stroke="#1A1A1A" stroke-width="3.51079" stroke-linecap="round" stroke-linejoin="round"/>
<path d="M816.574 737.596C816.574 738.426 807.625 760.215 818.847 771.952L816.574 737.596Z" fill="white"/>
<path d="M816.574 737.596C816.574 738.426 807.625 760.215 818.847 771.952" stroke="#1A1A1A" stroke-width="3.51079" stroke-linecap="round" stroke-linejoin="round"/>
<path d="M105.303 852.468H860.465C844.732 771.93 777.711 711.749 698.388 705.335C626.202 699.497 556.334 739.198 522.842 805.51C515.913 795.304 492.225 745.958 381.541 745.947C275.357 745.935 241.982 764.543 222.885 777.037C199.716 727.22 127.176 710.878 99.3164 744.689C74.5392 774.76 76.0513 821.696 105.303 852.468Z" fill="white" stroke="#1A1A1A" stroke-width="3.51079" stroke-linecap="round" stroke-linejoin="round"/>
<path d="M2.76562 852.412H1123.19" stroke="#1A1A1A" stroke-width="5.26619" stroke-linecap="round" stroke-linejoin="round"/>
<path d="M776.861 3.38489L247.229 852.412" stroke="#1A1A1A" stroke-width="5.26619" stroke-linecap="round" stroke-linejoin="round"/>
<path d="M903.748 3.38489L374.115 852.412" stroke="#1A1A1A" stroke-width="5.26619" stroke-linecap="round" stroke-linejoin="round"/>
<path d="M343.57 697.97L450.01 727.22" stroke="#1A1A1A" stroke-width="5.26619" stroke-linecap="round" stroke-linejoin="round"/>
<path d="M432.877 554.536L539.317 583.787" stroke="#1A1A1A" stroke-width="5.26619" stroke-linecap="round" stroke-linejoin="round"/>
<path d="M522.338 410.946L628.778 440.197" stroke="#1A1A1A" stroke-width="5.26619" stroke-linecap="round" stroke-linejoin="round"/>
<path d="M611.742 268.358L718.182 297.609" stroke="#1A1A1A" stroke-width="5.26619" stroke-linecap="round" stroke-linejoin="round"/>
<path d="M700.896 125.145L807.336 154.395" stroke="#1A1A1A" stroke-width="5.26619" stroke-linecap="round" stroke-linejoin="round"/>
<path d="M479.285 250.594C479.285 250.594 500.329 257.851 523.308 285.91C546.287 313.969 586.925 299.214 600.47 275.993C614.016 252.771 636.028 208.022 657.314 215.763C668.441 220.762 676.343 233.179 668.763 235.597C661.184 238.016 652.638 229.792 650.38 233.179C648.122 236.565 661.023 239.306 658.765 243.015C656.508 246.724 647.639 239.145 644.091 249.627C640.543 260.109 620.225 332.836 573.137 345.737C526.05 358.638 500.571 323.806 499.603 321.548C498.636 319.291 475.092 253.059 475.092 253.059L479.285 250.594Z" fill="white" stroke="#1A1A1A" stroke-width="3.51079" stroke-linecap="round" stroke-linejoin="round"/>
<path d="M137.109 831.534C136.048 829.828 135.781 828.058 136.53 826.288C139.191 819.999 99.2791 808.63 99.2791 808.63C99.2791 808.63 96.3124 812.564 92.8418 818.305C102.597 831.44 119.937 833.747 137.109 831.534Z" fill="#1C0311" stroke="#1A1A1A" stroke-width="1.7554" stroke-linecap="round" stroke-linejoin="round"/>
<path d="M157.091 842.252C147.705 839.819 139.819 835.887 137.109 831.534C119.937 833.747 102.597 831.44 92.8419 818.305C87.121 827.767 80.0296 842.142 82.589 851.928C86.7012 867.65 169.185 869.344 177.409 864.748C185.633 860.152 170.152 845.639 157.091 842.252Z" fill="white" stroke="#1A1A1A" stroke-width="3.51079" stroke-linecap="round" stroke-linejoin="round"/>
<path d="M298.596 482.807C298.596 482.807 251.911 604.718 225.465 646.323C199.018 687.928 94.2003 797.261 95.4903 806.614C96.7804 815.967 111.294 822.095 126.129 826.288C140.965 830.48 146.771 834.028 183.215 797.584C219.659 761.139 359.632 651.806 398.979 548.6C393.819 491.192 298.596 482.807 298.596 482.807Z" fill="white" stroke="#1A1A1A" stroke-width="3.51079" stroke-linecap="round" stroke-linejoin="round"/>
<path d="M401.848 672.606C405.551 673.26 409.254 673.848 412.92 674.205C413.924 672.542 415.087 670.982 416.393 669.544L401.186 647.177C401.186 647.177 395.089 652.311 388.582 659.052C390.515 665.797 395.403 671.532 401.848 672.606Z" fill="#1C0311" stroke="#1A1A1A" stroke-width="1.7554" stroke-linecap="round" stroke-linejoin="round"/>
<path d="M449.776 715.019C447.599 706.795 438.715 690.105 411.591 683.574C409.808 680.799 411.191 677.106 412.923 674.205C409.256 673.848 405.553 673.26 401.85 672.606C395.405 671.532 390.517 665.797 388.584 659.052C381.801 666.08 374.574 674.854 373.339 681.397C370.92 694.217 394.867 713.81 416.879 718.406C438.891 723.001 451.953 723.243 449.776 715.019Z" fill="white" stroke="#1A1A1A" stroke-width="3.51079" stroke-linecap="round" stroke-linejoin="round"/>
<path d="M443.983 555.542C415.455 588.284 395.107 648.903 395.43 649.871C395.43 649.871 406.879 676.962 418.167 672.608C429.455 668.254 468.48 637.615 468.48 637.615C468.48 637.615 562.816 562.469 574.427 512.479C586.038 462.488 564.106 424.109 472.834 438.622C444.775 437.332 378.014 417.013 378.014 417.013L320.928 380.569C320.928 380.569 294.89 425.189 293.192 442.564C293.192 442.564 274.163 556.663 353.825 563.436C433.487 570.209 471.544 543.44 471.544 543.44" fill="white"/>
<path d="M443.983 555.542C415.455 588.284 395.107 648.903 395.43 649.871C395.43 649.871 406.879 676.962 418.167 672.608C429.455 668.254 468.48 637.615 468.48 637.615C468.48 637.615 562.816 562.469 574.427 512.479C586.038 462.488 564.106 424.109 472.834 438.622C444.775 437.332 378.014 417.013 378.014 417.013L320.928 380.569C320.928 380.569 294.89 425.189 293.192 442.564C293.192 442.564 274.163 556.663 353.825 563.436C433.487 570.209 471.544 543.44 471.544 543.44" stroke="#1A1A1A" stroke-width="3.51079" stroke-linecap="round" stroke-linejoin="round"/>
<path d="M293.193 442.563C293.193 442.563 423.712 451.236 452.974 446.207C475.093 442.565 469.207 438.62 469.207 438.62L307.496 426.711L293.193 442.563Z" fill="#1C0311" stroke="#1A1A1A" stroke-width="1.7554" stroke-linecap="round" stroke-linejoin="round"/>
<path d="M480.6 219.386C473.687 215.503 471.029 211.857 470.836 211.582L480.6 219.386Z" fill="white" stroke="#1A1A1A" stroke-width="3.51079" stroke-linecap="round" stroke-linejoin="round"/>
<path d="M532.985 176.817L526.102 197.615C526.102 197.615 504.442 231.727 486.057 222.052C484.192 221.261 482.37 220.371 480.599 219.386L481.216 219.876L472.03 236.078C474.978 241.299 485.366 252.652 486.651 254.055C486.682 254.093 486.717 254.128 486.755 254.159C486.764 254.172 486.774 254.185 486.785 254.196C486.785 254.196 460.9 263.411 445.663 258.332C430.426 253.253 422.199 238.017 422.199 238.017L460.172 195.202L474.206 163.273C474.206 163.273 512.424 164.238 517.986 166.659C523.547 169.08 532.985 176.817 532.985 176.817Z" fill="white" stroke="#1A1A1A" stroke-width="3.51079" stroke-linecap="round" stroke-linejoin="round"/>
<path d="M472.846 213.391C472.846 213.391 478.376 224.888 478.493 224.681C478.611 224.474 480.601 220.47 480.601 220.47L472.846 213.391Z" fill="#1C0311" stroke="#1A1A1A" stroke-width="1.7554" stroke-linecap="round" stroke-linejoin="round"/>
<path d="M305.258 346.71C299.61 342.756 297.27 335.543 296.329 328.712C295.389 321.882 295.456 314.809 293.051 308.346C288.897 297.184 278.255 289.922 271.347 280.219C257.783 261.163 261.376 231.974 279.157 216.777C293.721 204.329 314.419 201.846 333.509 203.466C352.598 205.086 371.325 210.227 390.473 210.844C409.622 211.461 430.311 206.643 442.745 192.067C449.834 183.755 453.586 173.057 460.367 164.49C470.503 151.684 487.468 144.634 503.695 146.483C519.922 148.332 534.865 159.019 541.86 173.777C543.935 178.155 545.362 183.019 544.716 187.821C544.07 192.623 540.99 197.306 536.377 198.785C530.392 200.704 524.198 196.991 519.008 193.447L496.274 177.92C492.015 175.012 487.295 171.974 482.157 172.417C477.165 172.848 472.735 176.989 471.97 181.941C471.205 186.892 474.178 192.178 478.807 194.095C478.807 194.095 443.001 226.406 433.81 231.727C424.618 237.049 319.155 359.928 319.155 359.928L305.258 346.71Z" fill="#1C0311" stroke="#1A1A1A" stroke-width="1.7554" stroke-linecap="round" stroke-linejoin="round"/>
<path d="M508.795 311.067C508.795 379.276 476.384 440.72 476.384 440.72C476.384 440.72 416.395 447.01 403.333 436.362C390.272 425.721 363.504 427.978 351.891 418.949C340.278 409.92 328.672 382.179 328.672 382.179C328.672 382.179 364.469 249.949 422.201 238.016C422.201 238.016 430.428 253.253 445.665 258.332C460.902 263.411 486.787 254.196 486.787 254.196C486.776 254.185 486.766 254.172 486.757 254.159C498.66 265.23 508.795 282.917 508.795 311.067Z" fill="#F9BC69" stroke="#1A1A1A" stroke-width="3.51079" stroke-linecap="round" stroke-linejoin="round"/>
<path d="M217.912 448.839L234.029 322.506L442.417 350.324L419.037 478.654L217.912 448.839Z" fill="white" stroke="#1A1A1A" stroke-width="3.51079" stroke-linecap="round" stroke-linejoin="round"/>
<path d="M237.882 327.515L222.885 445.072L415.428 473.615L437.197 354.123L237.882 327.515Z" fill="white" stroke="#1A1A1A" stroke-width="3.51079" stroke-linecap="round" stroke-linejoin="round"/>
<path d="M407.63 243.722C407.63 243.722 366.663 257.21 330.963 312.428C338.119 325.846 351.553 336.228 366.326 340.093C374.141 332.336 382.702 325.369 391.883 319.291" fill="#F9BC69"/>
<path d="M407.63 243.722C407.63 243.722 366.663 257.21 330.963 312.428C338.119 325.846 351.553 336.228 366.326 340.093C374.141 332.336 382.702 325.369 391.883 319.291" stroke="#1A1A1A" stroke-width="3.51079" stroke-linecap="round" stroke-linejoin="round"/>
<path d="M366.326 340.093C351.553 336.228 338.119 325.846 330.963 312.428C328.282 316.575 325.636 320.959 323.026 325.58C285.775 391.857 277.551 435.397 352.053 485.951C368.985 494.659 393.9 479.236 388.699 469.653C378.784 468.183 366.075 470.577 367.651 466.533C369.227 462.488 384.224 461.642 378.056 454.506C372.371 449.305 362.575 456.683 353.504 455.594C344.433 454.506 325.687 432.736 330.041 404.919C333.248 384.429 345.522 360.792 366.326 340.093Z" fill="white" stroke="#1A1A1A" stroke-width="3.51079" stroke-linecap="round" stroke-linejoin="round"/>
<path d="M473.643 212.909C473.643 212.909 478.827 218.441 480.599 219.386L473.643 212.909Z" fill="#F9BC69"/>
<path d="M473.643 212.909C473.643 212.909 478.827 218.441 480.599 219.386" stroke="#1A1A1A" stroke-width="3.51079" stroke-linecap="round" stroke-linejoin="round"/>
<path d="M1095.14 476.387C1109.17 476.387 1120.55 465.012 1120.55 450.979C1120.55 436.947 1109.17 425.572 1095.14 425.572C1081.11 425.572 1069.73 436.947 1069.73 450.979C1069.73 465.012 1081.11 476.387 1095.14 476.387Z" fill="white" stroke="#1A1A1A" stroke-width="3.51079" stroke-linecap="round" stroke-linejoin="round"/>
<path d="M66.8118 707.421C76.7341 707.421 84.7778 699.377 84.7778 689.455C84.7778 679.532 76.7341 671.489 66.8118 671.489C56.8894 671.489 48.8457 679.532 48.8457 689.455C48.8457 699.377 56.8894 707.421 66.8118 707.421Z" fill="white" stroke="#1A1A1A" stroke-width="3.51079" stroke-linecap="round" stroke-linejoin="round"/>
<path d="M204.515 186.555V169.662H187.087C186.406 167.193 185.422 164.818 184.159 162.591L196.482 150.269L184.534 138.321L172.212 150.643C169.984 149.38 167.609 148.397 165.141 147.716V130.295H148.255V147.716C145.787 148.397 143.412 149.38 141.185 150.643L128.862 138.321L116.915 150.269L129.237 162.591C127.974 164.818 126.991 167.193 126.309 169.662H108.881V186.555H126.309C126.991 189.023 127.974 191.398 129.237 193.626L116.915 205.948L128.862 217.896L141.185 205.574C143.412 206.837 145.787 207.82 148.255 208.501V225.922H165.141V208.501C167.609 207.82 169.984 206.837 172.212 205.574L184.534 217.896L196.482 205.948L184.159 193.626C185.422 191.398 186.406 189.024 187.087 186.555L204.515 186.555ZM171.325 186.555C169.842 189.123 167.709 191.256 165.141 192.739C163.865 193.482 162.494 194.05 161.067 194.429C158.202 195.193 155.187 195.193 152.322 194.429C150.897 194.05 149.529 193.482 148.255 192.739C144.378 190.493 141.545 186.806 140.374 182.481C139.998 181.054 139.808 179.584 139.809 178.108C139.807 176.632 140 175.162 140.382 173.736C140.76 172.308 141.328 170.938 142.071 169.662C143.556 167.095 145.689 164.963 148.255 163.478C149.529 162.735 150.897 162.167 152.322 161.788C155.187 161.024 158.202 161.024 161.067 161.788C162.494 162.166 163.865 162.735 165.141 163.478C167.708 164.963 169.84 167.095 171.325 169.662C172.068 170.938 172.636 172.308 173.014 173.736C173.397 175.162 173.589 176.632 173.588 178.108C173.588 179.584 173.398 181.054 173.022 182.481C172.638 183.908 172.067 185.278 171.325 186.555Z" fill="white" stroke="#1A1A1A" stroke-width="3.51079" stroke-linecap="round" stroke-linejoin="round"/>
<path d="M1139.21 182.71H1074.89V247.038H1139.21V182.71Z" fill="white" stroke="#1A1A1A" stroke-width="3.51079" stroke-linecap="round" stroke-linejoin="round"/>
<path d="M1107.05 193.701V236.047" stroke="#1A1A1A" stroke-width="3.51079" stroke-linecap="round" stroke-linejoin="round"/>
<path d="M1085.95 214.874H1127.62" stroke="#1A1A1A" stroke-width="3.51079" stroke-linecap="round" stroke-linejoin="round"/>
<path d="M364.399 79.4399C370.831 79.4399 376.044 74.2262 376.044 67.7947C376.044 61.3632 370.831 56.1494 364.399 56.1494C357.968 56.1494 352.754 61.3632 352.754 67.7947C352.754 74.2262 357.968 79.4399 364.399 79.4399Z" fill="white" stroke="#1A1A1A" stroke-width="3.51079" stroke-linecap="round" stroke-linejoin="round"/>
<path d="M623.17 59.0908H423.557C420.893 59.0908 418.732 61.2509 418.732 63.9155V71.2047C418.732 73.8693 420.893 76.0294 423.557 76.0294H623.17C625.834 76.0294 627.994 73.8693 627.994 71.2047V63.9155C627.994 61.2509 625.834 59.0908 623.17 59.0908Z" fill="white" stroke="#1A1A1A" stroke-width="3.51079" stroke-linecap="round" stroke-linejoin="round"/>
<path d="M1236.23 317.136H1139.21V380.053H1236.23V317.136Z" fill="white" stroke="#1A1A1A" stroke-width="3.51079" stroke-linecap="round" stroke-linejoin="round"/>
<path d="M1187.73 347.712L1139.21 317.136H1236.24L1187.73 347.712Z" fill="white" stroke="#1A1A1A" stroke-width="3.51079" stroke-linecap="round" stroke-linejoin="round"/>
<path d="M1139.21 380.053L1175.35 339.915" stroke="#1A1A1A" stroke-width="3.51079" stroke-linecap="round" stroke-linejoin="round"/>
<path d="M1201.46 339.915L1236.23 380.053" stroke="#1A1A1A" stroke-width="3.51079" stroke-linecap="round" stroke-linejoin="round"/>
</svg>
