<svg width="275" height="304" viewBox="0 0 275 304" fill="none" xmlns="http://www.w3.org/2000/svg">
<path d="M47.9189 132.558C47.6109 132.121 47.3352 131.662 47.0939 131.185C43.5643 124.22 47.543 114.468 47.7142 114.056C47.8768 113.664 48.3271 113.478 48.7204 113.64C49.1124 113.804 49.2985 114.254 49.136 114.646C49.0963 114.741 45.259 124.163 48.4698 130.493C49.8084 133.137 52.2301 134.898 55.6629 135.733C67.4737 138.61 75.467 129.093 83.1974 119.89C86.3498 116.136 89.3285 112.592 92.4648 110.045C96.2823 106.946 97.0763 107.509 100.195 110.682C103.308 113.849 109.102 119.742 124.102 128.155C124.474 128.363 124.606 128.832 124.397 129.204C124.297 129.382 124.131 129.513 123.934 129.568C123.738 129.624 123.527 129.599 123.349 129.499C108.156 120.977 102.262 114.983 99.0972 111.762C96.2984 108.915 96.2984 108.915 93.435 111.24C90.4129 113.693 87.48 117.185 84.376 120.88C76.7176 129.998 68.0382 140.331 55.2982 137.228C52.0205 136.432 49.5454 134.864 47.9189 132.558V132.558Z" fill="#C77A11"/>
<path d="M110.116 214.771C110.116 214.771 114.053 214.802 114.043 221.061C114.032 227.32 108.748 245.417 103.999 243.931C99.2501 242.443 100.781 229.404 102.054 225.409C103.324 221.416 105.062 215.785 110.116 214.771V214.771Z" fill="black"/>
<path d="M109.505 215.329C110.562 215.317 112.699 216.776 112.876 217.884C113.315 220.63 112.759 223.156 110.864 224.193C109.871 224.737 107.58 223.326 107.147 222.388C104.909 217.539 107.646 215.35 109.505 215.329V215.329Z" fill="#FDAE88"/>
<path d="M104.952 240.406C101.747 239.658 101.464 235.889 102.833 229.553C104.201 223.217 109.447 223.841 110.628 228.082C111.806 232.322 107.521 241.006 104.952 240.406Z" fill="black"/>
<path d="M146.663 164.542C146.663 164.542 111.349 244.203 82.9173 232.963C55.7699 222.231 106.884 160.549 106.884 160.549L146.663 164.542V164.542Z" fill="black"/>
<path d="M181.631 287.031C181.631 287.031 183.794 285.832 185.724 288.918C187.654 292.005 190.364 302.548 187.308 303.28C184.253 304.012 181.056 297.116 180.515 294.757C179.975 292.397 179.183 289.088 181.631 287.031V287.031Z" fill="#2B4C54"/>
<path d="M177.229 284.236C177.229 284.236 182.645 280.071 182.753 280.843C183.305 284.789 184.102 287.629 184.064 290.324C184.053 291.108 181.629 291.145 181.208 290.564C178.401 286.69 177.229 284.236 177.229 284.236Z" fill="#FDCEA3"/>
<path d="M187.213 302.074C185.23 302.693 183.909 300.924 182.697 297.382C181.485 293.838 184.546 292.528 186.502 294.253C188.46 295.977 188.804 301.576 187.213 302.074Z" fill="#395B64"/>
<path opacity="0.2" d="M187.373 297.034C187.244 296.395 187.018 295.902 186.731 295.527C186.524 295.709 186.327 295.901 186.14 296.104C186.492 296.539 186.809 297.148 186.826 297.946C186.863 299.781 186.806 299.838 186.806 299.838C186.806 299.838 187.677 298.537 187.373 297.034V297.034ZM185.97 295.044C185.75 294.951 185.5 295.074 185.451 295.307C185.42 295.455 185.48 295.606 185.604 295.691C185.707 295.76 185.841 295.861 185.985 295.991C186.171 295.79 186.367 295.598 186.572 295.415C186.384 295.26 186.183 295.135 185.97 295.044V295.044Z" fill="white"/>
<path d="M158.908 162.484C158.908 162.484 166.011 201.057 184.145 283.683C184.559 285.567 177.516 288.267 176.597 286.695C153.395 247.027 108.571 161.755 108.571 161.755L158.908 162.484V162.484Z" fill="black"/>
<path opacity="0.25" d="M153.106 243.197C153.067 241.975 152.779 240.906 152.384 239.751C151.542 237.298 150.365 234.429 151.489 231.863C151.911 230.9 152.686 230.336 153.421 229.632C154.05 229.029 154.505 228.198 154.797 227.381C155.254 226.097 155.174 224.724 154.675 223.464C153.454 220.378 150.693 218.004 148.313 215.811C145.943 213.627 143.22 211.45 141.661 208.569C141.048 207.435 140.686 206.119 140.915 204.83C141.035 204.158 141.286 203.516 141.655 202.941C142.241 202.03 143.258 201.711 144.244 201.411C145.394 201.061 146.494 200.736 146.533 199.349C146.565 198.158 146.017 196.969 145.501 195.925C144.621 194.139 143.553 192.456 142.61 190.705C140.885 187.504 138.543 182.711 140.501 179.131C141.63 177.068 144.027 176.153 146.29 176.489C149.124 176.909 151.408 178.674 153.974 179.789C156.804 181.02 159.709 181.592 162.651 181.757C160.07 168.791 158.909 162.485 158.909 162.485L120.655 161.931L106.884 160.549C106.884 160.549 104.874 162.977 101.867 166.943C104.686 171.384 109.008 174.813 114.066 176.334C116.127 176.953 118.238 176.969 120.329 177.398C122.101 177.762 123.674 178.603 124.116 180.489C124.7 182.985 123.544 185.601 121.75 187.293C119.87 189.068 117.637 190.224 115.352 191.36C113.882 192.091 110.969 193.417 111.695 195.532C112.203 197.014 113.796 198.052 114.784 199.2C115.984 200.594 116.63 202.263 116.026 204.079C115.302 206.258 113.515 207.859 111.531 208.899C109.444 209.993 107.108 210.566 104.825 211.09C103.73 211.342 102.629 211.574 101.543 211.862C100.962 212.017 99.446 212.287 99.2327 212.951C99.1359 213.251 99.6756 214.082 99.884 214.459C100.369 215.337 100.812 216.217 101.099 217.183C101.704 219.228 101.427 221.283 100.344 223.115C98.1297 226.86 93.5692 229.072 89.6439 230.524C87.1123 231.46 84.4853 232.114 81.8105 232.473C82.1654 232.646 82.5314 232.812 82.9172 232.965C98.2104 239.011 115.494 218.756 128.203 198.744C135.696 212.762 144.506 229.13 153.094 244.815C153.116 244.274 153.123 243.736 153.106 243.197V243.197Z" fill="black"/>
<path d="M82.2549 57.6606L110.815 82.6369L98.3967 94.7007C98.3967 94.7007 72.1041 70.2393 70.2829 61.3217C68.4616 52.4041 82.2549 57.6606 82.2549 57.6606Z" fill="#FDAE88"/>
<path d="M68.9105 22.4963C66.7171 23.1117 66.1675 23.0757 64.0708 23.9727C64.6762 32.7067 67.6996 71.6388 78.3529 68.1538C90.6016 64.1466 70.7603 32.832 68.9105 22.4963V22.4963Z" fill="#FDAE88"/>
<path d="M61.4679 21.113C61.7012 21.5522 61.9753 21.9479 62.257 22.2953C63.1254 23.366 64.0695 23.9726 64.0695 23.9726L64.3288 27.6312C66.325 27.5357 69.5977 26.4229 69.3509 25.284C69.3509 25.284 68.3708 23.5719 69.0891 21.9455C69.0916 21.9306 69.1015 21.9132 69.1089 21.9008C69.4042 21.613 69.6015 20.9703 69.6858 20.2322C69.7429 19.7235 69.7479 19.1689 69.6995 18.6516C69.5791 17.3874 72.2552 15.163 71.7105 14.5985C71.1634 14.0352 69.2615 14.9061 68.8683 15.8862C68.475 16.8626 67.6028 16.4991 67.3249 15.5339C66.8969 14.0439 66.4155 6.70561 65.3486 6.84084C64.2817 6.97607 64.7854 14.2436 64.7854 14.2436C64.7854 14.2436 62.8314 6.10142 61.8686 6.77384C60.9096 7.44626 62.8996 14.8813 62.8996 14.8813C62.8996 14.8813 60.994 9.08017 59.9085 9.15336C58.8217 9.22284 60.8551 15.9508 60.8551 15.9508C60.8551 15.9508 58.9519 12.0229 57.9818 12.1582C57.0104 12.2946 60.5201 19.3153 61.4679 21.113V21.113Z" fill="#FDAE88"/>
<path opacity="0.1" d="M68.1226 23.1091C67.6561 23.6587 66.9428 23.9304 66.243 24.0271C65.5495 24.1227 64.799 24.0544 64.1737 23.7207C63.9888 23.6215 63.8288 23.4974 63.6812 23.3584C63.7841 23.4093 63.8859 23.4552 63.9876 23.49C65.2307 23.918 66.2505 22.882 66.2505 22.882C66.5408 22.9813 67.7082 22.7071 68.6151 22.2307C68.4762 22.5371 68.3434 22.8498 68.1226 23.1091V23.1091Z" fill="#231F20"/>
<path opacity="0.2" d="M61.4679 21.113C61.7012 21.5522 61.9753 21.948 62.257 22.2953C62.7507 22.7705 63.3872 23.2841 63.9876 23.4888C65.2307 23.9168 66.2505 22.8809 66.2505 22.8809C66.5954 23 68.176 22.5918 69.0891 21.9442C69.0916 21.9293 69.1015 21.912 69.1089 21.8996C69.4042 21.6117 69.6015 20.9691 69.6858 20.2309C69.7429 19.7223 69.7479 19.1677 69.6995 18.6504C69.5791 17.3862 72.2552 15.1617 71.7105 14.5972C71.1634 14.034 69.2615 14.9049 68.8683 15.885C68.475 16.8614 67.6028 16.4979 67.3249 15.5327C66.8969 14.0427 66.4155 6.70439 65.3486 6.83961C64.2817 6.97484 64.7854 14.2424 64.7854 14.2424C64.7854 14.2424 62.8314 6.1002 61.8686 6.77262C60.9096 7.44504 62.8996 14.8801 62.8996 14.8801C62.8996 14.8801 60.994 9.07894 59.9085 9.15214C58.8217 9.22162 60.8551 15.9495 60.8551 15.9495C60.8551 15.9495 58.9519 12.0217 57.9818 12.1569C57.0104 12.2946 60.5201 19.3153 61.4679 21.113V21.113Z" fill="white"/>
<path d="M60.4893 16.4247C60.849 16.158 61.2113 15.8999 61.5872 15.663C61.9619 15.4285 62.3452 15.2015 62.7559 15.0514C63.1665 14.8926 63.5958 14.7685 64.0238 14.6556C64.4531 14.5452 64.8885 14.4521 65.3339 14.4062C64.8848 14.3827 64.4357 14.4435 63.9953 14.5291C63.5536 14.6159 63.1231 14.7437 62.6963 14.8926C62.2708 15.06 61.8812 15.2933 61.514 15.5526C61.148 15.8168 60.8019 16.1034 60.4893 16.4247Z" fill="#FA9C70"/>
<path d="M190.939 113.901L157.094 96.7527L150.551 112.782C150.551 112.782 180.686 128.875 189.637 127.23C198.587 125.585 190.939 113.901 190.939 113.901Z" fill="#FDAE88"/>
<path d="M219.115 93.5779C220.564 95.3346 221.035 95.6187 222.245 97.5541C216.761 104.379 192.049 134.614 185.293 125.67C177.524 115.386 211.694 101.007 219.115 93.5779V93.5779Z" fill="#FDAE88"/>
<path d="M226.014 96.6918C225.571 96.9189 225.12 97.0876 224.69 97.2116C223.366 97.595 222.243 97.5541 222.243 97.5541L219.941 100.409C218.356 99.1904 216.304 96.409 217.158 95.6137C217.158 95.6137 218.939 94.7676 219.279 93.0233C219.286 93.0096 219.288 92.9898 219.289 92.9749C219.211 92.5692 219.416 91.9303 219.768 91.2765C220.021 90.8124 220.32 90.3751 220.66 89.9714C221.482 89.0024 220.555 85.6478 221.324 85.4952C222.096 85.3451 223.159 87.1464 222.922 88.1749C222.687 89.2022 223.61 89.4007 224.39 88.7667C225.592 87.7878 230.177 82.0388 230.976 82.7596C231.775 83.4804 227.212 89.1587 227.212 89.1587C227.212 89.1587 233.465 83.5896 233.872 84.6925C234.276 85.7917 228.397 90.7604 228.397 90.7604C228.397 90.7604 233.274 87.0869 234.123 87.7655C234.976 88.4429 229.465 92.8049 229.465 92.8049C229.465 92.8049 233.27 90.6661 233.99 91.3323C234.708 91.9973 227.819 95.7576 226.014 96.6918V96.6918Z" fill="#FDAE88"/>
<path opacity="0.1" d="M219.41 94.5307C219.479 95.2478 219.91 95.878 220.428 96.3569C220.943 96.8321 221.598 97.2043 222.302 97.2874C222.51 97.3122 222.712 97.301 222.913 97.2713C222.8 97.2539 222.69 97.2328 222.587 97.2043C221.321 96.8457 221.076 95.4141 221.076 95.4141C220.781 95.3297 219.979 94.4389 219.506 93.5295C219.446 93.8595 219.377 94.1908 219.41 94.5307V94.5307Z" fill="#231F20"/>
<path opacity="0.2" d="M226.013 96.6918C225.571 96.9189 225.12 97.0876 224.69 97.2117C224.014 97.3208 223.197 97.3779 222.587 97.203C221.321 96.8444 221.076 95.4128 221.076 95.4128C220.725 95.3135 219.66 94.0754 219.281 93.0221C219.287 93.0084 219.289 92.9886 219.29 92.9737C219.212 92.568 219.417 91.9291 219.769 91.2753C220.022 90.8112 220.321 90.3739 220.661 89.9701C221.483 89.0012 220.556 85.6465 221.325 85.494C222.097 85.3438 223.16 87.1452 222.923 88.1737C222.689 89.2009 223.612 89.3994 224.391 88.7655C225.593 87.7866 230.178 82.0376 230.977 82.7584C231.776 83.4792 227.213 89.1575 227.213 89.1575C227.213 89.1575 233.466 83.5884 233.873 84.6913C234.277 85.7905 228.398 90.7592 228.398 90.7592C228.398 90.7592 233.275 87.0857 234.125 87.7643C234.977 88.4417 229.466 92.8037 229.466 92.8037C229.466 92.8037 233.271 90.6649 233.991 91.3311C234.708 91.9973 227.819 95.7577 226.013 96.6918V96.6918Z" fill="white"/>
<path d="M229.493 93.4018C229.349 92.9775 229.199 92.5582 229.027 92.15C228.853 91.7431 228.667 91.3387 228.416 90.9814C228.17 90.6166 227.888 90.2693 227.601 89.9318C227.312 89.5956 227.008 89.2706 226.668 88.979C227.051 89.216 227.384 89.5224 227.697 89.845C228.011 90.1688 228.29 90.5186 228.557 90.8846C228.811 91.2655 228.997 91.6798 229.151 92.1017C229.3 92.526 229.42 92.9589 229.493 93.4018V93.4018Z" fill="#FA9C70"/>
<path d="M179.912 106.514C151.933 83.5722 152.989 92.2244 134.989 87.278C134.989 87.278 116.373 86.1714 104.063 75.4114C99.466 71.393 94.2231 94.0022 94.2231 94.0022C94.2231 94.0022 101.951 105.637 110.829 111.329C107.678 134.231 95.4662 162.871 101.867 166.944C108.984 171.472 152.08 172.583 159.196 167.491C163.688 164.275 160.982 137.563 158.024 121.317C159.666 121.528 164.806 124.59 172.267 126.219C179.534 122.725 179.912 106.514 179.912 106.514V106.514Z" fill="#FFA020"/>
<path opacity="0.1" d="M160.006 137.937C159.81 141.426 159.418 144.904 158.609 148.338C157.327 153.778 154.867 159.485 149.997 163.428C144.498 167.879 137.098 168.267 129.916 168.962C122.516 169.677 105.025 168.219 106.147 168.491C111.979 169.906 144.024 173.653 159.196 167.489C163.364 165.796 162.034 151.562 160.006 137.937V137.937Z" fill="#231F20"/>
<path d="M150.205 178.51C150.205 178.51 157.132 183.837 161.038 184.429V186.323C161.038 186.323 153.933 184.193 150.205 180.049V178.51ZM105.237 171.757C103.411 174.833 98.4364 177.324 98.4364 177.324L98.4302 178.906C102.45 177.775 106.442 172.712 106.442 172.712L105.237 171.757V171.757Z" fill="#2B4C54"/>
<path d="M235.346 104.956L264.381 109.322L260.61 118.726L235.346 104.956Z" fill="#FFBE55"/>
<path d="M100.436 29.5789L88.9344 3.60141L99.878 1.604L100.436 29.5789ZM222.993 57.6319L238.682 33.9459L246.261 42.0893L222.993 57.6319ZM62.5996 91.2194L37.5564 104.637L34.7451 93.8731L62.5996 91.2194Z" fill="#D97E02"/>
<path d="M122.476 2.90183C122.476 4.50471 121.177 5.80365 119.574 5.80365C117.971 5.80365 116.672 4.50471 116.672 2.90183C116.672 1.29894 117.971 0 119.574 0C121.177 0.00124063 122.476 1.30018 122.476 2.90183Z" fill="#FFBE55"/>
<path d="M202.686 37.7002C202.686 39.3031 201.387 40.602 199.784 40.602C198.181 40.602 196.882 39.3031 196.882 37.7002C196.882 36.0973 198.181 34.7983 199.784 34.7983C201.387 34.7983 202.686 36.0973 202.686 37.7002Z" fill="#D97E02"/>
<path d="M199.786 76.9077C199.786 78.5106 198.487 79.8095 196.884 79.8095C195.281 79.8095 193.982 78.5106 193.982 76.9077C193.982 75.3048 195.281 74.0059 196.884 74.0059C198.487 74.0071 199.786 75.306 199.786 76.9077Z" fill="#FFBE55"/>
<path d="M146.387 18.226C146.387 19.8289 145.088 21.1279 143.485 21.1279C141.882 21.1279 140.583 19.8289 140.583 18.226C140.583 16.6232 141.882 15.3242 143.485 15.3242C145.088 15.3242 146.387 16.6232 146.387 18.226Z" fill="#D97E02"/>
<path d="M98.3967 43.2347C98.3967 44.3872 97.4625 45.3227 96.3087 45.3227C95.1561 45.3227 94.2207 44.3885 94.2207 43.2347C94.2207 42.0822 95.1549 41.1467 96.3087 41.1467C97.4625 41.1467 98.3967 42.0809 98.3967 43.2347Z" fill="#FFBE55"/>
<path d="M199.069 138.418C198.076 138.418 196.949 137.687 195.318 136.572C195.245 136.522 195.195 136.445 195.179 136.359C195.163 136.272 195.181 136.183 195.231 136.11C195.281 136.038 195.357 135.988 195.444 135.972C195.53 135.956 195.62 135.974 195.692 136.023C197.591 137.32 198.573 137.907 199.363 137.718C200.461 137.453 201.513 135.517 203.608 131.66L204.542 129.944C206.27 126.783 208.071 125.206 209.847 125.215C212.087 125.244 213.417 127.779 213.473 127.887C213.493 127.926 213.505 127.968 213.509 128.012C213.513 128.055 213.508 128.099 213.494 128.14C213.481 128.182 213.46 128.22 213.432 128.253C213.404 128.287 213.369 128.314 213.33 128.334C213.168 128.417 212.968 128.354 212.883 128.191C212.871 128.169 211.678 125.901 209.836 125.88C208.306 125.865 206.702 127.379 205.124 130.263L204.191 131.978C201.866 136.258 200.904 138.029 199.519 138.364C199.372 138.4 199.223 138.418 199.069 138.418V138.418ZM76.7152 234.378H76.6954C74.0479 234.224 71.919 233.229 70.3669 231.419C66.9155 227.397 67.4961 220.818 67.5222 220.54C67.5395 220.357 67.7157 220.225 67.8844 220.241C68.0668 220.258 68.2008 220.421 68.1834 220.602C68.1772 220.668 67.6053 227.182 70.8719 230.988C72.3023 232.654 74.2749 233.571 76.7338 233.715C76.9162 233.726 77.0564 233.883 77.0452 234.066C77.0403 234.15 77.0034 234.23 76.9421 234.288C76.8807 234.345 76.7996 234.378 76.7152 234.378V234.378ZM73.1683 81.5053C73.1165 81.5053 73.0655 81.4932 73.0193 81.47C72.9731 81.4469 72.9329 81.4132 72.9019 81.3718C72.8709 81.3304 72.8501 81.2823 72.841 81.2313C72.8319 81.1804 72.8348 81.1281 72.8494 81.0785C73.502 78.8752 73.7625 77.7598 73.337 77.0638C72.7477 76.0999 70.584 75.6929 66.2716 74.8828L64.3499 74.5193C60.8116 73.8432 58.7497 72.6323 58.2224 70.919C57.5624 68.7777 59.5673 66.7344 59.6541 66.6488C59.6849 66.618 59.7214 66.5935 59.7617 66.5768C59.8019 66.5601 59.845 66.5515 59.8886 66.5515C59.9322 66.5515 59.9753 66.5601 60.0155 66.5768C60.0558 66.5935 60.0923 66.618 60.1231 66.6488C60.154 66.6795 60.1786 66.716 60.1954 66.7561C60.2122 66.7963 60.2209 66.8394 60.221 66.883C60.2211 66.9266 60.2126 66.9697 60.196 67.01C60.1794 67.0503 60.1551 67.0869 60.1243 67.1177C60.1057 67.1363 58.3143 68.9675 58.8576 70.7267C59.3018 72.1634 61.2446 73.2502 64.474 73.8667L66.3932 74.2302C71.1795 75.1297 73.1608 75.5031 73.9027 76.7177C74.4982 77.6916 74.131 79.0811 73.4846 81.2671C73.465 81.3358 73.4235 81.3963 73.3664 81.4393C73.3093 81.4822 73.2397 81.5054 73.1683 81.5053V81.5053Z" fill="#C77A11"/>
<path d="M182.098 179.139C159.234 179.14 139.949 168.785 124.813 160.659C114.272 154.999 103.37 149.148 99.3183 151.886C48.7826 186.005 1.96887 170.432 0 169.752L7.58767 147.778L3.79383 158.765L7.52812 147.757C7.62364 147.79 17.2497 150.933 31.7625 150.591C50.9674 150.134 69.32 144.088 86.3091 132.618C101.998 122.025 119.187 131.252 135.809 140.176C154.249 150.076 175.15 161.299 199.574 152.898C218.808 146.283 228.804 141.219 235.419 137.867C249.373 130.797 254.284 129.698 274.6 134.138L269.638 156.85C255.491 153.759 255.492 153.758 245.926 158.605C238.741 162.245 227.886 167.746 207.135 174.882C198.379 177.895 190.022 179.139 182.098 179.139V179.139Z" fill="#FFBE55"/>
<path opacity="0.2" d="M265.184 144.023C259.536 145.942 254.014 145.487 248.177 145.059C242.661 144.655 235.786 143.913 230.956 147.235C228.362 149.02 227.446 151.478 226.465 154.355C225.541 157.065 224.449 159.357 222.371 161.374C217.803 165.806 211.07 165.661 205.335 167.992C142.753 193.429 134.037 148.998 97.0132 149.369C91.088 149.428 86.4853 142.902 86.1193 144.982C85.7198 147.26 85.3724 149.558 84.5524 151.734C83.3874 154.829 81.2784 156.986 78.0949 157.96C76.0851 158.576 73.9686 158.783 71.8806 158.932C68.9552 159.139 65.9703 159.339 63.0424 159.134C56.0875 158.645 49.3211 156.423 42.3252 156.37C38.9271 156.344 35.8764 157.073 33.2364 159.298C31.2179 160.999 29.6547 163.178 27.5803 164.815C23.6625 167.905 17.9816 168.664 13.1444 168.275C9.14217 167.952 5.24785 166.823 1.56195 165.232L0 169.754C1.96887 170.434 48.7814 186.006 99.3183 151.887C103.37 149.149 114.272 155.001 124.813 160.66C139.949 168.786 159.234 179.141 182.098 179.14C190.022 179.14 198.379 177.896 207.137 174.884C227.888 167.748 238.744 162.247 245.928 158.607C255.494 153.76 255.493 153.761 269.64 156.851L273.414 139.575C270.94 141.493 268.158 143.013 265.184 144.023V144.023Z" fill="#FFBE55"/>
<path d="M147.387 66.1936C147.387 66.1936 150.295 64.9901 149.334 60.9606C149.334 60.9606 151.955 58.9545 150.236 55.1967C148.516 51.4376 144.613 53.3891 144.613 53.3891C144.613 53.3891 142.462 47.6785 138.442 47.4613C134.422 47.2442 135.723 49.4091 135.723 49.4091C135.723 49.4091 128.921 45.7257 125.635 48.6896C122.35 51.6534 126.076 55.7735 126.076 55.7735C126.076 55.7735 124.189 56.8653 123.853 59.5326C123.314 63.7967 125.875 64.3934 125.875 64.3934C125.875 64.3934 125.499 68.7195 127.7 69.6636C129.901 70.6077 147.765 78.7735 147.387 66.1936Z" fill="black"/>
<path d="M141.827 89.0348C141.827 89.0348 138.993 92.2815 136.367 92.2815C133.739 92.2815 130.552 89.6836 130.552 89.6836C130.552 89.6836 132.073 86.3873 132.155 84.4134C132.204 83.1021 132.247 81.9558 132.247 81.761H140.545L140.579 85.1479L141.827 89.0348V89.0348Z" fill="#FDAE88"/>
<path opacity="0.1" d="M140.579 85.1491C139.273 86.2384 137.859 86.9443 136.77 86.9443C135.449 86.9443 133.659 85.9084 132.154 84.4134C132.202 83.1021 132.246 81.9558 132.246 81.761H140.544L140.579 85.1491Z" fill="#513F3C"/>
<path d="M149.927 68.7506C149.045 67.0311 147.445 67.5236 146.538 67.9925C146.498 64.3104 146.062 61.5016 146.062 61.5016C146.031 61.3043 145.969 61.117 145.875 60.9396C144.044 57.6308 130.666 57.5068 127.951 60.555C127.69 60.8354 127.535 61.1579 127.483 61.5016C127.483 61.5016 127.075 64.3253 127.066 68.0211C126.169 67.5434 124.523 66.9976 123.625 68.7506C122.37 71.1971 125.19 74.8383 127.572 74.7378C128.495 80.142 130.928 85.1467 136.774 85.1467C142.733 85.1467 145.175 80.1445 146.075 74.7416C148.435 74.7465 151.165 71.1648 149.927 68.7506V68.7506Z" fill="#FDAE88"/>
<path d="M136.91 82.5885C135.88 82.5885 135.279 81.9893 135.269 81.9806C135.226 81.9338 135.203 81.872 135.205 81.8085C135.207 81.745 135.233 81.6846 135.279 81.6401C135.324 81.5957 135.385 81.5706 135.449 81.5703C135.512 81.5699 135.573 81.5943 135.619 81.6382C135.663 81.6816 136.699 82.6878 138.453 81.6022C138.568 81.5315 138.718 81.5663 138.789 81.6816C138.86 81.7958 138.825 81.9471 138.71 82.0178C138.02 82.4446 137.413 82.5885 136.91 82.5885V82.5885Z" fill="#FA9C70"/>
<path opacity="0.1" d="M127.838 62.3155C128.572 62.1257 129.199 61.6493 129.86 61.2982C130.668 60.8689 131.56 60.5067 132.477 60.4124C132.898 60.3689 133.335 60.3863 133.738 60.5302C134.155 60.6791 134.483 60.9756 134.824 61.2473C134.993 61.3825 135.17 61.5078 135.369 61.5947C135.609 61.7001 135.859 61.7374 136.119 61.7473C136.672 61.7671 137.226 61.6666 137.758 61.5215C138.28 61.3788 138.804 61.1952 139.291 60.962C139.759 60.7374 140.255 60.5588 140.771 60.4843C141.278 60.4124 141.831 60.4297 142.319 60.5935C142.724 60.73 143.057 61.0041 143.39 61.2622C143.774 61.5575 144.172 61.7857 144.655 61.8701C145.139 61.9557 145.629 61.9135 146.116 61.8862C146.083 61.6356 146.062 61.4992 146.062 61.4992C146.031 61.3019 145.968 61.1146 145.874 60.9372C144.043 57.6284 130.665 57.5043 127.95 60.5526C127.689 60.8329 127.534 61.1555 127.482 61.4992C127.482 61.4992 127.436 61.8143 127.376 62.3688C127.53 62.3788 127.688 62.3552 127.838 62.3155V62.3155Z" fill="#FA9C70"/>
<path d="M136.317 74.4611C135.992 73.7279 136.47 72.8942 136.491 72.8582C136.537 72.7799 136.612 72.723 136.7 72.7C136.788 72.677 136.881 72.6897 136.96 72.7354C137.125 72.8297 137.18 73.0393 137.085 73.2043C136.992 73.3656 136.8 73.8569 136.954 74.2018C137.075 74.4512 137.388 74.6137 137.885 74.6869C137.93 74.6934 137.973 74.7087 138.012 74.7318C138.051 74.7549 138.084 74.7854 138.111 74.8216C138.138 74.8577 138.158 74.8989 138.169 74.9426C138.18 74.9863 138.182 75.0318 138.176 75.0765C138.169 75.1211 138.154 75.164 138.131 75.2028C138.108 75.2415 138.077 75.2753 138.041 75.3023C138.005 75.3292 137.964 75.3488 137.92 75.3599C137.876 75.3709 137.831 75.3733 137.786 75.3668C137.048 75.2588 136.559 74.9673 136.333 74.4983C136.329 74.4847 136.322 74.4723 136.317 74.4611ZM135.289 79.5167C135.329 80.0588 136.026 80.4508 136.846 80.3901C137.666 80.3305 138.3 79.8417 138.26 79.2995C138.22 78.7574 137.523 78.3666 136.703 78.4261C135.883 78.4857 135.249 78.9745 135.289 79.5167ZM149.196 70.8782C149.263 70.8782 149.327 70.8385 149.353 70.7727C149.923 69.3137 148.463 68.4515 148.448 68.4428C148.429 68.4317 148.408 68.4245 148.387 68.4215C148.365 68.4186 148.343 68.42 148.321 68.4256C148.3 68.4313 148.28 68.4411 148.263 68.4545C148.245 68.4679 148.231 68.4846 148.22 68.5036C148.174 68.583 148.201 68.686 148.281 68.7319C148.332 68.7617 149.506 69.4614 149.041 70.6499C149.008 70.7355 149.05 70.8335 149.136 70.867C149.155 70.8745 149.175 70.8782 149.196 70.8782V70.8782ZM143.261 68.8299C143.283 68.7244 143.24 68.6116 143.145 68.5495C141.029 67.1687 139.187 69.1897 139.168 69.2108C139.068 69.3224 139.08 69.4924 139.189 69.5916C139.3 69.6909 139.47 69.681 139.57 69.5706C139.634 69.5011 141.126 67.8759 142.849 69.0011C142.975 69.083 143.141 69.047 143.223 68.9229C143.241 68.8932 143.254 68.8622 143.261 68.8299V68.8299ZM134.692 68.4267C134.714 68.3212 134.671 68.2084 134.576 68.1463C132.46 66.7655 130.618 68.7865 130.599 68.8076C130.499 68.9192 130.511 69.0892 130.62 69.1884C130.731 69.2877 130.901 69.2778 131.001 69.1674C131.065 69.0979 132.557 67.4727 134.28 68.5979C134.317 68.6219 134.359 68.6366 134.403 68.6407C134.447 68.6447 134.491 68.638 134.531 68.6211C134.572 68.6043 134.608 68.5777 134.636 68.5438C134.664 68.51 134.683 68.4697 134.692 68.4267V68.4267ZM130.396 66.5695C130.396 66.5695 134.243 66.9516 134.683 66.634C135.124 66.3152 134.048 65.3425 132.301 65.515C130.555 65.6874 129.962 66.4913 130.396 66.5695ZM143.349 66.5695C143.349 66.5695 139.502 66.9516 139.062 66.634C138.621 66.3152 139.697 65.3425 141.444 65.515C143.19 65.6874 143.783 66.4913 143.349 66.5695ZM124.141 70.8931C124.074 70.8931 124.01 70.8534 123.984 70.7876C123.414 69.3286 124.874 68.4664 124.889 68.4577C124.908 68.4466 124.929 68.4394 124.95 68.4364C124.972 68.4335 124.994 68.4349 125.016 68.4405C125.037 68.4462 125.057 68.456 125.074 68.4694C125.091 68.4827 125.106 68.4995 125.117 68.5185C125.163 68.5979 125.136 68.7009 125.056 68.7468C125.007 68.7766 123.83 69.4763 124.296 70.6648C124.329 70.7504 124.287 70.8484 124.201 70.8819C124.18 70.8893 124.16 70.8931 124.141 70.8931V70.8931Z" fill="#2B4C54"/>
<path d="M176.613 148.205C176.602 148.214 176.591 148.221 176.58 148.23C173.911 150.143 169.778 149.37 163.255 147.949C163.156 147.928 163.063 147.887 162.98 147.83C162.897 147.772 162.826 147.699 162.771 147.614C162.717 147.529 162.679 147.434 162.662 147.334C162.644 147.235 162.646 147.133 162.667 147.034C162.688 146.935 162.729 146.841 162.787 146.758C162.844 146.675 162.918 146.604 163.003 146.549C163.088 146.495 163.184 146.457 163.283 146.44C163.383 146.422 163.485 146.424 163.584 146.446C170.28 147.904 173.657 148.432 175.683 146.979C175.69 146.974 175.697 146.968 175.705 146.963C178.475 144.945 179.208 138.449 180.666 125.541C180.867 123.758 181.083 121.849 181.321 119.805C182.231 111.966 185.305 106.596 190.455 103.851C201.712 97.8468 218.71 106.457 219.428 106.826C219.807 107.021 219.954 107.485 219.761 107.864C219.565 108.242 219.102 108.391 218.724 108.196C218.555 108.11 201.72 99.5849 191.177 105.212C186.501 107.707 183.698 112.678 182.851 119.982C182.614 122.025 182.398 123.933 182.197 125.715C180.641 139.478 179.928 145.788 176.613 148.205V148.205Z" fill="#C77A11"/>
</svg>
