<svg width="1087" height="1036" viewBox="0 0 1087 1036" fill="none" xmlns="http://www.w3.org/2000/svg">
<path d="M177.503 10.1479V49.2949H1085.46V10.1479C1085.46 7.75566 1084.43 5.4614 1082.59 3.76982C1080.75 2.07825 1078.26 1.12793 1075.66 1.12793H187.308C184.708 1.12793 182.214 2.07825 180.375 3.76982C178.536 5.4614 177.503 7.75566 177.503 10.1479Z" fill="#FFD6BA"/>
<path d="M207.947 495.967C207.947 495.967 185.885 526.004 200.887 570.653C200.887 570.653 178.825 707.035 168.236 736.259C157.646 765.484 96.4619 924.597 96.4619 924.597L207.947 951.657L282.515 723.812L275.308 951.657H388.852C388.852 951.657 391.793 608.127 363.555 535.27L336.089 507.084L332.081 510.58L317.617 495.967H207.947Z" fill="#A6C1BF"/>
<path d="M302.373 231.727C302.373 231.727 339.878 232.944 330.612 252.428C321.346 271.911 297.078 259.328 297.078 259.328C297.078 259.328 301.932 293.423 281.635 279.217C261.339 265.01 267.075 300.324 285.165 298.7C285.165 298.7 302.373 331.984 290.019 344.161C277.664 356.338 259.574 345.784 255.161 333.201C255.161 333.201 229.57 339.696 228.687 312.907C227.805 286.117 217.657 283.276 232.217 273.534C246.778 263.793 257.367 217.52 302.373 231.727Z" fill="black"/>
<path d="M324.125 346.913C313.26 346.913 294.017 338.857 293.203 338.516C292.907 338.391 292.677 338.164 292.564 337.884C292.45 337.603 292.462 337.293 292.597 337.021C292.733 336.748 292.98 336.537 293.285 336.432C293.589 336.328 293.927 336.339 294.223 336.463C294.418 336.547 313.795 344.658 324.125 344.658C325.417 344.658 325.724 344.433 325.727 344.431C325.666 343.114 318.63 337.838 310.254 333.026C302.802 330.967 306.322 317.668 306.478 317.098C306.541 316.862 306.686 316.652 306.89 316.498C307.094 316.345 307.347 316.256 307.61 316.246C321.22 315.671 330.699 311.443 335.783 303.676C348.271 284.603 330.816 250.069 330.639 249.723C330.501 249.453 330.485 249.143 330.595 248.862C330.705 248.581 330.931 248.352 331.225 248.224C331.518 248.097 331.854 248.081 332.16 248.181C332.466 248.281 332.716 248.489 332.856 248.759C333.605 250.219 351.048 284.726 337.885 304.836C332.472 313.108 322.64 317.686 308.654 318.452C307.792 322.207 306.932 329.879 311.072 330.894C311.189 330.924 311.3 330.968 311.403 331.026C318.062 334.84 329.075 341.749 328.014 345.16C327.47 346.913 324.952 346.913 324.125 346.913Z" fill="black"/>
<path d="M332.084 511.708H332.039C331.876 511.702 331.716 511.666 331.568 511.603C331.421 511.54 331.288 511.451 331.178 511.34L317.078 497.094H192.948C192.768 497.094 192.589 497.058 192.425 496.987C192.262 496.916 192.117 496.812 192.002 496.684C191.887 496.555 191.804 496.405 191.76 496.244C191.716 496.083 191.711 495.914 191.745 495.751C211.855 400.843 255.883 337.688 256.325 337.06C256.413 336.936 256.526 336.829 256.659 336.745C256.792 336.661 256.941 336.602 257.099 336.571C257.256 336.54 257.419 336.538 257.577 336.565C257.735 336.592 257.886 336.648 258.021 336.729C258.156 336.809 258.273 336.914 258.364 337.036C258.455 337.158 258.519 337.295 258.553 337.44C258.586 337.585 258.588 337.734 258.559 337.88C258.53 338.026 258.469 338.165 258.382 338.289C257.943 338.91 214.579 401.136 194.439 494.839H317.621C317.791 494.839 317.96 494.872 318.116 494.935C318.272 494.999 318.412 495.091 318.527 495.207L332.149 508.97L387.161 460.986L353.072 424.866C352.919 424.703 352.819 424.503 352.785 424.29C352.751 424.076 352.784 423.858 352.881 423.662C352.962 423.496 360.918 406.967 353.806 395.034C346.41 382.627 327.125 354.712 326.932 354.433C326.823 354.276 326.759 354.096 326.744 353.911C326.729 353.725 326.764 353.539 326.847 353.369C326.929 353.199 327.055 353.05 327.215 352.936C327.375 352.822 327.563 352.746 327.762 352.715L372.099 345.851L314.408 335.426C314.25 335.398 314.1 335.341 313.966 335.259C313.832 335.177 313.717 335.072 313.628 334.949C313.538 334.826 313.475 334.688 313.444 334.543C313.412 334.398 313.411 334.249 313.442 334.104C313.473 333.959 313.535 333.82 313.624 333.697C313.713 333.574 313.828 333.468 313.961 333.386C314.094 333.303 314.244 333.246 314.402 333.216C314.56 333.187 314.722 333.187 314.88 333.215L379.166 344.831C379.448 344.882 379.701 345.022 379.882 345.227C380.063 345.432 380.16 345.689 380.156 345.953C380.152 346.217 380.048 346.471 379.861 346.671C379.674 346.872 379.417 347.005 379.134 347.049L329.989 354.657C334.047 360.557 349.493 383.109 355.956 393.95C362.899 405.6 356.932 420.552 355.425 423.919L389.781 460.321C389.988 460.54 390.095 460.825 390.08 461.115C390.064 461.406 389.928 461.679 389.699 461.88L332.928 511.399C332.7 511.597 332.398 511.708 332.084 511.708Z" fill="black"/>
<path d="M317.619 497.094C317.419 497.095 317.222 497.05 317.045 496.964C316.868 496.878 316.716 496.753 316.604 496.601C307.83 484.68 299.817 472.299 292.608 459.521C282.46 440.241 281.333 388.973 281.29 386.8C281.285 386.501 281.408 386.212 281.634 385.997C281.859 385.782 282.168 385.658 282.493 385.653H282.516C282.837 385.653 283.146 385.769 283.375 385.976C283.604 386.183 283.736 386.465 283.742 386.76C283.752 387.287 284.9 439.702 294.815 458.539C301.971 471.219 309.923 483.504 318.632 495.333C318.757 495.502 318.829 495.7 318.841 495.904C318.853 496.109 318.805 496.312 318.701 496.493C318.597 496.674 318.441 496.826 318.251 496.932C318.06 497.038 317.842 497.094 317.619 497.094V497.094Z" fill="black"/>
<path d="M353.999 425.254C353.769 425.254 353.545 425.195 353.35 425.084C353.156 424.972 352.999 424.813 352.897 424.624L328.188 378.348C328.117 378.215 328.075 378.07 328.064 377.922C328.054 377.775 328.075 377.626 328.127 377.486C328.178 377.345 328.26 377.216 328.366 377.104C328.473 376.993 328.602 376.902 328.746 376.837C328.891 376.771 329.048 376.733 329.209 376.723C329.37 376.714 329.531 376.733 329.684 376.781C329.836 376.829 329.977 376.904 330.098 377.002C330.219 377.1 330.317 377.219 330.388 377.352L355.097 423.628C355.19 423.8 355.233 423.991 355.222 424.182C355.212 424.373 355.149 424.559 355.039 424.722C354.929 424.885 354.776 425.019 354.594 425.112C354.412 425.205 354.207 425.254 353.999 425.254V425.254Z" fill="black"/>
<path d="M329.288 497.094C329.046 497.095 328.809 497.029 328.608 496.906C328.406 496.782 328.249 496.607 328.156 496.402C328.063 496.196 328.038 495.97 328.084 495.752C328.131 495.533 328.246 495.332 328.417 495.174L373.423 453.366C373.536 453.259 373.67 453.173 373.819 453.114C373.968 453.054 374.129 453.023 374.291 453.021C374.453 453.019 374.615 453.047 374.765 453.103C374.916 453.159 375.053 453.242 375.168 453.347C375.283 453.452 375.375 453.577 375.438 453.715C375.5 453.852 375.532 454 375.532 454.15C375.532 454.299 375.499 454.447 375.436 454.585C375.373 454.722 375.282 454.847 375.166 454.952L330.159 496.76C330.045 496.866 329.91 496.95 329.76 497.007C329.61 497.065 329.45 497.094 329.288 497.094Z" fill="black"/>
<path d="M282.517 723.818L268.839 599.071L266.219 773.617L282.517 723.818Z" fill="black"/>
<path d="M406.744 589.95C402.21 589.95 397.407 587.84 392.439 583.663C381.589 574.49 373.938 562.564 370.451 549.393C369.198 544.399 362.629 536.017 362.564 535.931C362.469 535.812 362.402 535.676 362.364 535.532C362.327 535.388 362.321 535.239 362.346 535.092C362.372 534.946 362.428 534.806 362.513 534.68C362.597 534.554 362.707 534.445 362.838 534.358C362.968 534.271 363.116 534.209 363.272 534.175C363.429 534.14 363.591 534.135 363.75 534.158C363.909 534.182 364.061 534.233 364.198 534.311C364.335 534.389 364.454 534.49 364.548 534.61C364.831 534.967 371.476 543.449 372.84 548.887C376.211 561.613 383.607 573.136 394.093 581.998C399.134 586.237 403.872 588.133 408.142 587.611C409.726 587.369 411.241 586.84 412.6 586.055C413.959 585.269 415.135 584.243 416.059 583.035C416.206 582.825 416.424 582.665 416.68 582.581C416.936 582.497 417.215 582.492 417.474 582.568C424.511 584.68 430.041 584.583 433.91 582.267C435.35 581.325 436.567 580.123 437.487 578.735C438.406 577.347 439.009 575.801 439.259 574.191C439.28 574.001 439.353 573.818 439.473 573.661C439.592 573.504 439.752 573.377 439.939 573.293C440.127 573.209 440.334 573.17 440.542 573.18C440.75 573.19 440.952 573.249 441.128 573.35C445.914 576.101 449.936 576.821 453.089 575.482C458.63 573.135 459.99 565.154 460.004 565.075C460.038 564.864 460.136 564.667 460.287 564.506C460.438 564.345 460.635 564.226 460.856 564.163C467.355 562.322 470.723 559.103 471.154 554.319C472.936 534.522 425.844 497.194 419.486 494.269C411.174 490.446 384.731 466.703 383.609 465.694C383.492 465.591 383.399 465.468 383.334 465.331C383.269 465.194 383.235 465.047 383.232 464.898C383.229 464.75 383.259 464.602 383.319 464.463C383.379 464.325 383.468 464.199 383.581 464.092C383.695 463.986 383.83 463.901 383.979 463.843C384.128 463.784 384.288 463.754 384.45 463.753C384.612 463.752 384.772 463.781 384.922 463.837C385.072 463.894 385.208 463.977 385.323 464.082C385.595 464.327 412.61 488.585 420.582 492.252C427.343 495.364 475.501 533.353 473.597 554.504C473.098 560.047 469.295 563.947 462.29 566.108C461.795 568.325 459.85 575.094 454.124 577.528C450.536 579.05 446.241 578.565 441.341 576.081C440.46 579.372 438.29 582.249 435.245 584.158C430.893 586.764 424.946 587.03 417.562 584.96C415.326 587.589 412.084 589.334 408.498 589.842C407.917 589.914 407.331 589.951 406.744 589.95Z" fill="black"/>
<path d="M461.218 566.367C461.012 566.367 460.809 566.319 460.628 566.228C460.447 566.137 460.294 566.005 460.183 565.845L443.415 541.628C443.329 541.503 443.27 541.364 443.242 541.218C443.214 541.072 443.218 540.923 443.253 540.778C443.288 540.634 443.353 540.497 443.446 540.376C443.538 540.254 443.655 540.151 443.791 540.071C443.927 539.992 444.079 539.938 444.237 539.912C444.396 539.886 444.558 539.89 444.715 539.922C444.872 539.954 445.021 540.014 445.153 540.099C445.285 540.184 445.397 540.292 445.484 540.417L462.251 564.634C462.369 564.804 462.435 565.001 462.442 565.203C462.45 565.405 462.398 565.605 462.292 565.782C462.187 565.959 462.031 566.107 461.842 566.21C461.653 566.313 461.438 566.367 461.218 566.367Z" fill="black"/>
<path d="M440.48 575.433C440.281 575.434 440.085 575.39 439.909 575.305C439.733 575.22 439.582 575.097 439.469 574.947L423.585 553.773C423.401 553.527 423.331 553.224 423.389 552.93C423.448 552.636 423.631 552.375 423.899 552.206C424.166 552.036 424.496 551.971 424.815 552.024C425.135 552.078 425.418 552.246 425.603 552.491L441.487 573.665C441.672 573.911 441.743 574.215 441.684 574.509C441.626 574.803 441.442 575.063 441.175 575.233C440.971 575.364 440.728 575.434 440.48 575.433Z" fill="black"/>
<path d="M417.095 584.768C416.895 584.769 416.698 584.724 416.522 584.638C416.345 584.553 416.194 584.429 416.082 584.277L404.609 568.853C404.519 568.731 404.455 568.594 404.422 568.449C404.389 568.304 404.387 568.154 404.417 568.009C404.446 567.863 404.507 567.725 404.595 567.601C404.683 567.477 404.796 567.37 404.929 567.286C405.062 567.203 405.211 567.144 405.369 567.114C405.526 567.083 405.689 567.082 405.847 567.109C406.005 567.136 406.156 567.192 406.291 567.273C406.425 567.354 406.541 567.458 406.632 567.58L418.105 583.004C418.231 583.173 418.305 583.371 418.318 583.576C418.33 583.781 418.282 583.985 418.178 584.167C418.074 584.348 417.919 584.5 417.727 584.606C417.536 584.712 417.318 584.768 417.095 584.768Z" fill="black"/>
<path d="M280.164 571.119C275.634 571.119 270.522 570.758 265.768 570.421C261.17 569.951 256.539 569.801 251.917 569.972C244.402 570.418 236.863 570.419 229.348 569.976C229.187 569.968 229.03 569.93 228.885 569.865C228.74 569.8 228.61 569.71 228.504 569.599C228.397 569.488 228.315 569.359 228.262 569.219C228.21 569.079 228.188 568.931 228.198 568.783C228.222 568.486 228.371 568.21 228.613 568.012C228.855 567.815 229.171 567.712 229.494 567.726C236.867 568.155 244.263 568.156 251.637 567.73C256.415 567.541 261.201 567.689 265.954 568.173C274.172 568.754 283.483 569.406 288.512 568.127C288.667 568.087 288.829 568.075 288.989 568.093C289.149 568.111 289.303 568.157 289.443 568.23C289.584 568.303 289.707 568.4 289.806 568.517C289.906 568.634 289.979 568.767 290.022 568.91C290.065 569.053 290.077 569.202 290.058 569.349C290.038 569.496 289.987 569.638 289.908 569.767C289.828 569.896 289.722 570.009 289.595 570.1C289.468 570.191 289.323 570.259 289.167 570.298C286.217 570.924 283.191 571.2 280.164 571.119Z" fill="black"/>
<path d="M282.516 951.657V1019.37C282.516 1022.12 283.701 1024.75 285.811 1026.69C287.921 1028.63 290.783 1029.72 293.767 1029.72H463.421V1023.85C463.421 1021.7 462.793 1019.58 461.602 1017.72C460.411 1015.87 458.701 1014.34 456.649 1013.3L386.646 977.769V951.657H282.516Z" fill="#FFD6BA"/>
<path d="M200.186 964.853L205.048 950.953L104.22 926.479L87.2068 975.113C86.2928 977.726 86.5447 980.566 87.907 983.008C89.2692 985.451 91.6303 987.295 94.4709 988.136L255.968 1035.95L257.924 1030.35C258.642 1028.3 258.748 1026.11 258.233 1024.01C257.717 1021.91 256.598 1019.97 254.992 1018.4L200.186 964.853Z" fill="#FFD6BA"/>
<path d="M327.585 291.41C325.569 291.318 323.598 290.823 321.811 289.961C321.668 289.893 321.541 289.799 321.437 289.686C321.333 289.573 321.254 289.442 321.205 289.301C321.156 289.16 321.138 289.011 321.152 288.864C321.165 288.716 321.21 288.573 321.284 288.441C321.358 288.309 321.459 288.193 321.582 288.097C321.705 288.002 321.848 287.929 322.001 287.884C322.154 287.839 322.316 287.822 322.476 287.835C322.637 287.847 322.793 287.889 322.936 287.957C324.524 288.712 327.951 289.831 329.539 288.626C330.745 287.721 330.556 285.451 330.269 282.009C329.956 278.784 329.282 275.597 328.257 272.5C327.912 271.425 327.588 270.527 327.313 269.767C326.452 267.378 325.933 265.937 326.937 264.528C327.999 263.037 330.188 262.438 333.645 262.667C333.969 262.69 334.27 262.831 334.482 263.058C334.693 263.285 334.798 263.58 334.773 263.878C334.763 264.027 334.72 264.171 334.648 264.304C334.576 264.437 334.476 264.556 334.353 264.652C334.231 264.749 334.088 264.823 333.935 264.868C333.781 264.914 333.619 264.931 333.458 264.918C330.255 264.676 329.281 265.352 328.988 265.763C328.646 266.244 328.923 267.069 329.64 269.056C329.921 269.837 330.253 270.758 330.608 271.861C331.682 275.111 332.387 278.454 332.714 281.837C333.058 285.984 333.287 288.725 331.09 290.375C330.089 291.085 328.849 291.451 327.585 291.41Z" fill="black"/>
<path d="M319.212 300.727C317.289 300.786 315.402 300.245 313.857 299.192C312.884 298.427 312.091 297.489 311.524 296.434C310.958 295.379 310.63 294.23 310.56 293.055C310.55 292.757 310.668 292.467 310.889 292.249C311.11 292.031 311.416 291.903 311.74 291.892C312.063 291.887 312.376 291.998 312.612 292.2C312.848 292.402 312.991 292.681 313.009 292.978C313.129 294.686 313.977 296.281 315.369 297.417C316.363 297.989 317.482 298.351 318.647 298.476C319.811 298.602 320.991 298.487 322.101 298.142C322.418 298.075 322.75 298.127 323.025 298.286C323.301 298.445 323.496 298.698 323.568 298.989C323.641 299.281 323.584 299.587 323.411 299.84C323.239 300.093 322.964 300.273 322.647 300.339C321.521 300.586 320.369 300.716 319.212 300.727Z" fill="black"/>
<path d="M307.005 270.602C306.774 270.601 306.547 270.541 306.351 270.427C306.156 270.313 305.999 270.15 305.9 269.958C305.8 269.765 305.762 269.551 305.79 269.339C305.818 269.128 305.91 268.928 306.056 268.763C306.112 268.699 311.719 262.559 321.242 267.049C321.529 267.187 321.745 267.424 321.844 267.707C321.942 267.991 321.914 268.299 321.767 268.564C321.619 268.829 321.364 269.029 321.056 269.122C320.749 269.214 320.414 269.191 320.125 269.058C312.414 265.418 308.128 269.996 307.951 270.194C307.835 270.322 307.691 270.425 307.527 270.495C307.364 270.565 307.186 270.602 307.005 270.602Z" fill="black"/>
<path d="M317.905 280.191C319.107 280.005 319.843 278.555 319.55 276.952C319.257 275.35 318.045 274.201 316.844 274.387C315.642 274.573 314.906 276.023 315.199 277.626C315.492 279.229 316.704 280.377 317.905 280.191Z" fill="black"/>
<path d="M335.66 276.233C336.862 276.047 337.598 274.597 337.305 272.994C337.012 271.392 335.8 270.243 334.598 270.429C333.397 270.615 332.661 272.065 332.954 273.668C333.247 275.271 334.459 276.419 335.66 276.233Z" fill="black"/>
<path d="M464.609 378.98C464.037 378.978 463.467 378.915 462.911 378.791C461.168 378.406 459.508 377.755 458 376.864C455.563 375.352 453.872 373.018 453.292 370.368C451.934 371.982 450.239 373.331 448.307 374.336C447.287 374.819 446.172 375.111 445.027 375.195C444.739 375.232 444.453 375.267 444.173 375.314C443.289 375.586 442.342 375.635 441.43 375.457C440.518 375.279 439.674 374.88 438.987 374.301C437.819 373.473 436.761 372.524 435.833 371.471C434.189 369.032 433.314 366.221 433.305 363.351C432.703 356.762 432.994 350.129 434.171 343.605C434.212 343.389 434.283 343.083 434.37 342.713C435.295 338.784 435.016 337.829 434.767 337.608C434.08 337.666 430.483 338.291 427.308 338.842C424.586 339.395 421.834 339.817 419.064 340.106L419.063 340.11L418.923 340.108C418.777 340.11 418.632 340.1 418.488 340.079C417.758 340.042 417.04 340.008 416.335 339.978C411.251 340.087 406.204 339.15 401.565 337.234L400.576 336.769C397.993 335.634 395.506 334.321 393.136 332.843C389.396 330.377 385.598 324.924 388.869 320.526C392.848 315.18 400.278 317.047 405.195 318.287L406.71 318.681C408.274 319.14 409.875 319.482 411.499 319.703C413.717 319.941 415.947 320.067 418.179 320.079C418.773 320.086 419.405 320.108 420.062 320.132C423.239 320.249 426.848 320.379 429.028 318.826C430.069 318.051 431.053 317.214 431.975 316.32L432.98 315.398C434.741 313.822 436.685 312.43 438.776 311.244L439.727 310.687C442.958 308.776 447.382 306.168 451.464 307.857C452.182 308.186 452.869 308.567 453.521 308.996C455.65 310.308 456.785 310.819 457.475 310.159C457.918 309.677 458.277 309.135 458.542 308.553C458.751 308.138 458.984 307.733 459.239 307.34C460.135 306.086 461.303 305.016 462.67 304.197C464.061 303.381 465.639 302.873 467.281 302.715C468.922 302.556 470.58 302.751 472.126 303.284C473.036 303.678 473.889 304.177 474.663 304.768C475.71 305.49 477.652 306.822 478.266 306.435C478.451 306.223 478.603 305.989 478.718 305.739C478.858 305.462 479.021 305.196 479.205 304.942C479.605 304.446 480.048 303.982 480.529 303.552C480.764 303.334 480.997 303.116 481.216 302.887L481.533 302.55C482.524 301.249 483.961 300.291 485.614 299.831L485.987 299.751C487.664 299.232 489.472 299.184 491.179 299.615C492.707 300.199 494.111 301.027 495.328 302.059C495.926 302.587 496.448 303.184 496.88 303.834C497.167 304.228 497.701 304.962 497.938 305.017C497.937 305.017 498.09 305.01 498.437 304.755L498.99 304.345C499.974 303.383 501.162 302.616 502.48 302.094C503.799 301.572 505.221 301.304 506.657 301.308C508.539 301.509 510.339 302.133 511.897 303.125C513.456 304.117 514.725 305.447 515.593 306.996C517.071 309.727 523.452 327.716 523.264 334.255C523.151 338.159 519.835 358.271 517.795 361.684C517.374 362.654 516.68 363.504 515.784 364.145C514.888 364.786 513.823 365.197 512.697 365.333C509.323 365.534 506.317 362.028 504.649 359.813C504.54 360.139 504.445 360.475 504.369 360.742C504.227 361.316 504.032 361.878 503.786 362.422C503.035 364.03 502.141 365.578 501.114 367.051C499.115 369.387 496.566 371.274 493.658 372.57C492.173 373.463 490.467 373.996 488.698 374.12C486.929 374.244 485.155 373.953 483.54 373.277C481.7 372.392 480.221 370.981 479.326 369.258C478.502 370.936 477.363 372.467 475.963 373.783C473.885 375.745 471.341 377.237 468.53 378.141C467.288 378.636 465.96 378.92 464.609 378.98ZM453.939 366.018C454.005 366.018 454.072 366.023 454.137 366.034C454.404 366.074 454.649 366.194 454.833 366.375C455.018 366.556 455.132 366.788 455.158 367.036C455.573 370.969 456.934 373.563 459.319 374.966C460.595 375.718 461.998 376.269 463.471 376.597C464.91 376.827 466.391 376.626 467.697 376.023C470.171 375.224 472.409 373.909 474.237 372.18C476.357 369.994 477.871 367.37 478.65 364.53L478.673 364.464C478.774 364.182 478.991 363.948 479.278 363.813C479.565 363.677 479.898 363.652 480.206 363.741C480.513 363.83 480.77 364.027 480.921 364.289C481.071 364.552 481.104 364.858 481.01 365.142L480.994 365.193C480.882 366.411 481.162 367.634 481.798 368.708C482.435 369.781 483.4 370.66 484.575 371.233C485.859 371.757 487.267 371.969 488.666 371.85C490.065 371.731 491.407 371.284 492.564 370.553C495.11 369.435 497.346 367.797 499.101 365.765C500.045 364.402 500.867 362.97 501.558 361.484C501.742 361.058 501.889 360.619 501.997 360.172C502.18 358.869 502.851 357.665 503.893 356.767C504.156 356.603 504.479 356.539 504.792 356.59C505.105 356.64 505.385 356.801 505.571 357.038C505.674 357.17 505.82 357.371 506.002 357.622C506.982 358.98 509.942 363.083 512.504 363.083C512.535 363.083 512.565 363.083 512.595 363.081C513.66 363.041 514.687 362.204 515.648 360.597C517.216 357.974 520.686 338.6 520.813 334.193C520.989 328.102 514.785 310.562 513.399 308.001C512.714 306.785 511.714 305.743 510.488 304.966C509.261 304.189 507.846 303.701 506.367 303.546C504.137 303.671 502.047 304.584 500.533 306.096L499.967 306.516C499.644 306.786 499.263 306.991 498.849 307.116C498.434 307.242 497.996 307.286 497.561 307.245C496.278 307.063 495.516 306.012 494.843 305.087C494.524 304.602 494.142 304.153 493.706 303.751C492.7 302.895 491.542 302.206 490.282 301.711C489.035 301.484 487.745 301.566 486.544 301.947L486.159 302.028C485.027 302.403 484.056 303.102 483.39 304.024L483.059 304.374C482.808 304.636 482.544 304.885 482.277 305.133C481.889 305.476 481.532 305.847 481.208 306.241C481.097 306.4 481 306.567 480.916 306.739C480.651 307.337 480.228 307.865 479.685 308.274C477.623 309.628 475.167 307.932 473.196 306.574C472.593 306.118 471.941 305.721 471.249 305.389C470.079 304.995 468.828 304.849 467.588 304.962C466.348 305.074 465.151 305.442 464.087 306.039C462.989 306.683 462.049 307.529 461.325 308.525C461.113 308.852 460.921 309.19 460.748 309.536C460.377 310.333 459.869 311.071 459.244 311.72C457.001 313.874 454.084 312.061 452.154 310.868C451.615 310.512 451.047 310.193 450.457 309.914C447.586 308.721 443.963 310.861 441.052 312.583L440.078 313.156C438.135 314.256 436.33 315.548 434.693 317.01L433.714 317.91C432.717 318.873 431.653 319.775 430.528 320.61C427.644 322.66 423.386 322.508 419.966 322.385C419.332 322.363 418.72 322.341 418.148 322.334C415.827 322.322 413.508 322.19 411.202 321.94C409.448 321.709 407.718 321.344 406.029 320.848L404.57 320.467C399.793 319.265 393.884 317.776 390.892 321.799C388.581 324.909 391.718 329.133 394.564 331.011C396.834 332.421 399.215 333.673 401.687 334.759L402.683 335.226C407.013 336.993 411.719 337.847 416.454 337.725C417.356 337.765 418.274 337.807 419.213 337.86C419.272 337.862 419.331 337.87 419.388 337.882C420.603 337.712 424.029 337.117 426.853 336.626C431.142 335.882 433.793 335.426 434.449 335.373C434.848 335.324 435.254 335.366 435.631 335.496C436.008 335.627 436.344 335.841 436.609 336.12C437.958 337.529 437.426 340.385 436.765 343.191C436.688 343.519 436.624 343.79 436.589 343.982C435.445 350.315 435.162 356.755 435.746 363.153C435.735 365.591 436.434 367.988 437.772 370.092C438.583 371.004 439.506 371.826 440.522 372.543C441.714 373.429 442.025 373.374 443.743 373.094C444.053 373.043 444.369 373.001 444.686 372.962C445.511 372.909 446.318 372.716 447.066 372.391C449.606 371.113 451.626 369.11 452.82 366.683C452.917 366.485 453.074 366.317 453.273 366.199C453.471 366.081 453.702 366.018 453.938 366.018L453.939 366.018Z" fill="black"/>
<path d="M456.85 360.612C456.654 360.613 456.46 360.57 456.286 360.487C456.111 360.404 455.961 360.284 455.848 360.136C455.735 359.989 455.662 359.818 455.635 359.639C455.608 359.46 455.629 359.278 455.695 359.108L455.921 358.522C456.919 356.234 457.627 353.847 458.032 351.409C458.236 349.877 458.388 348.333 458.54 346.789C458.719 344.977 458.897 343.162 459.159 341.365C459.663 338.244 459.842 335.084 459.692 331.931C459.197 327.684 458.122 323.512 456.495 319.511C456.114 318.434 455.741 317.377 455.4 316.351C455.35 316.209 455.332 316.06 455.346 315.911C455.361 315.762 455.407 315.618 455.482 315.486C455.557 315.354 455.66 315.237 455.785 315.142C455.909 315.046 456.053 314.975 456.208 314.931C456.363 314.887 456.526 314.872 456.687 314.887C456.849 314.902 457.005 314.945 457.148 315.016C457.291 315.087 457.417 315.183 457.519 315.298C457.621 315.414 457.697 315.547 457.743 315.691C458.081 316.708 458.449 317.75 458.825 318.813C460.525 322.996 461.639 327.361 462.138 331.804C462.298 335.099 462.114 338.401 461.589 341.665C461.331 343.431 461.157 345.212 460.981 346.994C460.826 348.56 460.672 350.128 460.464 351.684C460.038 354.286 459.289 356.834 458.23 359.277L458.005 359.861C457.921 360.081 457.764 360.271 457.557 360.405C457.35 360.54 457.103 360.612 456.85 360.612Z" fill="black"/>
<path d="M478.71 359.881C478.449 359.882 478.194 359.804 477.985 359.661C477.855 359.573 477.745 359.463 477.662 359.336C477.579 359.209 477.523 359.068 477.499 358.922C477.475 358.775 477.483 358.626 477.521 358.482C477.56 358.338 477.629 358.203 477.725 358.084C478.207 357.349 478.547 356.543 478.73 355.701C478.827 355.373 478.922 355.047 479.027 354.737C479.183 354.276 479.348 353.818 479.514 353.358C479.945 352.242 480.302 351.103 480.586 349.947C481.111 347.22 481.387 344.457 481.41 341.687L481.432 341.009C481.582 338.317 481.546 335.619 481.324 332.931C480.629 327.752 479.579 322.618 478.181 317.56C477.754 315.869 477.331 314.193 476.942 312.544C476.874 312.252 476.935 311.947 477.111 311.696C477.287 311.446 477.563 311.269 477.88 311.206C478.197 311.142 478.529 311.197 478.802 311.357C479.075 311.518 479.268 311.772 479.338 312.064C479.725 313.704 480.145 315.371 480.569 317.051C481.993 322.202 483.06 327.431 483.764 332.707C483.997 335.491 484.037 338.286 483.883 341.075L483.862 341.753C483.834 344.651 483.543 347.543 482.989 350.396C482.687 351.64 482.304 352.866 481.841 354.067C481.68 354.517 481.519 354.961 481.368 355.406C481.271 355.69 481.185 355.988 481.098 356.289C480.846 357.404 480.371 358.467 479.698 359.423C479.584 359.565 479.435 359.681 479.263 359.761C479.092 359.84 478.902 359.881 478.71 359.881Z" fill="black"/>
<path d="M503.073 354.955C502.967 354.955 502.862 354.943 502.759 354.917C502.445 354.841 502.177 354.653 502.014 354.395C501.85 354.137 501.804 353.83 501.887 353.541C503.606 347.679 504.208 341.587 503.664 335.536C502.613 328.045 500.534 320.706 497.477 313.695L496.473 311.059C496.42 310.919 496.398 310.771 496.407 310.624C496.417 310.476 496.458 310.331 496.528 310.198C496.598 310.065 496.696 309.946 496.816 309.847C496.936 309.749 497.076 309.673 497.228 309.625C497.38 309.576 497.541 309.555 497.702 309.564C497.863 309.573 498.02 309.61 498.165 309.675C498.309 309.739 498.439 309.829 498.546 309.94C498.653 310.051 498.735 310.18 498.788 310.319L499.79 312.946C502.906 320.138 505.028 327.66 506.106 335.338C506.674 341.648 506.049 348 504.257 354.113C504.188 354.354 504.035 354.567 503.821 354.719C503.607 354.872 503.344 354.954 503.073 354.955Z" fill="black"/>
<path d="M461.216 530.063C460.909 530.063 460.612 529.956 460.386 529.765C460.16 529.573 460.02 529.31 459.994 529.028C459.969 528.747 460.06 528.466 460.249 528.243C460.437 528.019 460.711 527.87 461.014 527.823L643.099 499.631C644.701 499.381 646.129 498.558 647.072 497.34C648.014 496.123 648.393 494.611 648.126 493.137L615.759 316.135C615.488 314.661 614.592 313.346 613.268 312.479C611.944 311.612 610.3 311.264 608.697 311.511L520.423 325.182C520.264 325.206 520.102 325.202 519.945 325.169C519.788 325.135 519.64 325.074 519.509 324.988C519.377 324.902 519.266 324.794 519.181 324.668C519.095 324.543 519.037 324.403 519.011 324.257C518.984 324.111 518.989 323.961 519.025 323.817C519.061 323.673 519.128 323.536 519.221 323.416C519.314 323.295 519.433 323.192 519.569 323.114C519.705 323.035 519.857 322.982 520.016 322.958L608.29 309.287C610.534 308.943 612.834 309.431 614.688 310.645C616.541 311.858 617.795 313.698 618.177 315.761L650.544 492.763C650.921 494.827 650.391 496.944 649.071 498.649C647.751 500.354 645.75 501.508 643.506 501.855L461.421 530.047C461.353 530.058 461.285 530.063 461.216 530.063Z" fill="black"/>
<path d="M327.963 354.961C327.656 354.961 327.359 354.855 327.133 354.663C326.907 354.472 326.767 354.209 326.742 353.927C326.716 353.645 326.807 353.365 326.996 353.141C327.184 352.918 327.458 352.768 327.761 352.722L435.666 336.014C435.986 335.964 436.315 336.034 436.58 336.207C436.845 336.381 437.024 336.644 437.078 336.939C437.132 337.234 437.056 337.536 436.868 337.78C436.679 338.024 436.393 338.188 436.073 338.238L328.168 354.946C328.1 354.956 328.032 354.961 327.963 354.961Z" fill="black"/>
<path d="M1075.66 408.515H633.687C633.362 408.515 633.05 408.397 632.82 408.185C632.591 407.974 632.461 407.687 632.461 407.388C632.461 407.089 632.591 406.802 632.82 406.591C633.05 406.379 633.362 406.26 633.687 406.26H1075.66C1077.93 406.258 1080.11 405.426 1081.72 403.946C1083.33 402.466 1084.23 400.46 1084.24 398.368V10.1475C1084.23 8.05504 1083.33 6.04903 1081.72 4.56945C1080.11 3.08987 1077.93 2.25753 1075.66 2.255H187.308C185.034 2.25753 182.853 3.08987 181.245 4.56945C179.636 6.04903 178.731 8.05504 178.729 10.1475V398.368C178.731 400.46 179.636 402.466 181.245 403.946C182.853 405.426 185.034 406.258 187.308 406.26H220.72C221.045 406.26 221.357 406.379 221.587 406.591C221.817 406.802 221.946 407.089 221.946 407.388C221.946 407.687 221.817 407.974 221.587 408.185C221.357 408.397 221.045 408.515 220.72 408.515H187.308C184.384 408.512 181.58 407.442 179.512 405.54C177.444 403.638 176.281 401.058 176.277 398.368V10.1475C176.281 7.4571 177.444 4.87775 179.512 2.97537C181.58 1.07298 184.384 0.00293667 187.308 0H1075.66C1078.58 0.00293667 1081.39 1.07298 1083.45 2.97537C1085.52 4.87775 1086.68 7.4571 1086.69 10.1475V398.368C1086.68 401.058 1085.52 403.638 1083.45 405.54C1081.39 407.442 1078.58 408.512 1075.66 408.515Z" fill="black"/>
<path d="M977.99 322.447H746.882C741.467 322.447 737.077 326.486 737.077 331.467V497.446C737.077 502.428 741.467 506.466 746.882 506.466H977.99C983.405 506.466 987.795 502.428 987.795 497.446V331.467C987.795 326.486 983.405 322.447 977.99 322.447Z" fill="#FFD6BA"/>
<path d="M702.47 241.221H690.214C689.889 241.221 689.577 241.102 689.347 240.89C689.117 240.679 688.988 240.392 688.988 240.093C688.988 239.794 689.117 239.507 689.347 239.296C689.577 239.084 689.889 238.966 690.214 238.966H702.47C702.795 238.966 703.107 239.084 703.337 239.296C703.567 239.507 703.696 239.794 703.696 240.093C703.696 240.392 703.567 240.679 703.337 240.89C703.107 241.102 702.795 241.221 702.47 241.221ZM677.957 241.221H665.701C665.376 241.221 665.064 241.102 664.834 240.89C664.604 240.679 664.475 240.392 664.475 240.093C664.475 239.794 664.604 239.507 664.834 239.296C665.064 239.084 665.376 238.966 665.701 238.966H677.957C678.283 238.966 678.594 239.084 678.824 239.296C679.054 239.507 679.183 239.794 679.183 240.093C679.183 240.392 679.054 240.679 678.824 240.89C678.594 241.102 678.283 241.221 677.957 241.221ZM653.445 241.221H641.188C640.863 241.221 640.551 241.102 640.321 240.89C640.092 240.679 639.962 240.392 639.962 240.093C639.962 239.794 640.092 239.507 640.321 239.296C640.551 239.084 640.863 238.966 641.188 238.966H653.445C653.77 238.966 654.081 239.084 654.311 239.296C654.541 239.507 654.67 239.794 654.67 240.093C654.67 240.392 654.541 240.679 654.311 240.89C654.081 241.102 653.77 241.221 653.445 241.221ZM628.932 241.221H616.675C616.35 241.221 616.038 241.102 615.809 240.89C615.579 240.679 615.45 240.392 615.45 240.093C615.45 239.794 615.579 239.507 615.809 239.296C616.038 239.084 616.35 238.966 616.675 238.966H628.932C629.257 238.966 629.569 239.084 629.798 239.296C630.028 239.507 630.157 239.794 630.157 240.093C630.157 240.392 630.028 240.679 629.798 240.89C629.569 241.102 629.257 241.221 628.932 241.221ZM604.419 241.221H592.162C591.837 241.221 591.526 241.102 591.296 240.89C591.066 240.679 590.937 240.392 590.937 240.093C590.937 239.794 591.066 239.507 591.296 239.296C591.526 239.084 591.837 238.966 592.162 238.966H604.419C604.744 238.966 605.056 239.084 605.285 239.296C605.515 239.507 605.644 239.794 605.644 240.093C605.644 240.392 605.515 240.679 605.285 240.89C605.056 241.102 604.744 241.221 604.419 241.221ZM579.906 241.221H567.649C567.324 241.221 567.013 241.102 566.783 240.89C566.553 240.679 566.424 240.392 566.424 240.093C566.424 239.794 566.553 239.507 566.783 239.296C567.013 239.084 567.324 238.966 567.649 238.966H579.906C580.231 238.966 580.543 239.084 580.773 239.296C581.002 239.507 581.131 239.794 581.131 240.093C581.131 240.392 581.002 240.679 580.773 240.89C580.543 241.102 580.231 241.221 579.906 241.221ZM555.393 241.221H543.136C542.811 241.221 542.5 241.102 542.27 240.89C542.04 240.679 541.911 240.392 541.911 240.093C541.911 239.794 542.04 239.507 542.27 239.296C542.5 239.084 542.811 238.966 543.136 238.966H555.393C555.718 238.966 556.03 239.084 556.26 239.296C556.49 239.507 556.619 239.794 556.619 240.093C556.619 240.392 556.49 240.679 556.26 240.89C556.03 241.102 555.718 241.221 555.393 241.221ZM530.88 241.221H518.624C518.299 241.221 517.987 241.102 517.757 240.89C517.527 240.679 517.398 240.392 517.398 240.093C517.398 239.794 517.527 239.507 517.757 239.296C517.987 239.084 518.299 238.966 518.624 238.966H530.88C531.205 238.966 531.517 239.084 531.747 239.296C531.977 239.507 532.106 239.794 532.106 240.093C532.106 240.392 531.977 240.679 531.747 240.89C531.517 241.102 531.205 241.221 530.88 241.221ZM506.367 241.221H494.111C493.786 241.221 493.474 241.102 493.244 240.89C493.014 240.679 492.885 240.392 492.885 240.093C492.885 239.794 493.014 239.507 493.244 239.296C493.474 239.084 493.786 238.966 494.111 238.966H506.367C506.692 238.966 507.004 239.084 507.234 239.296C507.464 239.507 507.593 239.794 507.593 240.093C507.593 240.392 507.464 240.679 507.234 240.89C507.004 241.102 506.692 241.221 506.367 241.221ZM481.854 241.221H469.598C469.273 241.221 468.961 241.102 468.731 240.89C468.501 240.679 468.372 240.392 468.372 240.093C468.372 239.794 468.501 239.507 468.731 239.296C468.961 239.084 469.273 238.966 469.598 238.966H481.854C482.179 238.966 482.491 239.084 482.721 239.296C482.951 239.507 483.08 239.794 483.08 240.093C483.08 240.392 482.951 240.679 482.721 240.89C482.491 241.102 482.179 241.221 481.854 241.221ZM457.341 241.221H445.085C444.76 241.221 444.448 241.102 444.218 240.89C443.988 240.679 443.859 240.392 443.859 240.093C443.859 239.794 443.988 239.507 444.218 239.296C444.448 239.084 444.76 238.966 445.085 238.966H457.341C457.666 238.966 457.978 239.084 458.208 239.296C458.438 239.507 458.567 239.794 458.567 240.093C458.567 240.392 458.438 240.679 458.208 240.89C457.978 241.102 457.666 241.221 457.341 241.221ZM432.828 241.221H420.572C420.247 241.221 419.935 241.102 419.705 240.89C419.476 240.679 419.346 240.392 419.346 240.093C419.346 239.794 419.476 239.507 419.705 239.296C419.935 239.084 420.247 238.966 420.572 238.966H432.828C433.154 238.966 433.465 239.084 433.695 239.296C433.925 239.507 434.054 239.794 434.054 240.093C434.054 240.392 433.925 240.679 433.695 240.89C433.465 241.102 433.154 241.221 432.828 241.221ZM705.326 240.833C705.032 240.833 704.748 240.736 704.525 240.559C704.303 240.383 704.157 240.139 704.113 239.871C704.07 239.604 704.133 239.331 704.29 239.102C704.447 238.874 704.688 238.705 704.969 238.626C706.694 238.146 708.21 237.176 709.301 235.857C710.393 234.538 711.004 232.935 711.047 231.278C711.056 230.984 711.189 230.704 711.417 230.499C711.646 230.294 711.953 230.179 712.273 230.179H712.304C712.465 230.183 712.624 230.215 712.771 230.276C712.918 230.336 713.051 230.422 713.162 230.529C713.273 230.637 713.36 230.763 713.418 230.901C713.475 231.04 713.503 231.187 713.499 231.335C713.442 233.466 712.656 235.527 711.253 237.223C709.85 238.92 707.901 240.166 705.683 240.785C705.567 240.817 705.447 240.833 705.326 240.833H705.326ZM408.37 240.765C408.239 240.765 408.108 240.746 407.984 240.707C405.784 240.04 403.868 238.75 402.511 237.023C401.153 235.295 400.422 233.218 400.423 231.086C400.423 230.938 400.454 230.791 400.516 230.654C400.577 230.517 400.667 230.393 400.781 230.288C400.894 230.183 401.03 230.1 401.178 230.043C401.327 229.986 401.487 229.957 401.648 229.956H401.649C401.973 229.957 402.285 230.075 402.515 230.286C402.744 230.497 402.874 230.783 402.874 231.082C402.873 232.74 403.441 234.356 404.497 235.7C405.553 237.044 407.043 238.047 408.755 238.567C409.031 238.651 409.266 238.823 409.417 239.052C409.568 239.281 409.626 239.552 409.579 239.817C409.533 240.081 409.386 240.322 409.164 240.495C408.942 240.669 408.661 240.765 408.37 240.765V240.765ZM712.276 221.159C712.115 221.159 711.955 221.13 711.806 221.073C711.658 221.017 711.522 220.934 711.409 220.829C711.295 220.724 711.205 220.6 711.143 220.463C711.081 220.326 711.05 220.18 711.05 220.032V208.757C711.05 208.458 711.179 208.171 711.409 207.959C711.639 207.748 711.95 207.629 712.276 207.629C712.601 207.629 712.912 207.748 713.142 207.959C713.372 208.171 713.501 208.458 713.501 208.757V220.032C713.501 220.18 713.47 220.326 713.408 220.463C713.347 220.6 713.256 220.724 713.142 220.829C713.029 220.934 712.893 221.017 712.745 221.073C712.596 221.13 712.436 221.159 712.276 221.159ZM401.648 220.939C401.487 220.939 401.327 220.91 401.178 220.853C401.03 220.797 400.894 220.713 400.781 220.609C400.667 220.504 400.577 220.38 400.515 220.243C400.453 220.106 400.422 219.959 400.422 219.811V208.536C400.422 208.237 400.551 207.951 400.781 207.739C401.011 207.528 401.322 207.409 401.648 207.409C401.973 207.409 402.284 207.528 402.514 207.739C402.744 207.951 402.873 208.237 402.873 208.536V219.811C402.873 219.959 402.842 220.106 402.78 220.243C402.719 220.38 402.628 220.504 402.514 220.609C402.401 220.713 402.265 220.796 402.117 220.853C401.968 220.91 401.809 220.939 401.648 220.939H401.648ZM712.276 198.609C712.115 198.609 711.955 198.58 711.806 198.523C711.658 198.467 711.522 198.384 711.409 198.279C711.295 198.174 711.205 198.05 711.143 197.913C711.081 197.776 711.05 197.63 711.05 197.482V186.207C711.05 185.908 711.179 185.621 711.409 185.409C711.639 185.198 711.95 185.079 712.276 185.079C712.601 185.079 712.912 185.198 713.142 185.409C713.372 185.621 713.501 185.908 713.501 186.207V197.482C713.501 197.63 713.47 197.776 713.408 197.913C713.347 198.05 713.256 198.174 713.142 198.279C713.029 198.384 712.893 198.467 712.745 198.523C712.596 198.58 712.436 198.609 712.276 198.609ZM401.648 198.389C401.487 198.389 401.327 198.36 401.178 198.303C401.03 198.247 400.894 198.164 400.781 198.059C400.667 197.954 400.577 197.83 400.515 197.693C400.453 197.556 400.422 197.409 400.422 197.261V185.986C400.422 185.687 400.551 185.401 400.781 185.189C401.011 184.978 401.322 184.859 401.648 184.859C401.973 184.859 402.284 184.978 402.514 185.189C402.744 185.401 402.873 185.687 402.873 185.986V197.261C402.873 197.409 402.842 197.556 402.78 197.693C402.719 197.83 402.628 197.954 402.514 198.059C402.401 198.163 402.265 198.247 402.117 198.303C401.968 198.36 401.809 198.389 401.648 198.389H401.648ZM712.276 176.059C712.115 176.059 711.955 176.03 711.806 175.973C711.658 175.917 711.522 175.834 711.409 175.729C711.295 175.624 711.205 175.5 711.143 175.363C711.081 175.226 711.05 175.08 711.05 174.932V163.657C711.05 163.358 711.179 163.071 711.409 162.859C711.639 162.648 711.95 162.529 712.276 162.529C712.601 162.529 712.912 162.648 713.142 162.859C713.372 163.071 713.501 163.358 713.501 163.657V174.932C713.501 175.08 713.47 175.226 713.408 175.363C713.347 175.5 713.256 175.624 713.142 175.729C713.029 175.834 712.893 175.917 712.745 175.973C712.596 176.03 712.436 176.059 712.276 176.059ZM401.648 175.839C401.487 175.839 401.327 175.81 401.178 175.753C401.03 175.697 400.894 175.614 400.781 175.509C400.667 175.404 400.577 175.28 400.515 175.143C400.453 175.006 400.422 174.859 400.422 174.711V163.436C400.422 163.137 400.551 162.851 400.781 162.639C401.011 162.428 401.322 162.309 401.648 162.309C401.973 162.309 402.284 162.428 402.514 162.639C402.744 162.851 402.873 163.137 402.873 163.436V174.711C402.873 174.859 402.842 175.006 402.78 175.143C402.719 175.28 402.628 175.404 402.514 175.509C402.401 175.614 402.265 175.697 402.117 175.753C401.968 175.81 401.809 175.839 401.648 175.839H401.648ZM712.276 153.509C712.115 153.509 711.955 153.48 711.806 153.424C711.658 153.367 711.522 153.284 711.409 153.179C711.295 153.074 711.205 152.95 711.143 152.813C711.081 152.676 711.05 152.53 711.05 152.382V141.107C711.05 140.808 711.179 140.521 711.409 140.309C711.639 140.098 711.95 139.979 712.276 139.979C712.601 139.979 712.912 140.098 713.142 140.309C713.372 140.521 713.501 140.808 713.501 141.107V152.382C713.501 152.53 713.47 152.676 713.408 152.813C713.347 152.95 713.256 153.074 713.142 153.179C713.029 153.284 712.893 153.367 712.745 153.423C712.596 153.48 712.436 153.509 712.276 153.509ZM401.648 153.289C401.487 153.289 401.327 153.26 401.178 153.203C401.03 153.147 400.895 153.064 400.781 152.959C400.667 152.854 400.577 152.73 400.515 152.593C400.453 152.456 400.422 152.31 400.422 152.161V140.886C400.422 140.587 400.551 140.301 400.781 140.089C401.011 139.878 401.323 139.759 401.648 139.759C401.973 139.759 402.284 139.878 402.514 140.089C402.744 140.301 402.873 140.587 402.873 140.886V152.161C402.873 152.31 402.842 152.456 402.78 152.593C402.719 152.73 402.628 152.854 402.514 152.959C402.401 153.064 402.265 153.147 402.117 153.203C401.968 153.26 401.809 153.289 401.648 153.289ZM712.276 130.959C712.115 130.959 711.955 130.93 711.806 130.874C711.658 130.817 711.522 130.734 711.409 130.629C711.295 130.524 711.205 130.4 711.143 130.263C711.081 130.126 711.05 129.98 711.05 129.832V118.557C711.05 118.258 711.179 117.971 711.409 117.759C711.639 117.548 711.95 117.429 712.276 117.429C712.601 117.429 712.912 117.548 713.142 117.759C713.372 117.971 713.501 118.258 713.501 118.557V129.832C713.501 129.98 713.47 130.126 713.408 130.263C713.347 130.4 713.256 130.524 713.142 130.629C713.029 130.734 712.893 130.817 712.745 130.874C712.596 130.93 712.436 130.959 712.276 130.959ZM401.648 130.739C401.487 130.739 401.327 130.71 401.178 130.653C401.03 130.597 400.895 130.514 400.781 130.409C400.667 130.304 400.577 130.18 400.515 130.043C400.453 129.906 400.422 129.76 400.422 129.611V118.337C400.422 118.037 400.551 117.751 400.781 117.539C401.011 117.328 401.323 117.209 401.648 117.209C401.973 117.209 402.284 117.328 402.514 117.539C402.744 117.751 402.873 118.037 402.873 118.337V129.611C402.873 129.76 402.842 129.906 402.78 130.043C402.719 130.18 402.628 130.304 402.514 130.409C402.401 130.514 402.265 130.597 402.117 130.653C401.968 130.71 401.809 130.739 401.648 130.739ZM712.276 108.409C712.115 108.409 711.955 108.38 711.806 108.324C711.658 108.267 711.522 108.184 711.409 108.079C711.295 107.974 711.205 107.85 711.143 107.713C711.081 107.576 711.05 107.43 711.05 107.282V102.99C711.055 100.927 710.177 98.9453 708.606 97.4734C708.491 97.3679 708.401 97.2426 708.34 97.1047C708.278 96.9669 708.247 96.8192 708.248 96.6702C708.249 96.5212 708.282 96.3739 708.345 96.2367C708.409 96.0996 708.501 95.9753 708.617 95.8711C708.732 95.767 708.869 95.6849 709.02 95.6298C709.17 95.5746 709.331 95.5474 709.493 95.5498C709.655 95.5522 709.815 95.5841 709.963 95.6436C710.112 95.7031 710.246 95.7891 710.358 95.8967C712.379 97.7885 713.509 100.337 713.501 102.99V107.282C713.501 107.43 713.47 107.576 713.408 107.713C713.347 107.85 713.256 107.974 713.142 108.079C713.029 108.184 712.893 108.267 712.745 108.324C712.596 108.38 712.436 108.409 712.276 108.409ZM401.648 108.189C401.487 108.189 401.327 108.16 401.178 108.103C401.03 108.047 400.895 107.964 400.781 107.859C400.667 107.754 400.577 107.63 400.515 107.493C400.453 107.356 400.422 107.21 400.422 107.062V102.99C400.417 101.635 400.71 100.292 401.283 99.0437C401.855 97.795 402.696 96.6654 403.754 95.7227C403.987 95.5154 404.301 95.4016 404.625 95.4062C404.949 95.4107 405.258 95.5333 405.485 95.747C405.711 95.9608 405.836 96.2483 405.833 96.5467C405.829 96.845 405.697 97.1299 405.466 97.3391C404.642 98.0718 403.988 98.9501 403.543 99.9211C403.097 100.892 402.87 101.936 402.873 102.99V107.062C402.873 107.21 402.842 107.356 402.78 107.493C402.719 107.63 402.628 107.754 402.514 107.859C402.401 107.964 402.265 108.047 402.117 108.103C401.968 108.16 401.809 108.189 401.648 108.189ZM698.03 95.0973H685.773C685.448 95.0973 685.137 94.9785 684.907 94.767C684.677 94.5556 684.548 94.2688 684.548 93.9698C684.548 93.6708 684.677 93.384 684.907 93.1725C685.137 92.9611 685.448 92.8423 685.773 92.8423H698.03C698.355 92.8423 698.667 92.9611 698.897 93.1725C699.126 93.384 699.255 93.6708 699.255 93.9698C699.255 94.2688 699.126 94.5556 698.897 94.767C698.667 94.9785 698.355 95.0973 698.03 95.0973ZM673.517 95.0973H661.26C660.935 95.0973 660.624 94.9785 660.394 94.767C660.164 94.5556 660.035 94.2688 660.035 93.9698C660.035 93.6708 660.164 93.384 660.394 93.1725C660.624 92.9611 660.935 92.8423 661.26 92.8423H673.517C673.842 92.8423 674.154 92.9611 674.384 93.1725C674.613 93.384 674.743 93.6708 674.743 93.9698C674.743 94.2688 674.613 94.5556 674.384 94.767C674.154 94.9785 673.842 95.0973 673.517 95.0973ZM649.004 95.0973H636.748C636.423 95.0973 636.111 94.9785 635.881 94.767C635.651 94.5556 635.522 94.2688 635.522 93.9698C635.522 93.6708 635.651 93.384 635.881 93.1725C636.111 92.9611 636.423 92.8423 636.748 92.8423H649.004C649.329 92.8423 649.641 92.9611 649.871 93.1725C650.101 93.384 650.23 93.6708 650.23 93.9698C650.23 94.2688 650.101 94.5556 649.871 94.767C649.641 94.9785 649.329 95.0973 649.004 95.0973ZM624.491 95.0973H612.235C611.91 95.0973 611.598 94.9785 611.368 94.767C611.138 94.5556 611.009 94.2688 611.009 93.9698C611.009 93.6708 611.138 93.384 611.368 93.1725C611.598 92.9611 611.91 92.8423 612.235 92.8423H624.491C624.816 92.8423 625.128 92.9611 625.358 93.1725C625.588 93.384 625.717 93.6708 625.717 93.9698C625.717 94.2688 625.588 94.5556 625.358 94.767C625.128 94.9785 624.816 95.0973 624.491 95.0973ZM599.978 95.0973H587.722C587.397 95.0973 587.085 94.9785 586.855 94.767C586.625 94.5556 586.496 94.2688 586.496 93.9698C586.496 93.6708 586.625 93.384 586.855 93.1725C587.085 92.9611 587.397 92.8423 587.722 92.8423H599.978C600.303 92.8423 600.615 92.9611 600.845 93.1725C601.075 93.384 601.204 93.6708 601.204 93.9698C601.204 94.2688 601.075 94.5556 600.845 94.767C600.615 94.9785 600.303 95.0973 599.978 95.0973ZM575.465 95.0973H563.209C562.884 95.0973 562.572 94.9785 562.342 94.767C562.112 94.5556 561.983 94.2688 561.983 93.9698C561.983 93.6708 562.112 93.384 562.342 93.1725C562.572 92.9611 562.884 92.8423 563.209 92.8423H575.465C575.79 92.8423 576.102 92.9611 576.332 93.1725C576.562 93.384 576.691 93.6708 576.691 93.9698C576.691 94.2688 576.562 94.5556 576.332 94.767C576.102 94.9785 575.79 95.0973 575.465 95.0973ZM550.952 95.0973H538.697C538.372 95.0973 538.06 94.9785 537.831 94.767C537.601 94.5556 537.472 94.2688 537.472 93.9698C537.472 93.6708 537.601 93.384 537.831 93.1725C538.06 92.9611 538.372 92.8423 538.697 92.8423H550.953C551.278 92.8423 551.589 92.9611 551.819 93.1725C552.049 93.384 552.178 93.6708 552.178 93.9698C552.178 94.2688 552.049 94.5556 551.819 94.767C551.589 94.9785 551.278 95.0973 550.953 95.0973H550.952ZM526.441 95.0973H514.184C513.859 95.0973 513.547 94.9785 513.318 94.767C513.088 94.5556 512.959 94.2688 512.959 93.9698C512.959 93.6708 513.088 93.384 513.318 93.1725C513.547 92.9611 513.859 92.8423 514.184 92.8423H526.441C526.766 92.8423 527.078 92.9611 527.307 93.1725C527.537 93.384 527.666 93.6708 527.666 93.9698C527.666 94.2688 527.537 94.5556 527.307 94.767C527.078 94.9785 526.766 95.0973 526.441 95.0973ZM501.928 95.0973H489.671C489.346 95.0973 489.035 94.9785 488.805 94.767C488.575 94.5556 488.446 94.2688 488.446 93.9698C488.446 93.6708 488.575 93.384 488.805 93.1725C489.035 92.9611 489.346 92.8423 489.671 92.8423H501.928C502.253 92.8423 502.565 92.9611 502.794 93.1725C503.024 93.384 503.153 93.6708 503.153 93.9698C503.153 94.2688 503.024 94.5556 502.794 94.767C502.565 94.9785 502.253 95.0973 501.928 95.0973ZM477.415 95.0973H465.158C464.833 95.0973 464.522 94.9785 464.292 94.767C464.062 94.5556 463.933 94.2688 463.933 93.9698C463.933 93.6708 464.062 93.384 464.292 93.1725C464.522 92.9611 464.833 92.8423 465.158 92.8423H477.415C477.74 92.8423 478.052 92.9611 478.282 93.1725C478.511 93.384 478.641 93.6708 478.641 93.9698C478.641 94.2688 478.511 94.5556 478.282 94.767C478.052 94.9785 477.74 95.0973 477.415 95.0973ZM452.902 95.0973H440.646C440.321 95.0973 440.009 94.9785 439.779 94.767C439.549 94.5556 439.42 94.2688 439.42 93.9698C439.42 93.6708 439.549 93.384 439.779 93.1725C440.009 92.9611 440.321 92.8423 440.646 92.8423H452.902C453.227 92.8423 453.539 92.9611 453.769 93.1725C453.999 93.384 454.128 93.6708 454.128 93.9698C454.128 94.2688 453.999 94.5556 453.769 94.767C453.539 94.9785 453.227 95.0973 452.902 95.0973ZM428.389 95.0973H416.133C415.808 95.0973 415.496 94.9785 415.266 94.767C415.036 94.5556 414.907 94.2688 414.907 93.9698C414.907 93.6708 415.036 93.384 415.266 93.1725C415.496 92.9611 415.808 92.8423 416.133 92.8423H428.389C428.714 92.8423 429.026 92.9611 429.256 93.1725C429.486 93.384 429.615 93.6708 429.615 93.9698C429.615 94.2688 429.486 94.5556 429.256 94.767C429.026 94.9785 428.714 95.0973 428.389 95.0973Z" fill="black"/>
<path d="M823.459 694.475H650.693C647.768 694.472 644.964 693.402 642.896 691.499C640.828 689.597 639.665 687.017 639.662 684.327V572.48C639.665 569.79 640.828 567.21 642.896 565.308C644.964 563.406 647.768 562.336 650.693 562.333H823.459C826.383 562.336 829.187 563.406 831.255 565.308C833.323 567.21 834.486 569.79 834.489 572.48V684.327C834.486 687.017 833.323 689.597 831.255 691.499C829.187 693.402 826.383 694.472 823.459 694.475ZM650.693 564.588C648.418 564.59 646.238 565.423 644.629 566.902C643.021 568.382 642.116 570.388 642.113 572.48V684.327C642.116 686.42 643.021 688.426 644.629 689.905C646.238 691.385 648.418 692.217 650.693 692.22H823.459C825.733 692.217 827.914 691.385 829.522 689.905C831.131 688.426 832.035 686.42 832.038 684.327V572.48C832.035 570.388 831.131 568.382 829.522 566.902C827.914 565.423 825.733 564.59 823.459 564.588H650.693Z" fill="black"/>
<path d="M998.145 94.6868H872.238C866.823 94.6868 862.433 98.7252 862.433 103.707V183.916C862.433 188.897 866.823 192.936 872.238 192.936H998.145C1003.56 192.936 1007.95 188.897 1007.95 183.916V103.707C1007.95 98.7252 1003.56 94.6868 998.145 94.6868Z" fill="#F9BC69"/>
<path d="M207.506 34.3441C212.989 34.3441 217.434 30.2552 217.434 25.2113C217.434 20.1675 212.989 16.0786 207.506 16.0786C202.023 16.0786 197.578 20.1675 197.578 25.2113C197.578 30.2552 202.023 34.3441 207.506 34.3441Z" fill="#004643"/>
<path d="M244.571 34.3441C250.054 34.3441 254.499 30.2552 254.499 25.2113C254.499 20.1675 250.054 16.0786 244.571 16.0786C239.088 16.0786 234.644 20.1675 234.644 25.2113C234.644 30.2552 239.088 34.3441 244.571 34.3441Z" fill="#A6C1BF"/>
<path d="M281.633 34.3441C287.116 34.3441 291.561 30.2552 291.561 25.2113C291.561 20.1675 287.116 16.0786 281.633 16.0786C276.15 16.0786 271.705 20.1675 271.705 25.2113C271.705 30.2552 276.15 34.3441 281.633 34.3441Z" fill="#F9BC69"/>
<path d="M1007.95 215.859H797.68C797.355 215.859 797.043 215.74 796.813 215.528C796.583 215.317 796.454 215.03 796.454 214.731C796.454 214.432 796.583 214.145 796.813 213.934C797.043 213.722 797.355 213.604 797.68 213.604H1007.95C1008.28 213.604 1008.59 213.722 1008.82 213.934C1009.05 214.145 1009.18 214.432 1009.18 214.731C1009.18 215.03 1009.05 215.317 1008.82 215.528C1008.59 215.74 1008.28 215.859 1007.95 215.859Z" fill="black"/>
<path d="M1007.95 241.221H748.653C748.328 241.221 748.017 241.102 747.787 240.89C747.557 240.679 747.428 240.392 747.428 240.093C747.428 239.794 747.557 239.507 747.787 239.296C748.017 239.084 748.328 238.966 748.653 238.966H1007.95C1008.28 238.966 1008.59 239.084 1008.82 239.296C1009.05 239.507 1009.18 239.794 1009.18 240.093C1009.18 240.392 1009.05 240.679 1008.82 240.89C1008.59 241.102 1008.28 241.221 1007.95 241.221Z" fill="black"/>
<path d="M1007.95 266.58H773.167C772.842 266.58 772.53 266.462 772.3 266.25C772.071 266.039 771.941 265.752 771.941 265.453C771.941 265.154 772.071 264.867 772.3 264.656C772.53 264.444 772.842 264.325 773.167 264.325H1007.95C1008.28 264.325 1008.59 264.444 1008.82 264.656C1009.05 264.867 1009.18 265.154 1009.18 265.453C1009.18 265.752 1009.05 266.039 1008.82 266.25C1008.59 266.462 1008.28 266.58 1007.95 266.58Z" fill="black"/>
<path d="M288.841 444.9L300.067 495.967H317.619C317.619 495.967 288.415 456.339 288.841 444.9Z" fill="black"/>
<path d="M994.838 180.118C994.604 180.118 994.374 180.056 994.177 179.939L874.888 109.583C874.752 109.503 874.635 109.4 874.543 109.278C874.451 109.157 874.386 109.02 874.352 108.875C874.317 108.731 874.314 108.581 874.342 108.436C874.371 108.29 874.43 108.151 874.517 108.026C874.603 107.901 874.716 107.794 874.848 107.709C874.98 107.625 875.129 107.565 875.286 107.533C875.443 107.501 875.606 107.498 875.764 107.524C875.922 107.55 876.074 107.605 876.209 107.685L995.499 178.041C995.722 178.173 995.893 178.367 995.985 178.595C996.078 178.823 996.088 179.073 996.014 179.307C995.939 179.541 995.785 179.746 995.573 179.892C995.361 180.039 995.103 180.118 994.838 180.118Z" fill="black"/>
<path d="M875.55 180.118C875.285 180.118 875.028 180.039 874.816 179.892C874.604 179.746 874.449 179.541 874.375 179.307C874.3 179.073 874.31 178.823 874.403 178.595C874.496 178.367 874.666 178.173 874.889 178.041L994.179 107.685C994.453 107.524 994.785 107.469 995.102 107.533C995.42 107.597 995.696 107.774 995.872 108.026C996.047 108.278 996.106 108.583 996.037 108.875C995.967 109.167 995.774 109.422 995.501 109.583L876.211 179.939C876.014 180.056 875.785 180.118 875.55 180.118Z" fill="black"/>
<path d="M818.816 677.74C818.582 677.741 818.352 677.679 818.155 677.562L654.678 581.143C654.542 581.064 654.425 580.96 654.332 580.839C654.24 580.717 654.175 580.58 654.14 580.435C654.105 580.291 654.102 580.141 654.13 579.995C654.159 579.849 654.218 579.71 654.305 579.585C654.392 579.46 654.504 579.353 654.637 579.268C654.769 579.183 654.918 579.123 655.075 579.092C655.233 579.06 655.395 579.058 655.554 579.084C655.712 579.11 655.864 579.165 655.999 579.245L819.477 675.664C819.7 675.795 819.87 675.99 819.963 676.218C820.056 676.446 820.066 676.696 819.992 676.93C819.917 677.163 819.762 677.369 819.551 677.515C819.339 677.661 819.081 677.74 818.816 677.74H818.816Z" fill="black"/>
<path d="M655.336 677.74C655.071 677.74 654.814 677.661 654.602 677.515C654.39 677.369 654.235 677.163 654.161 676.93C654.086 676.696 654.096 676.446 654.189 676.218C654.282 675.99 654.452 675.795 654.675 675.664L818.153 579.245C818.288 579.165 818.44 579.11 818.598 579.084C818.757 579.058 818.92 579.06 819.077 579.092C819.234 579.123 819.383 579.183 819.516 579.268C819.648 579.353 819.761 579.46 819.847 579.585C819.934 579.71 819.994 579.849 820.022 579.995C820.05 580.141 820.047 580.291 820.012 580.435C819.978 580.58 819.912 580.717 819.82 580.839C819.728 580.96 819.61 581.064 819.474 581.143L655.997 677.562C655.8 677.679 655.57 677.741 655.336 677.74Z" fill="black"/>
<path d="M773.961 465.958L839.798 405.393C840.258 404.97 840.881 404.732 841.531 404.732C842.182 404.732 842.805 404.97 843.265 405.393L882.745 441.711C883.204 442.134 883.828 442.372 884.478 442.372C885.128 442.372 885.752 442.134 886.211 441.711L903.924 425.417C904.384 424.994 905.007 424.757 905.657 424.757C906.307 424.757 906.931 424.994 907.391 425.417L950.909 465.451C951.252 465.766 951.485 466.167 951.58 466.604C951.675 467.041 951.627 467.493 951.442 467.905C951.258 468.317 950.945 468.669 950.543 468.918C950.141 469.166 949.668 469.299 949.184 469.301L775.702 469.807C775.217 469.809 774.742 469.677 774.337 469.43C773.933 469.183 773.618 468.831 773.431 468.418C773.245 468.006 773.196 467.552 773.29 467.114C773.384 466.676 773.618 466.273 773.961 465.958Z" fill="#A6C1BF"/>
<path d="M890.066 399.198C899.001 399.198 906.245 392.535 906.245 384.315C906.245 376.095 899.001 369.432 890.066 369.432C881.131 369.432 873.888 376.095 873.888 384.315C873.888 392.535 881.131 399.198 890.066 399.198Z" fill="#F9BC69"/>
<path d="M493.398 679.124H355.791V693.565H493.398V679.124Z" fill="#FFD6BA"/>
<path d="M137.607 346.607H0V361.048H137.607V346.607Z" fill="#004643"/>
<path d="M1012.62 521.714H875.015V536.156H1012.62V521.714Z" fill="#F9BC69"/>
<path d="M532.532 585.686C530.306 585.686 528.13 585.079 526.278 583.941C524.427 582.803 522.984 581.186 522.132 579.294C521.28 577.402 521.057 575.32 521.492 573.311C521.926 571.302 522.998 569.457 524.572 568.009C526.146 566.56 528.152 565.574 530.336 565.174C532.519 564.775 534.782 564.98 536.839 565.763C538.896 566.547 540.655 567.874 541.892 569.577C543.129 571.28 543.789 573.282 543.789 575.33C543.786 578.075 542.599 580.708 540.489 582.649C538.378 584.591 535.517 585.683 532.532 585.686ZM532.532 567.23C530.791 567.23 529.088 567.705 527.64 568.596C526.192 569.486 525.063 570.751 524.397 572.231C523.73 573.711 523.556 575.34 523.896 576.912C524.236 578.483 525.075 579.926 526.306 581.059C527.538 582.192 529.107 582.963 530.815 583.276C532.523 583.588 534.294 583.428 535.903 582.814C537.512 582.201 538.887 581.163 539.855 579.83C540.822 578.498 541.338 576.932 541.338 575.33C541.335 573.182 540.407 571.123 538.756 569.605C537.105 568.086 534.867 567.232 532.532 567.23Z" fill="black"/>
<path d="M748.653 203.291C746.427 203.291 744.251 202.683 742.399 201.545C740.548 200.407 739.106 198.79 738.254 196.897C737.402 195.005 737.179 192.923 737.614 190.914C738.049 188.905 739.121 187.06 740.695 185.612C742.27 184.164 744.276 183.178 746.46 182.778C748.643 182.379 750.907 182.584 752.964 183.368C755.02 184.152 756.778 185.48 758.015 187.183C759.252 188.886 759.912 190.888 759.912 192.936C759.908 195.682 758.721 198.314 756.61 200.255C754.499 202.196 751.638 203.288 748.653 203.291ZM748.653 184.835C746.912 184.835 745.21 185.31 743.762 186.2C742.314 187.091 741.185 188.356 740.519 189.836C739.853 191.316 739.678 192.945 740.018 194.516C740.358 196.087 741.197 197.53 742.428 198.663C743.659 199.796 745.228 200.568 746.936 200.88C748.644 201.193 750.415 201.032 752.024 200.42C753.633 199.807 755.008 198.768 755.976 197.436C756.943 196.104 757.46 194.538 757.46 192.936C757.458 190.788 756.529 188.729 754.878 187.21C753.227 185.691 750.988 184.837 748.653 184.835Z" fill="black"/>
<path d="M852.938 742.573L834.994 738.063L848.035 723.811L852.938 742.573Z" fill="#FFD6BA"/>
<path d="M95.6358 224.113L77.6924 219.603L90.7332 205.351L95.6358 224.113Z" fill="#FFD6BA"/>
<path d="M130.425 550.402L112.481 545.892L125.522 531.64L130.425 550.402Z" fill="#004643"/>
<path d="M320.163 151.868L302.22 147.358L315.261 133.106L320.163 151.868Z" fill="#004643"/>
<path d="M664.309 859.093L646.365 854.583L659.406 840.331L664.309 859.093Z" fill="#A6C1BF"/>
</svg>
