<svg width="1336" height="1062" viewBox="0 0 1336 1062" fill="none" xmlns="http://www.w3.org/2000/svg">
<path d="M1151.66 1046.54H1005.06C1002.5 1046.54 1000.04 1045.52 998.227 1043.7C996.413 1041.89 995.395 1039.43 995.395 1036.87C995.395 1034.3 996.413 1031.84 998.227 1030.03C1000.04 1028.22 1002.5 1027.2 1005.06 1027.2H1151.66C1154.23 1027.2 1156.68 1028.22 1158.5 1030.03C1160.31 1031.84 1161.33 1034.3 1161.33 1036.87C1161.33 1039.43 1160.31 1041.89 1158.5 1043.7C1156.68 1045.52 1154.23 1046.54 1151.66 1046.54Z" fill="black"/>
<path d="M325.244 406.78C325.244 406.78 320.602 387.054 375.14 369.648C429.678 352.242 459.848 331.356 465.65 306.988C465.65 306.988 478.414 369.648 501.622 381.252C501.622 381.252 530.631 290.742 463.329 258.252C396.027 225.761 319.442 272.176 288.112 332.516C256.781 392.856 262.583 404.46 230.093 441.592C209.014 465.682 57.1959 549.507 175.555 641.177C175.555 641.177 259.102 519.337 305.517 528.62C305.517 528.62 321.585 458.835 319.353 450.794C317.192 443.006 273.053 409.571 287.651 375.325C288.259 373.78 289.166 372.371 290.319 371.177C291.472 369.983 292.849 369.028 294.371 368.366C301.087 365.695 313.433 367.804 325.244 406.78Z" fill="black"/>
<path d="M367.371 623.947C351.383 623.95 330.629 592.894 304.031 529.241C303.867 528.847 303.866 528.403 304.029 528.009C304.192 527.614 304.504 527.3 304.899 527.135C305.293 526.971 305.736 526.97 306.131 527.132C306.526 527.294 306.84 527.607 307.005 528.001C340.341 607.78 359.064 622.392 368.96 620.582C383.796 617.869 388.457 575.856 389.002 559.897C387.705 544.222 389.858 528.454 395.31 513.701C395.451 513.347 395.713 513.055 396.05 512.878C396.388 512.7 396.777 512.65 397.148 512.734C422.612 518.334 443.872 514.283 460.322 500.688C501.809 466.403 500.033 382.144 500.01 381.298C499.999 380.87 500.157 380.456 500.451 380.146C500.745 379.835 501.15 379.654 501.577 379.642C502 379.647 502.406 379.811 502.713 380.101C503.02 380.392 503.206 380.788 503.233 381.21C503.328 384.732 505.079 467.876 462.38 503.169C445.427 517.182 423.709 521.551 397.824 516.175C392.971 530.175 391.062 545.027 392.217 559.799C392.14 562.453 389.951 620.019 369.541 623.752C368.825 623.882 368.099 623.947 367.371 623.947Z" fill="black"/>
<path d="M446.976 448.042C443.424 447.997 439.938 447.08 436.823 445.37C433.709 443.661 431.063 441.212 429.118 438.24C428.999 438.065 428.916 437.868 428.874 437.66C428.831 437.453 428.83 437.239 428.87 437.032C428.91 436.824 428.991 436.626 429.107 436.449C429.224 436.273 429.374 436.121 429.549 436.002C429.724 435.883 429.921 435.8 430.129 435.758C430.336 435.715 430.55 435.714 430.757 435.754C430.965 435.794 431.163 435.875 431.34 435.991C431.516 436.108 431.668 436.258 431.787 436.433C434.339 440.339 438.269 443.139 442.795 444.274C444.375 444.765 446.037 444.935 447.684 444.774C449.331 444.613 450.93 444.126 452.386 443.339C453.707 442.285 454.805 440.978 455.616 439.494C456.427 438.011 456.934 436.38 457.107 434.699C457.865 430.153 457.342 425.486 455.596 421.22C454.972 419.168 454.263 416.839 453.635 414.106C451.835 406.265 449.367 395.532 453.722 385.264C455.245 381.446 457.577 378.003 460.559 375.174C463.542 372.345 467.102 370.196 470.995 368.877C476.566 367.298 482.501 367.586 487.894 369.695C488.29 369.851 488.609 370.158 488.779 370.548C488.95 370.939 488.959 371.381 488.805 371.778C488.65 372.175 488.345 372.495 487.955 372.667C487.566 372.84 487.124 372.851 486.726 372.698C481.999 370.843 476.795 370.587 471.908 371.968C468.473 373.152 465.335 375.066 462.708 377.577C460.082 380.088 458.03 383.138 456.693 386.517C452.743 395.828 455.074 405.976 456.777 413.383C457.38 416.008 458.071 418.28 458.68 420.282C460.598 425.055 461.147 430.267 460.268 435.335C460.021 437.437 459.353 439.469 458.303 441.307C457.253 443.145 455.843 444.753 454.158 446.034C452.014 447.396 449.516 448.094 446.976 448.042Z" fill="black"/>
<path d="M440.508 376.746C440.237 376.746 439.97 376.678 439.732 376.547C439.495 376.417 439.294 376.229 439.148 376C427.42 357.627 398.454 368.785 398.165 368.895C397.968 368.974 397.757 369.013 397.545 369.01C397.333 369.007 397.124 368.963 396.929 368.879C396.734 368.795 396.558 368.673 396.41 368.521C396.263 368.368 396.147 368.188 396.069 367.991C395.991 367.794 395.953 367.583 395.956 367.371C395.96 367.159 396.006 366.95 396.09 366.755C396.175 366.561 396.297 366.385 396.45 366.238C396.603 366.091 396.784 365.976 396.981 365.899C397.296 365.77 428.723 353.679 441.865 374.269C442.02 374.512 442.108 374.793 442.118 375.081C442.128 375.37 442.06 375.656 441.921 375.909C441.782 376.163 441.578 376.374 441.329 376.521C441.08 376.669 440.797 376.746 440.508 376.746Z" fill="black"/>
<path d="M430.375 403.8C431.339 397.14 428.779 391.258 424.656 390.661C420.533 390.064 416.41 394.979 415.446 401.638C414.482 408.298 417.042 414.18 421.165 414.777C425.288 415.374 429.411 410.459 430.375 403.8Z" fill="black"/>
<path d="M485.269 411.746C486.233 405.087 483.672 399.204 479.55 398.608C475.427 398.011 471.303 402.926 470.339 409.585C469.375 416.245 471.936 422.127 476.059 422.724C480.181 423.321 484.305 418.406 485.269 411.746Z" fill="black"/>
<path d="M424.65 467.958C424.603 467.958 424.556 467.954 424.507 467.951C412.209 466.872 403.952 462.928 399.964 456.236C398.426 453.23 397.56 449.926 397.426 446.552C397.292 443.178 397.893 439.816 399.188 436.698C399.36 436.309 399.678 436.004 400.074 435.848C400.47 435.693 400.911 435.701 401.301 435.87C401.691 436.038 401.999 436.354 402.158 436.748C402.316 437.143 402.312 437.584 402.147 437.976C402.109 438.067 398.296 447.167 402.747 454.608C406.179 460.346 413.595 463.755 424.79 464.741C425.203 464.778 425.586 464.973 425.859 465.285C426.132 465.597 426.274 466.002 426.256 466.416C426.238 466.83 426.061 467.222 425.762 467.509C425.463 467.796 425.065 467.957 424.65 467.958V467.958Z" fill="black"/>
<path d="M396.8 512.569C375.034 509.858 355.187 498.755 341.488 481.625C348.025 511.44 365.475 537.732 390.409 555.335C389.499 540.788 391.677 526.214 396.8 512.569Z" fill="black"/>
<path d="M310.512 815.046C282.91 815.046 260.241 814.914 254.354 814.523C253.368 814.463 252.411 814.167 251.564 813.659C250.716 813.151 250.004 812.447 249.487 811.605C241.242 798.983 260.035 743.743 264.593 730.86C238.638 728.354 149.381 686.999 145.48 685.186C145.267 685.087 145.078 684.943 144.927 684.764C144.775 684.585 144.665 684.375 144.603 684.148C144.542 683.922 144.53 683.685 144.57 683.453C144.61 683.222 144.699 683.002 144.833 682.809L174.23 640.262C174.472 639.91 174.845 639.669 175.265 639.593C175.686 639.516 176.119 639.609 176.471 639.852C176.822 640.095 177.063 640.468 177.14 640.888C177.216 641.308 177.123 641.742 176.88 642.094L148.574 683.064C161.818 689.152 246.632 727.756 266.837 727.756C267.096 727.756 267.351 727.818 267.581 727.938C267.81 728.057 268.008 728.23 268.156 728.442C268.305 728.654 268.4 728.898 268.435 729.154C268.469 729.411 268.441 729.672 268.353 729.915C261.578 748.66 245.466 799.556 252.185 809.842C252.428 810.266 252.773 810.623 253.189 810.878C253.606 811.134 254.08 811.281 254.568 811.306C271.076 812.401 426.223 811.394 439.253 811.309C443.952 804.196 481.975 745.758 475.732 727.831C468.86 708.108 464.192 696.03 464.147 695.91C464.01 695.557 464.002 695.167 464.124 694.809C464.246 694.45 464.49 694.146 464.814 693.949L489.177 679.183C484.967 668.818 453.756 596.344 389.563 556.708C389.2 556.483 388.942 556.123 388.844 555.708C388.747 555.292 388.818 554.855 389.042 554.492C389.266 554.129 389.625 553.869 390.04 553.77C390.455 553.671 390.892 553.74 391.256 553.963C461.112 597.1 492.379 678.472 492.686 679.29C492.818 679.642 492.823 680.029 492.7 680.384C492.578 680.739 492.335 681.041 492.013 681.236L467.636 696.008C469 699.596 473.154 710.635 478.776 726.774C485.919 747.281 443.279 811.108 441.459 813.815C441.313 814.032 441.115 814.211 440.884 814.335C440.653 814.459 440.395 814.525 440.133 814.526C435.603 814.558 363.854 815.046 310.512 815.046Z" fill="black"/>
<path d="M300.154 648.914L268.437 729.367L246.628 724.403L300.154 648.914Z" fill="black"/>
<path d="M464.492 696.489L430.261 639.437L474.703 690.3L464.492 696.489Z" fill="black"/>
<path d="M625.806 992.874C615.293 992.874 604.965 985.867 601.548 983.311C599.907 985.06 597.887 986.41 595.642 987.255C593.398 988.101 590.989 988.419 588.601 988.187C574.476 986.44 561.698 963.779 553.243 948.786C551.288 945.093 549.126 941.512 546.767 938.062C543.896 934.376 535.738 938.984 525.409 944.823C512.184 952.296 494.015 962.542 474.649 961.894L468.289 961.692C326.627 957.285 86.1792 945.478 67.4392 915.889C45.1249 880.657 152.082 696.165 156.646 688.327C156.861 687.958 157.215 687.689 157.628 687.58C158.042 687.471 158.482 687.531 158.851 687.746C159.22 687.962 159.489 688.315 159.598 688.729C159.707 689.142 159.647 689.582 159.432 689.951C158.324 691.853 48.8865 880.572 70.162 914.164C83.2676 934.858 228.416 951.009 468.388 958.469L474.756 958.67C493.247 959.237 510.212 949.712 523.823 942.019C535.962 935.154 544.73 930.193 549.31 936.085C551.777 939.653 554.027 943.366 556.049 947.203C564.188 961.632 576.486 983.44 588.996 984.988C591.133 985.157 593.278 984.795 595.241 983.935C597.204 983.074 598.924 981.742 600.248 980.056C600.528 979.76 600.91 979.581 601.317 979.557C601.724 979.532 602.125 979.663 602.439 979.924C602.598 980.053 618.456 992.889 631.159 988.854C637.652 986.776 642.347 980.538 645.114 970.304C645.182 970.053 645.311 969.822 645.488 969.631C645.665 969.44 645.885 969.295 646.131 969.208C646.376 969.122 646.639 969.095 646.896 969.132C647.154 969.169 647.399 969.268 647.61 969.42C647.779 969.539 664.581 981.454 676.656 976.219C683.262 973.345 687.393 965.75 688.937 953.64C690.463 940.458 688.488 927.106 683.211 914.929C676.631 899.31 662.926 870.952 645.076 856.52C644.768 856.27 644.562 855.915 644.499 855.523C644.436 855.131 644.52 854.729 644.735 854.395C644.95 854.061 645.281 853.818 645.664 853.713C646.047 853.608 646.455 853.648 646.811 853.826C648.81 854.827 695.985 878.51 715.656 897.028C725.817 906.594 735.83 907.082 741.241 903.311C747.343 899.068 748.33 889.792 743.818 879.102C732.919 853.287 666.911 802.077 655.89 799.392C655.596 799.32 655.328 799.167 655.117 798.95C654.905 798.733 654.76 798.461 654.696 798.165C654.632 797.869 654.654 797.561 654.757 797.276C654.861 796.992 655.042 796.742 655.281 796.556C655.524 796.367 679.47 777.566 682.799 759.822C684.993 748.115 683.546 739.081 678.831 735.03C674.956 731.703 668.802 731.483 660.546 734.369C650.338 737.942 639.818 745.043 629.646 751.912C616.822 760.568 603.562 769.52 590.12 772.142C574.827 775.126 559.296 776.942 547.956 778.271C541.362 779.042 536.152 779.653 532.652 780.269C512.248 783.87 462.495 794.378 441.218 814.098C440.904 814.389 440.488 814.543 440.06 814.526C439.633 814.509 439.23 814.324 438.939 814.01C438.649 813.696 438.495 813.28 438.511 812.852C438.528 812.425 438.713 812.022 439.027 811.731C460.932 791.431 511.408 780.748 532.092 777.097C535.685 776.461 540.935 775.847 547.582 775.069C558.869 773.747 574.331 771.937 589.503 768.975C602.303 766.479 615.286 757.716 627.842 749.239C638.184 742.257 648.879 735.037 659.482 731.329C668.905 728.027 676.122 728.455 680.931 732.584C686.626 737.476 688.414 747.36 685.965 760.414C682.997 776.25 665.659 792.08 659.444 797.318C676.796 805.414 736.189 852.749 746.786 877.849C752.93 892.401 748.901 901.91 743.081 905.958C736.597 910.466 724.922 910.173 713.447 899.376C699.579 886.32 670.809 870.156 655.486 861.978C668.9 876.65 679.361 897.491 686.183 913.677C691.679 926.378 693.732 940.303 692.135 954.049C690.437 967.367 685.658 975.822 677.934 979.178C666.613 984.101 652.622 976.445 647.604 973.282C644.448 983.386 639.25 989.653 632.131 991.926C630.085 992.568 627.951 992.887 625.806 992.874Z" fill="black"/>
<path d="M601.417 982.779C601.209 982.779 601.003 982.738 600.811 982.659C600.615 982.579 600.436 982.462 600.285 982.313C600.135 982.165 600.014 981.988 599.932 981.793C599.85 981.598 599.806 981.389 599.805 981.177C599.803 980.965 599.844 980.756 599.923 980.559C605.847 965.979 577.748 918.483 566.422 901.413C566.304 901.237 566.221 901.039 566.18 900.83C566.138 900.622 566.138 900.408 566.18 900.2C566.221 899.991 566.303 899.793 566.422 899.617C566.54 899.441 566.692 899.29 566.869 899.172C567.046 899.055 567.244 898.974 567.453 898.933C567.661 898.893 567.875 898.894 568.083 898.936C568.291 898.979 568.489 899.062 568.664 899.182C568.84 899.301 568.991 899.454 569.107 899.631C570.808 902.193 610.682 962.639 602.91 981.774C602.79 982.071 602.583 982.326 602.317 982.504C602.051 982.683 601.738 982.779 601.417 982.779Z" fill="black"/>
<path d="M646.666 972.338C646.262 972.338 645.874 972.186 645.577 971.913C645.28 971.639 645.096 971.264 645.062 970.862C641.661 930.042 601.463 877.084 601.057 876.552C600.929 876.384 600.834 876.193 600.78 875.988C600.725 875.784 600.712 875.571 600.74 875.361C600.768 875.151 600.837 874.949 600.943 874.766C601.049 874.583 601.19 874.423 601.358 874.294C601.526 874.165 601.717 874.071 601.922 874.017C602.126 873.962 602.34 873.949 602.549 873.977C602.759 874.004 602.961 874.073 603.144 874.179C603.327 874.286 603.488 874.427 603.616 874.595C605.296 876.789 644.795 928.83 648.273 970.591C648.291 970.802 648.267 971.014 648.203 971.216C648.138 971.418 648.035 971.605 647.898 971.766C647.762 971.928 647.594 972.061 647.406 972.158C647.218 972.255 647.013 972.314 646.802 972.332C646.756 972.335 646.71 972.338 646.666 972.338Z" fill="black"/>
<path d="M539.998 779.209C539.72 779.209 539.447 779.137 539.205 779.001C538.963 778.865 538.76 778.669 538.616 778.431L482.333 685.217C482.112 684.851 482.045 684.412 482.148 683.997C482.25 683.582 482.513 683.224 482.879 683.003C483.245 682.782 483.684 682.715 484.1 682.817C484.515 682.92 484.872 683.183 485.094 683.549L541.377 776.763C541.524 777.007 541.603 777.287 541.607 777.572C541.611 777.857 541.54 778.139 541.4 778.387C541.259 778.636 541.056 778.843 540.81 778.987C540.563 779.131 540.283 779.208 539.998 779.209L539.998 779.209Z" fill="black"/>
<path d="M80.4066 1004.2C80.2615 1004.2 80.1171 1004.18 79.9769 1004.14C79.565 1004.03 79.2152 1003.76 79.0042 1003.38C78.7932 1003.01 78.7384 1002.57 78.8516 1002.16L98.9845 929.091C99.0401 928.886 99.1356 928.695 99.2654 928.527C99.3953 928.359 99.557 928.219 99.7412 928.114C99.9255 928.009 100.129 927.941 100.339 927.915C100.55 927.888 100.763 927.904 100.968 927.96C101.172 928.016 101.364 928.113 101.531 928.243C101.698 928.373 101.838 928.536 101.942 928.72C102.047 928.905 102.114 929.108 102.139 929.319C102.165 929.53 102.148 929.743 102.091 929.947L81.9585 1003.02C81.8648 1003.36 81.6623 1003.66 81.3821 1003.87C81.1018 1004.08 80.7591 1004.2 80.4066 1004.2Z" fill="black"/>
<path d="M474.703 1004.2C474.492 1004.2 474.282 1004.16 474.087 1004.08C473.891 1004 473.713 1003.88 473.564 1003.73C473.414 1003.58 473.295 1003.4 473.214 1003.2C473.133 1003.01 473.092 1002.8 473.092 1002.59V960.282C473.092 959.854 473.262 959.445 473.564 959.142C473.866 958.84 474.276 958.67 474.703 958.67C475.131 958.67 475.541 958.84 475.843 959.142C476.145 959.445 476.315 959.854 476.315 960.282V1002.59C476.315 1002.8 476.274 1003.01 476.193 1003.2C476.112 1003.4 475.993 1003.58 475.843 1003.73C475.694 1003.88 475.516 1004 475.32 1004.08C475.125 1004.16 474.915 1004.2 474.703 1004.2Z" fill="black"/>
<path d="M1334.39 1004.2H39.4036C38.9762 1004.2 38.5663 1004.03 38.264 1003.73C37.9618 1003.42 37.792 1003.01 37.792 1002.59C37.792 1002.16 37.9618 1001.75 38.264 1001.45C38.5663 1001.15 38.9762 1000.98 39.4036 1000.98H1334.39C1334.82 1000.98 1335.23 1001.15 1335.53 1001.45C1335.83 1001.75 1336 1002.16 1336 1002.59C1336 1003.01 1335.83 1003.42 1335.53 1003.73C1335.23 1004.03 1334.82 1004.2 1334.39 1004.2Z" fill="black"/>
<path d="M1241.47 950.612H813.506L877.971 641.177H1303.25C1304.21 641.177 1305.16 641.391 1306.02 641.803C1306.89 642.214 1307.65 642.814 1308.25 643.557C1308.86 644.3 1309.29 645.169 1309.52 646.1C1309.74 647.031 1309.76 648.001 1309.56 648.939L1247.78 945.48C1247.48 946.931 1246.69 948.233 1245.54 949.167C1244.39 950.102 1242.95 950.612 1241.47 950.612Z" fill="#FFD6BA"/>
<path d="M851.829 646.309L790.05 942.85C789.854 943.788 789.87 944.758 790.097 945.689C790.323 946.62 790.755 947.489 791.359 948.232C791.964 948.976 792.726 949.575 793.591 949.987C794.456 950.398 795.403 950.612 796.361 950.612H813.506L877.972 641.177H858.14C856.659 641.177 855.222 641.687 854.073 642.622C852.924 643.557 852.131 644.858 851.829 646.309Z" fill="black"/>
<path d="M1187.11 1046.54H1084.78L1020.31 860.876H1127.12C1128.46 860.876 1129.77 861.293 1130.86 862.069C1131.95 862.846 1132.77 863.943 1133.21 865.208L1193.2 1037.98C1193.54 1038.95 1193.64 1039.98 1193.49 1041C1193.35 1042.02 1192.96 1042.99 1192.37 1043.83C1191.77 1044.66 1190.98 1045.35 1190.07 1045.82C1189.15 1046.29 1188.14 1046.54 1187.11 1046.54Z" fill="#E16162"/>
<path d="M1001.68 869.437L1061.67 1042.2C1062.11 1043.47 1062.93 1044.57 1064.02 1045.34C1065.12 1046.12 1066.42 1046.54 1067.76 1046.54H1084.78L1020.31 860.876H1007.77C1006.74 860.876 1005.73 861.122 1004.82 861.593C1003.9 862.065 1003.11 862.748 1002.52 863.586C1001.92 864.423 1001.54 865.392 1001.39 866.41C1001.24 867.428 1001.34 868.465 1001.68 869.437Z" fill="black"/>
<path d="M1070.85 781.196H1053.83C1045.72 781.196 1039.14 787.777 1039.14 795.895C1039.14 804.012 1045.72 810.593 1053.83 810.593H1070.85C1078.97 810.593 1085.55 804.012 1085.55 795.895C1085.55 787.777 1078.97 781.196 1070.85 781.196Z" fill="black"/>
<path d="M782.339 108.197H583.504C581.794 108.197 580.155 108.876 578.946 110.085C577.737 111.294 577.058 112.933 577.058 114.643V257.242C577.058 258.952 577.737 260.591 578.946 261.8C580.155 263.009 581.794 263.688 583.504 263.688H706.774L731.73 303.419C732.028 303.893 732.443 304.281 732.937 304.546C733.43 304.81 733.984 304.942 734.543 304.927C735.102 304.913 735.648 304.753 736.127 304.464C736.606 304.174 737.001 303.765 737.274 303.276L759.378 263.688H782.339C784.048 263.688 785.688 263.009 786.897 261.8C788.106 260.591 788.785 258.952 788.785 257.242V114.643C788.785 113.797 788.618 112.958 788.294 112.176C787.97 111.394 787.496 110.683 786.897 110.085C786.298 109.486 785.588 109.011 784.806 108.687C784.023 108.363 783.185 108.197 782.339 108.197Z" fill="#F9BC69"/>
<path d="M1176.29 242.257H873.587C871.877 242.257 870.238 242.937 869.029 244.146C867.82 245.355 867.141 246.994 867.141 248.704V417.238C867.141 418.948 867.82 420.588 869.029 421.797C870.238 423.005 871.877 423.685 873.587 423.685H1099.76L1121.06 457.597C1121.36 458.071 1121.78 458.459 1122.27 458.724C1122.76 458.988 1123.32 459.12 1123.88 459.105C1124.44 459.091 1124.98 458.931 1125.46 458.641C1125.94 458.352 1126.33 457.942 1126.61 457.454L1145.46 423.685H1176.29C1178 423.685 1179.64 423.005 1180.84 421.797C1182.05 420.588 1182.73 418.948 1182.73 417.238V248.704C1182.73 246.994 1182.05 245.355 1180.84 244.146C1179.64 242.937 1178 242.257 1176.29 242.257Z" fill="#C1E5D9"/>
<path d="M634.185 198.562C646.629 198.562 646.649 179.222 634.185 179.222C621.74 179.222 621.72 198.562 634.185 198.562Z" fill="black"/>
<path d="M682.921 198.562C695.365 198.562 695.386 179.222 682.921 179.222C670.477 179.222 670.456 198.562 682.921 198.562Z" fill="black"/>
<path d="M731.657 198.562C744.101 198.562 744.122 179.222 731.657 179.222C719.213 179.222 719.192 198.562 731.657 198.562Z" fill="black"/>
<path d="M1141.53 308.15H1030.13C1029.28 308.15 1028.46 307.811 1027.85 307.206C1027.25 306.602 1026.91 305.782 1026.91 304.927C1026.91 304.072 1027.25 303.252 1027.85 302.648C1028.46 302.043 1029.28 301.704 1030.13 301.704H1141.53C1142.38 301.704 1143.2 302.043 1143.81 302.648C1144.41 303.252 1144.75 304.072 1144.75 304.927C1144.75 305.782 1144.41 306.602 1143.81 307.206C1143.2 307.811 1142.38 308.15 1141.53 308.15Z" fill="black"/>
<path d="M1141.53 337.538H1030.13C1029.28 337.538 1028.46 337.198 1027.85 336.594C1027.25 335.989 1026.91 335.169 1026.91 334.314C1026.91 333.459 1027.25 332.64 1027.85 332.035C1028.46 331.431 1029.28 331.091 1030.13 331.091H1141.53C1142.38 331.091 1143.2 331.431 1143.81 332.035C1144.41 332.64 1144.75 333.459 1144.75 334.314C1144.75 335.169 1144.41 335.989 1143.81 336.594C1143.2 337.198 1142.38 337.538 1141.53 337.538Z" fill="black"/>
<path d="M1141.53 366.925H1030.13C1029.28 366.925 1028.46 366.585 1027.85 365.981C1027.25 365.376 1026.91 364.556 1026.91 363.702C1026.91 362.847 1027.25 362.027 1027.85 361.422C1028.46 360.818 1029.28 360.478 1030.13 360.478H1141.53C1142.38 360.478 1143.2 360.818 1143.81 361.422C1144.41 362.027 1144.75 362.847 1144.75 363.702C1144.75 364.556 1144.41 365.376 1143.81 365.981C1143.2 366.585 1142.38 366.925 1141.53 366.925Z" fill="black"/>
<path d="M994.292 382.406H909.714C907.15 382.403 904.692 381.383 902.879 379.57C901.066 377.757 900.047 375.299 900.044 372.736V295.893C900.047 293.329 901.066 290.872 902.879 289.059C904.692 287.246 907.15 286.226 909.714 286.223H994.292C996.856 286.226 999.313 287.246 1001.13 289.059C1002.94 290.872 1003.96 293.329 1003.96 295.893V372.736C1003.96 375.299 1002.94 377.757 1001.13 379.57C999.313 381.383 996.856 382.403 994.292 382.406ZM909.714 292.67C908.859 292.671 908.04 293.011 907.436 293.615C906.831 294.219 906.491 295.039 906.491 295.893V372.736C906.491 373.59 906.831 374.41 907.436 375.014C908.04 375.618 908.859 375.958 909.714 375.959H994.292C995.146 375.958 995.966 375.618 996.57 375.014C997.174 374.41 997.514 373.59 997.515 372.736V295.893C997.514 295.039 997.174 294.219 996.57 293.615C995.966 293.011 995.146 292.671 994.292 292.67H909.714Z" fill="black"/>
<path d="M1013.24 352.24H814.948C813.238 352.24 811.598 352.919 810.389 354.128C809.18 355.337 808.501 356.976 808.501 358.686V495.347C808.501 497.056 809.18 498.696 810.389 499.905C811.598 501.114 813.238 501.793 814.948 501.793H855.112L876.626 536.044C876.924 536.518 877.34 536.906 877.833 537.17C878.326 537.434 878.88 537.565 879.439 537.551C879.998 537.536 880.544 537.376 881.023 537.087C881.502 536.797 881.897 536.388 882.17 535.899L901.214 501.793H1013.24C1014.95 501.793 1016.59 501.114 1017.8 499.905C1019.01 498.696 1019.69 497.056 1019.69 495.347V358.686C1019.69 356.976 1019.01 355.337 1017.8 354.128C1016.59 352.919 1014.95 352.24 1013.24 352.24Z" fill="#E16162"/>
<path d="M969.796 401.899H858.399C857.544 401.899 856.724 401.56 856.12 400.955C855.515 400.351 855.176 399.531 855.176 398.676C855.176 397.821 855.515 397.001 856.12 396.397C856.724 395.792 857.544 395.453 858.399 395.453H969.796C970.651 395.453 971.47 395.792 972.075 396.397C972.679 397.001 973.019 397.821 973.019 398.676C973.019 399.531 972.679 400.351 972.075 400.955C971.47 401.56 970.651 401.899 969.796 401.899Z" fill="black"/>
<path d="M969.796 431.283H858.399C857.544 431.283 856.724 430.944 856.12 430.339C855.515 429.735 855.176 428.915 855.176 428.06C855.176 427.205 855.515 426.385 856.12 425.781C856.724 425.177 857.544 424.837 858.399 424.837H969.796C970.651 424.837 971.47 425.177 972.075 425.781C972.679 426.385 973.019 427.205 973.019 428.06C973.019 428.915 972.679 429.735 972.075 430.339C971.47 430.944 970.651 431.283 969.796 431.283Z" fill="black"/>
<path d="M969.796 460.671H858.399C857.544 460.671 856.724 460.331 856.12 459.727C855.515 459.122 855.176 458.302 855.176 457.447C855.176 456.593 855.515 455.773 856.12 455.168C856.724 454.564 857.544 454.224 858.399 454.224H969.796C970.651 454.224 971.47 454.564 972.075 455.168C972.679 455.773 973.019 456.593 973.019 457.447C973.019 458.302 972.679 459.122 972.075 459.727C971.47 460.331 970.651 460.671 969.796 460.671Z" fill="black"/>
<path d="M180.944 800.272H0V820.914H180.944V800.272Z" fill="#FFD6BA"/>
<path d="M1322.48 567.161H1141.53V587.803H1322.48V567.161Z" fill="#004643"/>
<path d="M363.862 178.571H182.918V199.213H363.862V178.571Z" fill="#F9BC69"/>
<path d="M969.793 122.998C966.865 122.998 964.003 122.129 961.569 120.503C959.134 118.876 957.237 116.564 956.117 113.86C954.997 111.155 954.703 108.178 955.275 105.307C955.846 102.436 957.256 99.7982 959.326 97.7281C961.397 95.658 964.034 94.2484 966.906 93.6774C969.777 93.1065 972.753 93.3998 975.458 94.5204C978.163 95.641 980.475 97.5385 982.101 99.9729C983.727 102.407 984.595 105.269 984.595 108.197C984.59 112.121 983.029 115.883 980.254 118.658C977.479 121.433 973.717 122.993 969.793 122.998ZM969.793 96.6165C967.502 96.6165 965.264 97.2956 963.36 98.5678C961.456 99.84 959.972 101.648 959.095 103.764C958.219 105.88 957.989 108.208 958.436 110.454C958.883 112.7 959.985 114.763 961.604 116.382C963.224 118.002 965.287 119.105 967.533 119.552C969.779 119.999 972.107 119.77 974.223 118.893C976.338 118.017 978.147 116.533 979.419 114.629C980.692 112.726 981.371 110.487 981.371 108.197C981.368 105.127 980.147 102.184 977.977 100.013C975.806 97.8416 972.863 96.6202 969.793 96.6165Z" fill="black"/>
<path d="M567.763 533.283C564.835 533.282 561.973 532.414 559.539 530.787C557.105 529.161 555.209 526.849 554.088 524.144C552.968 521.44 552.675 518.463 553.246 515.592C553.818 512.721 555.227 510.084 557.297 508.014C559.367 505.944 562.005 504.534 564.876 503.963C567.747 503.391 570.723 503.684 573.428 504.805C576.133 505.925 578.444 507.822 580.071 510.256C581.698 512.69 582.566 515.551 582.566 518.479C582.562 522.404 581.001 526.167 578.226 528.942C575.45 531.717 571.687 533.278 567.763 533.283ZM567.763 506.901C565.472 506.902 563.234 507.581 561.33 508.854C559.426 510.126 557.942 511.935 557.066 514.051C556.19 516.167 555.961 518.495 556.408 520.741C556.855 522.987 557.958 525.05 559.578 526.669C561.197 528.288 563.261 529.391 565.507 529.837C567.753 530.284 570.081 530.054 572.197 529.177C574.312 528.301 576.121 526.816 577.393 524.912C578.665 523.008 579.343 520.769 579.343 518.479C579.339 515.409 578.118 512.466 575.947 510.295C573.776 508.125 570.833 506.904 567.763 506.901Z" fill="black"/>
<path d="M1243.8 479.756L1220.21 473.309L1237.35 452.938L1243.8 479.756Z" fill="#F9BC69"/>
<path d="M77.7067 618.598L54.1123 612.152L71.2601 591.781L77.7067 618.598Z" fill="#FFD6BA"/>
<path d="M760.048 26.8177L736.453 20.3711L753.601 0L760.048 26.8177Z" fill="#FFD6BA"/>
<path d="M285.187 274.381L261.593 267.935L278.741 247.564L285.187 274.381Z" fill="#004643"/>
<path d="M698.695 1061.26L675.101 1054.82L692.248 1034.45L698.695 1061.26Z" fill="#E16162"/>
</svg>
