<svg width="231" height="343" viewBox="0 0 231 343" fill="none" xmlns="http://www.w3.org/2000/svg">
<path d="M222.724 327.434H8.27599C3.70523 327.434 0 323.728 0 319.158V23.4983C0 18.9275 3.70523 15.2223 8.27599 15.2223H222.724C227.295 15.2223 231 18.9275 231 23.4983V319.158C231 323.728 227.295 327.434 222.724 327.434Z" fill="black"/>
<path d="M212.447 316.192H18.5533C13.9826 316.192 10.2773 312.487 10.2773 307.916V34.7399C10.2773 30.1691 13.9826 26.4639 18.5533 26.4639H212.446C217.017 26.4639 220.722 30.1691 220.722 34.7399V307.916C220.723 312.487 217.017 316.192 212.447 316.192V316.192Z" fill="#F7F7F7"/>
<path opacity="0.11" d="M37.9487 65.4999H67.4416V94.9927H37.9487V65.4999Z" fill="black"/>
<path d="M36.4556 73.9031C37.9525 74.6662 39.3373 75.5345 40.6877 76.4356C42.0298 77.3439 43.3405 78.2821 44.6026 79.2656C47.1409 81.2194 49.5351 83.3088 51.8292 85.4916L46.7388 85.8681C47.4613 84.7174 48.2278 83.5948 49.0364 82.5029C49.8265 81.418 50.6603 80.3701 51.5199 79.3415C53.2493 77.2932 55.099 75.3397 57.1104 73.5376C59.1325 71.7458 61.2856 70.0786 63.6291 68.6658C65.9874 67.282 68.4998 66.0737 71.2116 65.4999C69.4747 67.6606 67.8502 69.6541 66.2574 71.6758L61.557 77.7111C59.9994 79.7141 58.433 81.7102 56.8579 83.6995L52.1337 89.6058L49.492 92.9082L47.043 89.9827C45.0105 87.5543 43.0777 85.0322 41.2891 82.375C40.3877 81.0529 39.5349 79.6853 38.7139 78.288C37.9004 76.8831 37.1218 75.4455 36.4556 73.9031V73.9031Z" fill="#FFBE55"/>
<path opacity="0.11" d="M37.9487 151.948H67.4416V181.441H37.9487V151.948ZM37.9487 240.599H67.4416V270.092H37.9487V240.599Z" fill="black"/>
<g opacity="0.52">
<path d="M80.7153 65.4999H196.388V70.2486H80.7153V65.4999ZM80.7153 77.8721H196.388V82.6208H80.7153V77.8721ZM131.268 90.244H196.388V94.9927H80.7153V90.244H131.268Z" fill="black"/>
</g>
<g opacity="0.52">
<path d="M80.7153 151.948H196.388V156.697H80.7153V151.948ZM80.7153 164.32H196.388V169.069H80.7153V164.32ZM80.7153 176.692H135.837V181.441H80.7153V176.692Z" fill="black"/>
</g>
<g opacity="0.52">
<path d="M80.7153 240.599H196.388V245.348H80.7153V240.599ZM80.7153 252.971H191.701V257.72H80.7153V252.971ZM80.7153 265.343H196.388V270.092H80.7153V265.343Z" fill="black"/>
</g>
<path d="M166.472 30.4446H64.5283V8.27599C64.5283 3.70523 68.2335 0 72.8043 0H158.196C162.767 0 166.472 3.70523 166.472 8.27599V30.4446Z" fill="#FFBE55"/>
<path d="M78.1035 282.122H177.371V342.513H78.1035V282.122ZM177.371 282.122H78.1035L86.2374 263.901H169.237L177.371 282.122Z" fill="#FFBE55"/>
<path opacity="0.11" d="M78.1035 282.122H177.371V342.513H78.1035V282.122Z" fill="#FFBE55"/>
<path d="M112.337 180.228C112.337 180.228 89.1577 206.421 87.4993 215.187C85.841 223.953 108.507 262.698 108.507 262.698L97.975 270.038L118.992 268.029C118.992 268.029 110.147 235.865 105.12 224.911C111.881 220.326 128.168 202.381 128.168 202.381L143.274 237.58L149.786 277.8L167.245 282.938L157.053 271.88C158.859 242.318 158.826 242.312 160.148 233.275C161.411 224.637 153.917 193.305 151.705 183.32C149.493 173.336 118.874 176.118 112.337 180.228Z" fill="black"/>
<path d="M107.08 101.773C107.391 102.954 114.744 133.969 114.744 133.969C114.744 133.969 108.061 137.241 105.288 133.496C102.514 129.751 101.586 101.382 101.586 101.382L107.08 101.773V101.773Z" fill="#FFBE55"/>
<path d="M105.882 95.6304C105.882 95.6304 101.839 92.1404 100.587 94.7594C99.3344 97.3788 101.541 100.165 101.586 101.382C101.631 102.6 107.079 101.773 107.079 101.773C107.079 101.773 108.478 97.8112 105.882 95.6304V95.6304Z" fill="#FFBE55"/>
<path d="M108.418 100.778L65.6181 84.7609C65.6181 84.7609 61.7677 89.0571 63.127 94.192L106.54 104.084C106.54 104.084 108.826 104.646 108.418 100.778V100.778Z" fill="#FFBE55"/>
<path d="M132.751 121.931L129.015 131.898C129.015 131.898 129.472 136.623 134.641 136.72C139.81 136.817 140.671 133.828 140.671 133.828L139.818 122.005C139.819 122.005 134.96 120.658 132.751 121.931V121.931ZM100.108 129.665L94.9741 128.643L91.0358 107.007L95.9283 101.686L92.4072 100.672C92.4072 100.672 93.1058 96.3148 92.5858 94.0686C92.0654 91.8227 90.5885 91.2561 86.9126 92.7031C84.9747 93.8276 83.4433 100.827 85.284 104.796C87.1247 108.765 86.9416 133.741 86.5595 137.755C86.1774 141.769 97.3545 144.368 97.3545 144.368C97.3545 144.368 102.701 145.105 104.451 139.508C106.2 133.911 100.108 129.665 100.108 129.665V129.665Z" fill="#FFBE55"/>
<path d="M133.439 130.175C129.338 129.362 124.469 129.01 118.961 129.692C109.114 130.082 100.107 129.665 100.107 129.665C100.107 129.665 96.1503 136.566 97.3545 144.368C97.3545 144.368 107.168 150.37 116.619 150.748C117.698 155.179 116.011 175.226 112.337 180.227C115.102 184.519 138.333 189.587 151.705 183.32C153.978 178.904 151.674 160.083 149.807 147.586C148.515 138.935 142.02 131.876 133.439 130.175V130.175Z" fill="#FFBE55"/>
<path d="M131.096 105.582C131.096 105.582 123.682 114.646 124.552 118.128C125.424 121.61 129.597 124.849 139.491 125.947C142.887 125.438 146.645 115.297 146.559 113.175C145.997 99.2856 134.744 103.239 131.096 105.582V105.582Z" fill="#FFBE55"/>
<path d="M140.333 110.605C140.333 110.605 127.385 108.514 126.125 101.973C124.864 95.4328 135.433 92.0721 140.118 94.1169C142.114 94.988 143.122 96.5159 144.296 98.2339C145.617 100.166 147.253 100.819 149.36 101.936C150.038 102.296 150.72 102.658 151.325 103.132C154.591 105.687 153.432 108.723 152.88 112.144C152.351 115.431 151.84 118.813 149.683 121.488C145.932 126.14 139.646 125.418 139.819 122.004C139.992 118.591 143.821 111.413 140.333 110.605V110.605ZM108.507 262.698C108.507 262.698 114.832 262.576 117.239 261.885C118.318 265.609 118.992 268.029 118.992 268.029L97.9756 270.038L108.507 262.698V262.698ZM148.66 270.433C151.688 272.185 157.054 271.88 157.054 271.88L167.246 282.938L149.787 277.393L148.66 270.433Z" fill="black"/>
<path d="M65.6182 84.7609L53.8335 85.5174L63.1271 94.192L65.6182 94.7596L63.075 91.6437L67.0209 91.8513L64.1133 88.7361L68.5782 88.8399L65.0478 86.4519L68.9748 86.0171L65.6182 84.7609Z" fill="#FFBE55"/>
<path d="M59.6377 85.1448C59.6377 85.1448 59.8184 88.5114 57.968 89.3766L53.8335 85.5172L59.6377 85.1448Z" fill="#FFBE55"/>
<path d="M106.687 100.13C106.687 100.13 102.664 101.238 98.3024 99.6801C93.9413 98.1225 98.5352 93.1766 101.586 93.521C104.637 93.8652 108.69 96.6001 106.687 100.13V100.13Z" fill="#FAB9AF"/>
</svg>
