<svg width="254" height="280" viewBox="0 0 254 280" fill="none" xmlns="http://www.w3.org/2000/svg">
<path d="M164.973 49.9023C158.341 55.6635 155.572 55.0111 152.558 60.1003C150.756 54.9915 147.823 55.6635 142.553 49.9023C137.284 44.1411 140.331 23.1007 140.331 23.1007L158.1 13.276L173.546 23.1007C173.546 23.1007 171.6 44.1372 164.973 49.9023Z" fill="black"/>
<path d="M144.073 70.3101L141.725 80.8225" stroke="black" stroke-width="1.5" stroke-miterlimit="10"/>
<path d="M159.133 70.3101L155.491 86.6112" stroke="black" stroke-width="1.5" stroke-miterlimit="10"/>
<path d="M253 277.296L224.154 114.722" stroke="black" stroke-width="1.5" stroke-miterlimit="10"/>
<path d="M152.188 59.1495C152.32 59.4442 152.446 59.7586 152.569 60.1005L152.74 59.8215C152.565 59.5854 152.381 59.3611 152.188 59.1495V59.1495Z" fill="white"/>
<path d="M152.858 48.425L145.859 37.5589L149.03 33.9631L153.711 41.2294L166.054 27.2077L168.372 30.8074L152.858 48.425Z" fill="white"/>
<path d="M194.91 86.6114L190.109 114.663" stroke="black" stroke-width="1.5" stroke-miterlimit="10"/>
<path d="M161.232 277.39L190.108 114.663" stroke="black" stroke-width="1.5" stroke-miterlimit="10"/>
<path d="M152.267 82.4299C152.376 82.6149 152.45 82.8319 152.481 83.0622C152.512 83.2925 152.5 83.5292 152.446 83.7522C152.392 83.9752 152.297 84.1776 152.171 84.3423C152.044 84.5069 151.888 84.6288 151.717 84.6975L147.033 86.6113H173.483V82.4299H152.267Z" fill="black"/>
<path d="M219.869 86.6114H147.033L138.953 89.9321C138.745 90.0158 138.56 90.1785 138.423 90.3996C138.286 90.6207 138.201 90.8902 138.181 91.174L137.773 96.6758C137.75 96.9725 137.659 97.253 137.51 97.4789C137.361 97.7048 137.163 97.8652 136.942 97.9383C136.721 98.0113 136.488 97.9934 136.275 97.8871C136.062 97.7807 135.88 97.591 135.752 97.3438L131.005 88.0733L103.099 87.7668L90.8638 87.6332C89.5488 87.6122 88.2488 87.2655 87.0325 86.6114H77.6885L118.523 114.616L224.157 114.521L219.869 86.6114Z" stroke="black" stroke-width="1.5" stroke-miterlimit="10"/>
<path d="M196.525 3.89575H121.962C121.225 3.89614 120.511 4.23073 119.941 4.8426C119.371 5.45446 118.981 6.30582 118.836 7.25185L109.952 65.6063C109.86 66.211 109.872 66.8347 109.987 67.4326C110.102 68.0305 110.316 68.5876 110.615 69.0641C110.914 69.5405 111.29 69.9244 111.716 70.1881C112.141 70.4519 112.606 70.5889 113.077 70.5894H187.64C188.377 70.5897 189.092 70.2554 189.662 69.6434C190.232 69.0314 190.622 68.1796 190.766 67.2333L199.651 8.88274C199.742 8.27773 199.731 7.65359 199.616 7.05523C199.502 6.45688 199.287 5.89919 198.988 5.42228C198.689 4.94538 198.313 4.56112 197.888 4.29716C197.462 4.03321 196.996 3.89612 196.525 3.89575V3.89575ZM164.974 49.9026C158.341 55.6638 155.573 55.0114 152.558 60.1006C150.757 54.9918 147.823 55.6638 142.554 49.9026C137.284 44.1414 140.332 23.101 140.332 23.101L158.101 13.2763L173.546 23.101C173.546 23.101 171.601 44.1375 164.974 49.9026Z" fill="white"/>
<path d="M29.6326 143.669L1 278.856" stroke="black" stroke-width="1.5" stroke-miterlimit="10"/>
<path d="M60.0093 137.841H18.7329C18.7329 139.386 19.202 140.869 20.0371 141.962C20.8722 143.055 22.0048 143.669 23.1857 143.669H74.4967L60.0093 137.841Z" fill="black"/>
<path d="M45.2976 90.7454C46.4416 87.3107 47.5976 83.597 47.5976 83.597C49.2853 77.2435 50.146 70.5642 50.1438 63.8377C44.7843 59.667 38.6639 57.4674 32.4286 57.4713V57.4713C18.5867 57.4713 8.26085 74.0592 11.1343 91.661L18.4576 136.587C18.7649 138.45 19.5511 140.118 20.6851 141.313C21.8191 142.508 23.232 143.158 24.6879 143.154H73.2606L63.4962 86.2968L45.2976 90.7454Z" stroke="black" stroke-width="1.5" stroke-miterlimit="10"/>
<path d="M200.569 272.057L165.682 258.177L158.269 243.794C157.917 244.518 157.433 245.116 156.861 245.534C156.289 245.953 155.646 246.179 154.99 246.191L142.851 246.525C141.77 246.553 140.69 246.467 139.62 246.27L152.159 265.644L150.943 269C150.59 269.963 150.43 271.028 150.478 272.095C150.525 273.162 150.779 274.195 151.215 275.098C151.651 276.001 152.255 276.745 152.97 277.259C153.686 277.774 154.489 278.042 155.306 278.039L199.909 277.936C202.536 277.909 203.086 273.063 200.569 272.057Z" fill="white" stroke="black" stroke-width="1.5" stroke-miterlimit="10"/>
<path d="M200.569 272.057L172.252 260.79C171.459 263.246 170.219 265.411 168.641 267.096C167.063 268.781 165.194 269.935 163.196 270.458C161.199 270.982 159.135 270.857 157.182 270.097C155.23 269.337 153.45 267.963 151.996 266.096L150.942 269C150.589 269.963 150.429 271.028 150.477 272.095C150.524 273.161 150.778 274.195 151.214 275.098C151.65 276.001 152.254 276.745 152.97 277.259C153.685 277.773 154.489 278.041 155.305 278.038L199.908 277.936C202.536 277.909 203.085 273.063 200.569 272.057Z" stroke="black" stroke-width="1.5" stroke-miterlimit="10"/>
<path d="M158.269 243.794C157.917 244.518 157.434 245.116 156.861 245.534C156.289 245.953 155.646 246.179 154.99 246.191L142.851 246.525C141.681 246.554 140.511 246.454 139.353 246.226L162.614 252.2L158.269 243.794Z" fill="black"/>
<path d="M158.193 237.93L136.674 197.787L129.669 229.556C129.386 230.847 128.89 232.042 128.215 233.055C127.541 234.068 126.704 234.875 125.766 235.419L126.096 235.981C128.059 239.338 130.6 242.041 133.511 243.873C136.421 245.705 139.621 246.614 142.85 246.525L154.99 246.191C155.717 246.173 156.426 245.896 157.043 245.39C157.659 244.885 158.158 244.169 158.487 243.32C158.817 242.471 158.963 241.521 158.911 240.572C158.86 239.622 158.611 238.709 158.193 237.93V237.93Z" fill="black"/>
<path d="M105.919 201.501L113.119 159.204L71.335 142.396L105.919 201.501Z" fill="black"/>
<path d="M73.647 125.175L138.485 235.981" stroke="white" stroke-width="4.13" stroke-miterlimit="10"/>
<path d="M74.4218 80.0602L90.4466 63.3819L75.4127 38.6238C75.2986 38.4273 75.1815 38.2308 75.0614 38.0382L74.9893 37.9203C72.6563 34.3155 69.3783 31.9818 65.7985 31.3771V28.7205H58.8085V32.2967C55.9789 33.6076 53.5292 36.0336 51.7963 39.2413C50.0633 42.4489 49.1323 46.2805 49.1312 50.209C49.1312 51.4291 49.2207 52.6464 49.3984 53.8441C50.8666 63.767 50.101 74.0396 47.5968 83.5971C47.5968 83.5971 46.4409 87.3108 45.2969 90.7455L73.6322 83.8211L73.8243 83.7307C73.0062 81.7197 72.6114 79.4601 72.6804 77.1835L74.4218 80.0602Z" stroke="black" stroke-width="1.5" stroke-miterlimit="10"/>
<path d="M66.1438 7.99814C65.243 12.3524 61.0634 13.107 57.8506 13.3938C57.4273 13.264 56.9833 13.3142 56.5832 13.5371C56.1831 13.76 55.8477 14.1441 55.6258 14.6335C55.4038 15.1229 55.3069 15.6922 55.349 16.2586C55.3911 16.8251 55.5701 17.3593 55.8599 17.7835L58.5623 21.7133C58.6587 21.8599 58.7675 21.9918 58.8865 22.1063C59.3764 22.9827 60.0172 23.6956 60.7569 24.1872C61.4967 24.6788 62.3145 24.9353 63.1442 24.9358V24.9358C64.5434 24.9286 65.8836 24.1965 66.8716 22.8997C67.8596 21.6028 68.4151 19.8467 68.4167 18.0153V13.7554C67.2697 13.3899 65.6063 10.6233 66.1438 7.99814Z" fill="white" stroke="black" stroke-width="1.5" stroke-miterlimit="10"/>
<path d="M63.7925 24.8773C64.417 25.6633 65.3328 26.6772 65.7982 26.5004V23.9931C65.1826 24.4635 64.5001 24.7644 63.7925 24.8773V24.8773Z" fill="black"/>
<path d="M63.1323 24.936C62.3027 24.9355 61.4848 24.6791 60.745 24.1874C60.0053 23.6958 59.3645 22.9829 58.8746 22.1066C58.8506 22.0869 58.8326 22.0555 58.8086 22.0319V28.7126H65.7986V23.9968C64.9892 24.6138 64.069 24.938 63.1323 24.936V24.936Z" fill="white" stroke="black" stroke-width="1.5" stroke-miterlimit="10"/>
<path d="M77.4755 39.2368C76.0583 30.3632 71.2451 22.4681 71.4193 13.4059C71.5094 8.18308 70.2993 3.69125 66.7653 1.2626C64.2281 -0.482255 61.1355 -0.226814 58.3941 0.869616C54.6049 2.36689 50.9387 5.83303 49.9569 10.8632C49.7407 11.9597 49.6566 13.0993 49.4134 14.184C48.909 16.4043 47.753 18.2474 46.624 20.0277C45.6302 21.5996 44.6213 23.1716 43.3542 24.3505C42.0271 25.5884 40.4718 26.3154 39.0035 27.2665C36.8056 28.6655 34.7278 30.5911 33.4037 33.287C32.0796 35.9829 31.6021 39.5316 32.641 42.4357C33.6109 45.1866 35.7277 46.9629 37.9046 47.9886C40.3611 49.1454 42.9901 49.5356 45.5821 49.1283C46.8146 48.912 48.033 48.5757 49.2273 48.1222C49.5273 44.5727 50.5851 41.2057 52.2797 38.4067C53.9742 35.6078 56.2369 33.4903 58.8085 32.2967V22.0319C58.7154 21.9417 58.629 21.8404 58.5503 21.7293L55.8479 17.7994C55.5581 17.3752 55.3791 16.8411 55.337 16.2746C55.2949 15.7081 55.3918 15.1389 55.6138 14.6494C55.8357 14.16 56.1711 13.776 56.5712 13.553C56.9713 13.3301 57.4153 13.2799 57.8387 13.4098C61.0514 13.1308 65.234 12.3684 66.1318 8.0141C65.5943 10.6392 67.2577 13.4059 68.4167 13.7713V18.0156C68.4162 19.2265 68.173 20.4161 67.7115 21.4656C67.2499 22.5152 66.5862 23.3879 65.7865 23.9968V31.3771C69.3663 31.9887 72.6423 34.3295 74.9713 37.94V37.94L75.0434 38.0579C75.1635 38.2504 75.2806 38.4508 75.3947 38.6434L77.7277 42.4789C77.7273 41.3899 77.6427 40.3037 77.4755 39.2368V39.2368Z" fill="black"/>
<path d="M136.576 272.619L120.857 266.382L120.086 258.723L119.065 248.592L118.338 241.393L120.122 235.525C119.769 235.334 119.429 235.107 119.104 234.845L107.093 225.217L105.865 236.712C105.865 236.712 105.445 236.712 105.244 236.751C105.157 236.751 105.076 236.791 104.992 236.806C104.908 236.822 104.766 236.854 104.655 236.889C104.544 236.924 104.481 236.956 104.391 236.991C104.301 237.026 104.196 237.066 104.091 237.117C103.986 237.168 103.923 237.211 103.839 237.262C103.755 237.313 103.658 237.364 103.571 237.423C103.484 237.482 103.412 237.545 103.334 237.608C103.256 237.671 103.169 237.742 103.091 237.812C103.013 237.883 102.944 237.954 102.875 238.029C102.806 238.103 102.725 238.186 102.653 238.268C102.581 238.351 102.52 238.429 102.457 238.512C102.394 238.594 102.322 238.693 102.259 238.787C102.196 238.881 102.145 238.964 102.088 239.054C102.031 239.145 101.971 239.255 101.917 239.361C101.863 239.467 101.818 239.553 101.773 239.648C101.728 239.742 101.671 239.872 101.626 239.986C101.581 240.1 101.545 240.186 101.509 240.288C101.473 240.39 101.428 240.528 101.392 240.65C101.356 240.772 101.331 240.858 101.304 240.964C101.277 241.07 101.244 241.22 101.22 241.357C101.196 241.495 101.178 241.569 101.16 241.679C101.142 241.789 101.127 241.951 101.112 242.072C101.097 242.194 101.088 242.289 101.082 242.399C101.076 242.509 101.082 242.685 101.082 242.827C101.082 242.968 101.082 243.039 101.082 243.149C101.082 243.259 101.103 243.452 101.118 243.601C101.133 243.75 101.133 243.805 101.145 243.904C101.169 244.073 101.202 244.242 101.238 244.411C101.253 244.497 101.265 244.58 101.286 244.666C101.345 244.924 101.418 245.177 101.506 245.421L106.871 260.81L111.309 273.539C111.814 274.988 112.628 276.217 113.652 277.078C114.677 277.938 115.869 278.395 117.086 278.392H122.07L135.936 278.361C138.497 278.325 139.032 273.594 136.576 272.619Z" fill="white" stroke="black" stroke-width="1.5" stroke-miterlimit="10"/>
<path d="M105.862 236.693L87.21 148.782" stroke="black" stroke-width="1.5" stroke-miterlimit="10"/>
<path d="M136.575 272.619L120.857 266.382L119.055 248.592C117.553 249.442 115.913 249.791 114.283 249.607C112.652 249.424 111.082 248.713 109.713 247.54C108.344 246.366 107.219 244.766 106.439 242.883C105.659 241 105.248 238.893 105.243 236.751C104.506 236.863 103.8 237.202 103.182 237.739C102.564 238.276 102.052 238.997 101.688 239.843C101.323 240.688 101.117 241.635 101.085 242.605C101.053 243.575 101.197 244.541 101.505 245.425L106.871 260.814L111.308 273.543C111.814 274.992 112.628 276.22 113.652 277.08C114.676 277.941 115.868 278.398 117.085 278.396H122.07L135.936 278.365C138.497 278.325 139.031 273.594 136.575 272.619Z" stroke="black" stroke-width="1.5" stroke-miterlimit="10"/>
<path d="M107.09 225.198L120.118 235.518L118.337 241.373C118.337 241.373 116.299 234.405 107.09 225.198Z" fill="black"/>
<path d="M47.6299 278.856L76.1273 144.321" stroke="black" stroke-width="1.5" stroke-miterlimit="10"/>
<path d="M68.4529 278.856L39.8174 143.669" stroke="black" stroke-width="1.5" stroke-miterlimit="10"/>
<path d="M13.0347 221.531H56.4159" stroke="black" stroke-width="1.5" stroke-miterlimit="10"/>
<path d="M59.6646 221.531H102.511" stroke="black" stroke-width="1.5" stroke-miterlimit="10"/>
<path d="M72.671 77.1835C70.7343 74.3658 68.9058 71.442 67.1012 68.4868C65.2967 65.5315 63.5432 62.533 61.8857 59.4284C63.8224 62.2422 65.651 65.17 67.4555 68.1213C69.2601 71.0726 71.0136 74.0789 72.671 77.1835Z" fill="black"/>
<path d="M134.684 125.43L74.086 83.8721C73.9899 83.8014 73.8878 83.7385 73.7858 83.6678C73.7919 83.6899 73.8 83.7109 73.8098 83.7307L73.6176 83.8211L46.054 90.5568C43.6587 94.3301 42.0392 98.8413 41.349 103.663C40.6589 108.485 40.9209 113.458 42.1102 118.11C43.2995 122.762 45.3768 126.94 48.1451 130.247C50.9135 133.554 54.2812 135.881 57.9292 137.008L113.113 159.204L103.505 215.75C103.218 217.437 103.341 219.199 103.857 220.79C104.373 222.381 105.255 223.722 106.382 224.624L119.113 234.842C120.041 235.603 121.092 236.072 122.183 236.211C123.274 236.35 124.374 236.155 125.398 235.643C126.421 235.13 127.34 234.314 128.081 233.258C128.823 232.201 129.366 230.934 129.67 229.556L145.394 158.26C146.773 152.011 146.461 145.33 144.509 139.347C142.557 133.365 139.087 128.449 134.684 125.43V125.43Z" fill="black"/>
<path d="M46.0594 90.5569C44.7803 92.734 41.5375 99.682 44.0777 108.968C46.6179 118.254 55.0311 128.339 64.7504 131.329L119.935 153.525L108.951 217.975" stroke="white" stroke-width="4.13" stroke-miterlimit="10"/>
<path d="M103.82 213.848L128.021 233.344" stroke="white" stroke-width="4.13" stroke-miterlimit="10"/>
<path d="M128.021 238.826L154.78 231.568" stroke="white" stroke-width="4.13" stroke-miterlimit="10"/>
<path d="M151.525 81.6791L132.396 79.6159H132.372L92.5846 71.7091L88.8584 65.0283L77.6558 76.6843L84.3005 84.151C86.1559 86.2382 88.5167 87.3967 90.9632 87.4206L103.187 87.5582L131.069 87.8647L135.813 97.1235C135.939 97.3711 136.121 97.5615 136.334 97.6684C136.547 97.7754 136.779 97.7938 137 97.7211C137.221 97.6484 137.419 97.4882 137.568 97.2623C137.717 97.0364 137.808 96.756 137.83 96.4593L138.239 90.9575C138.26 90.6747 138.344 90.4063 138.481 90.1855C138.617 89.9647 138.8 89.8014 139.007 89.7157L151.762 84.5086C152.011 84.4124 152.225 84.2051 152.369 83.9228C152.512 83.6405 152.575 83.3011 152.547 82.9641C152.519 82.6271 152.401 82.3138 152.214 82.0789C152.027 81.844 151.784 81.7025 151.525 81.6791Z" fill="white" stroke="black" stroke-width="1.5" stroke-miterlimit="10"/>
<path d="M88.8674 65.0283L77.6558 76.6921L77.956 77.0105C83.3967 71.1785 90.756 68.5416 90.798 68.4787L88.8674 65.0283Z" fill="black"/>
<path d="M71.335 142.396C74.839 143.704 78.334 145.048 81.829 146.392L92.3049 150.471L102.76 154.633L107.987 156.716L113.206 158.834L113.467 158.94L113.407 159.286L111.584 169.853C110.984 173.39 110.353 176.896 109.729 180.413L107.849 190.965C107.207 194.478 106.579 197.995 105.922 201.505C106.462 197.968 107.033 194.431 107.591 190.894L109.312 180.283C109.888 176.746 110.459 173.21 111.056 169.692L112.834 159.113L113.035 159.565L107.807 157.482L102.589 155.36L92.1518 151.116L81.7329 146.793C78.2649 145.343 74.7939 143.889 71.335 142.396Z" fill="white"/>
</svg>
